<svg width="49" height="48" viewBox="0 0 49 48" fill="none" xmlns="http://www.w3.org/2000/svg">
<path fill-rule="evenodd" clip-rule="evenodd" d="M24 10C15.9887 10 9.5 16.4235 9.5 24.3541C9.5 30.7058 13.6506 36.0707 19.4144 37.9726C20.1394 38.0982 20.4113 37.6676 20.4113 37.2908C20.4113 36.9498 20.3931 35.8195 20.3931 34.6173C16.75 35.2812 15.8075 33.7381 15.5175 32.9307C15.3544 32.518 14.6475 31.2441 14.0312 30.9032C13.5237 30.634 12.7987 29.9702 14.0131 29.9522C15.155 29.9343 15.9706 30.9929 16.2425 31.4235C17.5475 33.5946 19.6319 32.9845 20.4656 32.6077C20.5925 31.6747 20.9731 31.0467 21.39 30.6879C18.1637 30.329 14.7925 29.091 14.7925 23.6005C14.7925 22.0395 15.3544 20.7476 16.2787 19.7429C16.1337 19.384 15.6262 17.9127 16.4237 15.939C16.4237 15.939 17.6381 15.5622 20.4113 17.4103C21.5712 17.0873 22.8038 16.9259 24.0363 16.9259C25.2688 16.9259 26.5012 17.0873 27.6613 17.4103C30.4344 15.5443 31.6488 15.939 31.6488 15.939C32.4462 17.9127 31.9387 19.384 31.7938 19.7429C32.7181 20.7476 33.28 22.0216 33.28 23.6005C33.28 29.1089 29.8906 30.329 26.6644 30.6879C27.19 31.1364 27.6431 31.9977 27.6431 33.3434C27.6431 35.2632 27.625 36.8063 27.625 37.2908C27.625 37.6676 27.8969 38.1161 28.6219 37.9726C34.3494 36.0707 38.5 30.6879 38.5 24.3541C38.5 16.4235 32.0112 10 24 10Z" fill="#24292F"/>
</svg>
