<svg width="24" height="24" viewBox="0 0 24 24" fill="none" xmlns="http://www.w3.org/2000/svg">
<rect width="24" height="23.3077" rx="11.6538" fill="#1F35FF"/>
<path d="M12.3459 21.1538C17.6351 21.1538 21.9228 16.6442 21.9228 11.434C21.9228 6.22374 17.6351 2 12.3459 2C8.29262 2 4.82748 4.64831 3.42938 8.23077V15.1694C4.82748 18.6734 8.29262 21.1538 12.3459 21.1538Z" fill="#FFCC00"/>
<path d="M2.99976 8.07388C2.99976 6.49683 2.99976 5.7083 3.31153 5.1081C3.57427 4.60232 3.98666 4.18993 4.49244 3.9272C5.09264 3.61542 5.88117 3.61542 7.45822 3.61542H11.6951C13.2722 3.61542 14.0607 3.61542 14.6609 3.9272C15.1667 4.18993 15.5791 4.60232 15.8418 5.1081C16.1536 5.7083 16.1536 6.49683 16.1536 8.07388V15.2093C16.1536 17.312 16.1536 18.3634 15.7379 19.1636C15.3876 19.838 14.8377 20.3879 14.1634 20.7382C13.3631 21.1539 12.3117 21.1539 10.209 21.1539H8.07668C-nan -nan -nan -nan -nan -nanC-nan -nan -nan -nan 8.07668 21.1539C8.07668 21.1539 5.99964 21.1539 4.26893 17.9231C3.33081 16.1719 3.05846 13.1715 3.00881 12.5143C3.00642 12.4827 3.00523 12.4669 3.00356 12.4351C3.00244 12.4138 3.00098 12.375 3.00049 12.3537C2.99976 12.3219 2.99976 12.2988 2.99976 12.2526V8.07388Z" fill="#2F2F3D"/>
<circle cx="9.80741" cy="8.11539" r="5.88462" fill="#F9FAFC"/>
<path d="M12.2305 17.2308C12.2305 19.3337 10.5257 21.1539 8.4228 21.1539C6.31987 21.1539 4.61511 19.4491 4.61511 17.3462C4.61511 15.2432 6.31987 13.4231 8.4228 13.4231C10.5257 13.4231 12.2305 15.1279 12.2305 17.2308Z" fill="#FFCC00"/>
<path d="M7.84576 15.6154C9.06002 16.5126 9.72163 16.4987 10.8458 15.6154" stroke="black" stroke-width="0.415385"/>
<path d="M3.92267 10.077C2.68236 11.5714 2.70148 12.3857 3.92267 13.7693" stroke="#FFCC00" stroke-width="0.461538"/>
<path d="M11.0765 15.6154C12.2908 16.5126 12.9524 16.4987 14.0765 15.6154" stroke="#F9FAFC" stroke-width="0.415385"/>
<path d="M6.69189 9.26924V8.46155H9.80728V9.26924" stroke="#1F35FF" stroke-width="0.415385"/>
<path d="M15.2304 9.84619L14.5381 10.4231L15.2304 11" stroke="#1F35FF" stroke-width="0.230769"/>
<path d="M9.92267 6.26923H11.3073M9.92267 6.96153H11.3073" stroke="#FFCC00" stroke-width="0.346154"/>
<path d="M7.26886 10.1923C8.07995 9.50759 8.53469 9.50746 9.34578 10.1923" stroke="#2F2F3D" stroke-width="0.276923"/>
<path d="M12.2303 10.1923C13.0414 9.50759 13.4962 9.50746 14.3073 10.1923" stroke="#2F2F3D" stroke-width="0.276923"/>
<path d="M8.59578 10.1923C8.59578 10.3516 8.46663 10.4808 8.30732 10.4808C8.14801 10.4808 8.01886 10.3516 8.01886 10.1923C8.01886 10.033 8.14801 9.90387 8.30732 9.90387C8.46663 9.90387 8.59578 10.033 8.59578 10.1923Z" fill="#2F2F3D"/>
<path d="M15.2303 12.9392C15.2303 13.7552 14.5588 14.4615 13.7303 14.4615C12.9019 14.4615 12.2303 13.8 12.2303 12.9839C12.2303 12.1679 12.9019 11.4615 13.7303 11.4615C14.5588 11.4615 15.2303 12.1231 15.2303 12.9392Z" fill="#FFCC00"/>
<path d="M8.99963 13.077C8.99963 13.5385 9.20156 13.7693 9.6054 13.7693C10.0092 13.7693 9.80733 13.7693 10.2112 13.7693C10.615 13.7693 10.615 14.2308 10.615 14.2308" stroke="#1F35FF" stroke-width="0.415385"/>
<path d="M12.2302 13.077C12.2302 13.5385 12.0283 13.7693 11.6245 13.7693C11.2206 13.7693 11.4225 13.7693 11.0187 13.7693C10.6148 13.7693 10.6148 14.2308 10.6148 14.2308" stroke="#1F35FF" stroke-width="0.415385"/>
<path d="M12.1933 8.6923L15.1933 7.3077L15.1933 7.76923L12.1933 9.15385L12.1933 8.6923Z" fill="#2F2F3D"/>
<path d="M8.59603 2.28846C8.59603 2.44777 8.46688 2.57692 8.30757 2.57692C8.14825 2.57692 8.0191 2.44777 8.0191 2.28846C8.0191 2.12915 8.14825 2 8.30757 2C8.46688 2 8.59603 2.12915 8.59603 2.28846Z" fill="#2F2F3D"/>
<path d="M9.46127 2.57693C9.34589 2.57693 9.19065 2.50149 9.12668 2.35344C9.06272 2.20538 9.11512 2.00001 9.34589 1.88462C10.0382 1.53847 10.4805 2.3644 10.3843 2.9231L10.1536 2.92309C10.1536 2.92309 10.269 2.34616 9.69204 2.46155C9.62789 2.47438 9.57666 2.57693 9.46127 2.57693Z" fill="#2F2F3D"/>
</svg>
