<svg width="25" height="24" viewBox="0 0 25 24" fill="none" xmlns="http://www.w3.org/2000/svg">
<path d="M9.3 4.75C9.71421 4.75 10.05 4.41421 10.05 4C10.05 3.58579 9.71421 3.25 9.3 3.25V4.75ZM15.7 3.25C15.2858 3.25 14.95 3.58579 14.95 4C14.95 4.41421 15.2858 4.75 15.7 4.75V3.25ZM19.75 8.8C19.75 9.21421 20.0858 9.55 20.5 9.55C20.9142 9.55 21.25 9.21421 21.25 8.8H19.75ZM21.25 15.2C21.25 14.7858 20.9142 14.45 20.5 14.45C20.0858 14.45 19.75 14.7858 19.75 15.2H21.25ZM15.7 19.25C15.2858 19.25 14.95 19.5858 14.95 20C14.95 20.4142 15.2858 20.75 15.7 20.75V19.25ZM9.3 20.75C9.71421 20.75 10.05 20.4142 10.05 20C10.05 19.5858 9.71421 19.25 9.3 19.25V20.75ZM5.25 15.2C5.25 14.7858 4.91421 14.45 4.5 14.45C4.08579 14.45 3.75 14.7858 3.75 15.2H5.25ZM3.75 8.8C3.75 9.21421 4.08579 9.55 4.5 9.55C4.91421 9.55 5.25 9.21421 5.25 8.8H3.75ZM7.7 4.75H9.3V3.25H7.7V4.75ZM15.7 4.75H17.3V3.25H15.7V4.75ZM19.75 7.2V8.8H21.25V7.2H19.75ZM19.75 15.2V16.8H21.25V15.2H19.75ZM17.3 19.25H15.7V20.75H17.3V19.25ZM9.3 19.25H7.7V20.75H9.3V19.25ZM5.25 16.8V15.2H3.75V16.8H5.25ZM5.25 8.8V7.2H3.75V8.8H5.25ZM7.7 19.25C6.3469 19.25 5.25 18.1531 5.25 16.8H3.75C3.75 18.9815 5.51848 20.75 7.7 20.75V19.25ZM19.75 16.8C19.75 18.1531 18.6531 19.25 17.3 19.25V20.75C19.4815 20.75 21.25 18.9815 21.25 16.8H19.75ZM17.3 4.75C18.6531 4.75 19.75 5.8469 19.75 7.2H21.25C21.25 5.01848 19.4815 3.25 17.3 3.25V4.75ZM7.7 3.25C5.51848 3.25 3.75 5.01848 3.75 7.2H5.25C5.25 5.8469 6.3469 4.75 7.7 4.75V3.25ZM15.75 12C15.75 13.7949 14.2949 15.25 12.5 15.25V16.75C15.1234 16.75 17.25 14.6234 17.25 12H15.75ZM12.5 15.25C10.7051 15.25 9.25 13.7949 9.25 12H7.75C7.75 14.6234 9.87665 16.75 12.5 16.75V15.25ZM9.25 12C9.25 10.2051 10.7051 8.75 12.5 8.75V7.25C9.87665 7.25 7.75 9.37665 7.75 12H9.25ZM12.5 8.75C14.2949 8.75 15.75 10.2051 15.75 12H17.25C17.25 9.37665 15.1234 7.25 12.5 7.25V8.75Z" fill="#00CC99"/>
</svg>
