<svg width="24" height="24" viewBox="0 0 24 24" fill="none" xmlns="http://www.w3.org/2000/svg">
<path d="M9 14L9.85714 12M15 14L14.1429 12M9.85714 12L11.8529 7.34315C11.8993 7.23501 11.9225 7.18094 11.955 7.16454C11.9833 7.1503 12.0167 7.1503 12.045 7.16454C12.0775 7.18094 12.1007 7.23501 12.1471 7.34315L14.1429 12M9.85714 12H14.1429M12.6903 21.6396C18.1987 18.556 19.8254 12.4288 19.9863 5.4389C19.9961 5.0152 20.001 4.80335 19.9275 4.61617C19.8639 4.45391 19.7527 4.30411 19.6159 4.19618C19.458 4.07166 19.2481 4.01335 18.8282 3.89673L12.4282 2.11895C12.2688 2.07468 12.1892 2.05254 12.1082 2.04373C12.0363 2.03591 11.9637 2.03591 11.8918 2.04373C11.8108 2.05254 11.7312 2.07468 11.5718 2.11895L5.17177 3.89673C4.75194 4.01335 4.54203 4.07166 4.38415 4.19618C4.24729 4.30411 4.13613 4.45391 4.07248 4.61617C3.99905 4.80335 4.00393 5.0152 4.01368 5.4389C4.17461 12.4288 5.80133 18.556 11.3097 21.6396C11.534 21.7652 11.6462 21.828 11.7973 21.8592C11.9158 21.8838 12.0842 21.8838 12.2027 21.8592C12.3538 21.828 12.466 21.7652 12.6903 21.6396Z" stroke-opacity="0.9" stroke-width="1.5" stroke-linecap="round"/>
</svg>
