<svg width="24" height="24" viewBox="0 0 24 24" fill="none" xmlns="http://www.w3.org/2000/svg">
<path d="M2.4925 11C2.85456 11 3.88318 11 3.88318 11M21.035 11H20.1079M20.1079 11L21.9621 19C21.9621 19 22.4259 21 20.1081 21C18.6247 21 7.12798 21 4.34681 21C1.56564 21 2.02893 19 2.02893 19L3.88318 11M20.1079 11H3.88318M7.12819 14.5H8.05531M10.3731 14.5H11.3003M16.3994 14.5H17.3266M9.90956 17.5H14.5452M7.12819 17.5H8.05531M16.3994 17.5H17.3266M13.5 14.5H14.4271" stroke="#7000FF" stroke-width="1.5" stroke-linecap="round"/>
<path d="M17.0273 5.90327L16.1269 7.86145C15.8006 8.57113 15.0909 9.02588 14.3098 9.02588L12.0017 9.02588M7.15415 6.68392L7.84605 7.97219C8.19454 8.62106 8.87147 9.02588 9.608 9.02588L12.0017 9.02588M12.0017 9.02588L12.0017 5.12262" stroke="#7000FF" stroke-width="1.5" stroke-linejoin="round"/>
<path d="M17.3846 6.68389C16.4925 6.68389 15.7692 5.98487 15.7692 5.12258C15.7692 4.2603 16.4925 3.56128 17.3846 3.56128C18.2768 3.56128 19 4.2603 19 5.12258C19 5.98487 18.2768 6.68389 17.3846 6.68389Z" stroke="#7000FF" stroke-width="1.5"/>
<path d="M6.61538 6.68389C7.50754 6.68389 8.23077 5.98487 8.23077 5.12258C8.23077 4.2603 7.50754 3.56128 6.61538 3.56128C5.72323 3.56128 5 4.2603 5 5.12258C5 5.98487 5.72323 6.68389 6.61538 6.68389Z" stroke="#7000FF" stroke-width="1.5"/>
<path d="M12.0002 5.12261C12.8923 5.12261 13.6155 4.42359 13.6155 3.5613C13.6155 2.69902 12.8923 2 12.0002 2C11.108 2 10.3848 2.69902 10.3848 3.5613C10.3848 4.42359 11.108 5.12261 12.0002 5.12261Z" stroke="#7000FF" stroke-width="1.5"/>
<path d="M13.3857 11.6619C14.2969 10.9229 14.4158 9.60981 13.6511 8.72908C12.8865 7.84835 11.528 7.73347 10.6167 8.47249C9.7055 9.21151 9.58664 10.5246 10.3513 11.4053C11.1159 12.286 12.4744 12.4009 13.3857 11.6619Z" fill="white" stroke="#7000FF" stroke-width="1.5"/>
</svg>
