<svg xmlns="http://www.w3.org/2000/svg" fill="none" viewBox="0 0 20 20">
  <path fill="#000" fill-opacity=".9" d="m15 15.5.45-.6a.75.75 0 0 0-.45-.15v.75Zm4 3-.45.6a.75.75 0 0 0 1.2-.6H19ZM.25 4.5v7.999L1 12.5h.75v-8H.25Zm0 8c0 1.116.28 2.09.97 2.78s1.664.97 2.78.97v-1.5c-.884 0-1.41-.22-1.72-.53-.31-.31-.53-.836-.53-1.72H.25ZM4 16.25h11v-1.5H4v1.5Zm10.55-.15 4 3 .9-1.2-4-3-.9 1.2Zm5.2 2.4V4.769h-1.5V18.5h1.5Zm0-13.731c0-1.217-.25-2.26-.928-2.994C18.132 1.027 17.14.75 16 .75v1.5c.918 0 1.425.223 1.72.542.308.334.53.925.53 1.977h1.5ZM16 .75H4v1.5h12V.75ZM1.75 4.5c0-.884.22-1.41.53-1.72.31-.31.836-.53 1.72-.53V.75c-1.116 0-2.09.28-2.78.97S.25 3.384.25 4.5h1.5Z"/>
</svg>
