<svg width="24" height="24" viewBox="0 0 24 24" fill="none" xmlns="http://www.w3.org/2000/svg">
<path d="M17 12.25C17.4142 12.25 17.75 11.9142 17.75 11.5C17.75 11.0858 17.4142 10.75 17 10.75V12.25ZM6 11.5L5.50612 10.9356C5.34336 11.078 5.25 11.2837 5.25 11.5C5.25 11.7163 5.34336 11.922 5.50612 12.0644L6 11.5ZM10.4939 8.56443C10.8056 8.29167 10.8372 7.81785 10.5644 7.50612C10.2917 7.19439 9.81785 7.16281 9.50612 7.43557L10.4939 8.56443ZM9.50612 15.5644C9.81785 15.8372 10.2917 15.8056 10.5644 15.4939C10.8372 15.1822 10.8056 14.7083 10.4939 14.4356L9.50612 15.5644ZM17 10.75H6V12.25H17V10.75ZM6.49388 12.0644L10.4939 8.56443L9.50612 7.43557L5.50612 10.9356L6.49388 12.0644ZM5.50612 12.0644L9.50612 15.5644L10.4939 14.4356L6.49388 10.9356L5.50612 12.0644Z" fill="#3300FF"/>
</svg>
