<svg xmlns="http://www.w3.org/2000/svg" fill="none" viewBox="0 0 20 20"><path stroke="#30F" stroke-linecap="round" stroke-linejoin="round" d="M9 2.36a1.6 1.6 0 0 1 2 0l1.27 1.08c.24.2.7.37 1.02.37h1.36c.84 0 1.54.7 1.54 1.54v1.36c0 .32.17.77.37 1.01l1.08 1.26a1.6 1.6 0 0 1 0 2.01l-1.08 1.27c-.2.24-.37.68-.37 1v1.36c0 .85-.7 1.55-1.54 1.55h-1.36c-.32 0-.77.17-1.01.37L11 17.62a1.6 1.6 0 0 1-2 0l-1.27-1.08c-.24-.2-.7-.37-1-.37h-1.4c-.85 0-1.55-.7-1.55-1.55v-1.36c0-.32-.16-.77-.36-1l-1.08-1.28a1.61 1.61 0 0 1 0-2l1.08-1.27c.2-.24.36-.69.36-1V5.36c0-.85.7-1.54 1.54-1.54h1.39c.32 0 .77-.17 1-.37L9 2.36Zm1 4.54v3.87"/><path stroke="#30F" stroke-linecap="round" stroke-linejoin="round" stroke-width="1.5" d="M10 13.2h0"/></svg>