<svg xmlns="http://www.w3.org/2000/svg" fill="none" viewBox="0 0 24 24">
  <path fill="#FF9500" d="M8 6.25a.75.75 0 0 0 0 1.5v-1.5Zm8 1.5a.75.75 0 0 0 0-1.5v1.5Zm-8 2.5a.75.75 0 0 0 0 1.5v-1.5Zm4 1.5a.75.75 0 0 0 0-1.5v1.5Zm-5 5h13v-1.5H7v1.5Zm10 4.5H7v1.5h10v-1.5Zm-10 0c-1.24 0-2.25-1-2.25-2.25h-1.5A3.75 3.75 0 0 0 7 22.75v-1.5Zm10 1.5A3.75 3.75 0 0 0 20.75 19h-1.5c0 1.24-1 2.25-2.25 2.25v1.5Zm-10-7.5A3.75 3.75 0 0 0 3.25 19h1.5c0-1.24 1-2.25 2.25-2.25v-1.5Zm0-12.5h10v-1.5H7v1.5ZM19.25 5v14h1.5V5h-1.5ZM4.75 19V5h-1.5v14h1.5ZM17 2.75c1.24 0 2.25 1 2.25 2.25h1.5A3.75 3.75 0 0 0 17 1.25v1.5ZM7 1.25A3.75 3.75 0 0 0 3.25 5h1.5c0-1.24 1-2.25 2.25-2.25v-1.5Zm1 6.5h8v-1.5H8v1.5Zm0 4h4v-1.5H8v1.5Z"/>
</svg>
