<svg xmlns="http://www.w3.org/2000/svg" fill="none" viewBox="0 0 24 24">
  <g stroke="currentColor" stroke-linecap="round" stroke-linejoin="round" stroke-width="1.5">
    <path d="M10 18.667h4c3.333 0 4.666-1.334 4.666-4.667v-4c0-3.333-1.333-4.667-4.666-4.667h-4c-3.334 0-4.667 1.334-4.667 4.667v4c0 3.333 1.333 4.667 4.667 4.667Z"/>
    <path d="M10.75 16.167h2.5c2.083 0 2.916-.834 2.916-2.917v-2.5c0-2.083-.833-2.917-2.916-2.917h-2.5c-2.084 0-2.917.834-2.917 2.917v2.5c0 2.083.833 2.917 2.917 2.917ZM8.675 5.333V3.667M12 5.333V3.667m3.333 1.666V3.667m3.334 5h1.667M18.667 12h1.667M11 14h2m5.667 1.333h1.667m-5.001 3.334v1.666m-3.325-1.666v1.666m-3.333-1.666v1.666M3.667 8.667h1.667M3.667 12h1.667m-1.667 3.333h1.667"/>
  </g>
  <circle cx="13.75" cy="10.75" r=".75" stroke="currentColor"/>
  <path stroke="currentColor" d="M11 10.75a.75.75 0 1 1-1.5 0 .75.75 0 0 1 1.5 0Z"/>
</svg>
