<svg xmlns="http://www.w3.org/2000/svg" fill="none" viewBox="0 0 24 25">
  <circle cx="12" cy="9.5" r="2.75" stroke="#000" stroke-opacity=".9" stroke-width="1.5"/>
  <path stroke="#000" stroke-linecap="round" stroke-opacity=".9" stroke-width="1.5" d="M8 14.5c.582-1.165 2.153-2 4-2s3.418.835 4 2"/>
  <path fill="#000" fill-opacity=".9" d="m17 17.5.45-.6a.75.75 0 0 0-.45-.15v.75Zm4 3-.45.6a.75.75 0 0 0 1.2-.6H21ZM2.25 6.5v7.999L3 14.5h.75v-8h-1.5Zm0 8c0 1.116.28 2.09.97 2.78s1.664.97 2.78.97v-1.5c-.884 0-1.41-.22-1.72-.53-.31-.31-.53-.836-.53-1.72h-1.5ZM6 18.25h11v-1.5H6v1.5Zm10.55-.15 4 3 .9-1.2-4-3-.9 1.2Zm5.2 2.4V6.769h-1.5V20.5h1.5Zm0-13.731c0-1.217-.25-2.26-.928-2.994C20.132 3.027 19.14 2.75 18 2.75v1.5c.918 0 1.425.223 1.72.542.308.334.53.925.53 1.977h1.5ZM18 2.75H6v1.5h12v-1.5ZM3.75 6.5c0-.884.22-1.41.53-1.72.31-.31.836-.53 1.72-.53v-1.5c-1.116 0-2.09.28-2.78.97s-.97 1.664-.97 2.78h1.5Z"/>
</svg>
