<svg width="24" height="24" viewBox="0 0 24 24" fill="none" xmlns="http://www.w3.org/2000/svg">
<path d="M19 12C19 15.866 15.866 19 12 19C8.13401 19 5 15.866 5 12C5 8.13401 8.13401 5 12 5C15.866 5 19 8.13401 19 12ZM6.4 12C6.4 15.0928 8.90721 17.6 12 17.6C15.0928 17.6 17.6 15.0928 17.6 12C17.6 8.90721 15.0928 6.4 12 6.4C8.90721 6.4 6.4 8.90721 6.4 12Z" fill="#3300FF" fill-opacity="0.1"/>
<path d="M12 5C13.3845 5 14.7378 5.41054 15.889 6.17971C17.0401 6.94888 17.9373 8.04213 18.4672 9.32122C18.997 10.6003 19.1356 12.0078 18.8655 13.3656C18.5954 14.7235 17.9287 15.9708 16.9497 16.9497C15.9708 17.9287 14.7235 18.5954 13.3656 18.8655C12.0078 19.1356 10.6003 18.997 9.32122 18.4672C8.04213 17.9373 6.94888 17.0401 6.17971 15.889C5.41054 14.7378 5 13.3845 5 12H6.4C6.4 13.1076 6.72843 14.1903 7.34377 15.1112C7.95911 16.0321 8.83371 16.7499 9.85697 17.1737C10.8802 17.5976 12.0062 17.7085 13.0925 17.4924C14.1788 17.2763 15.1766 16.743 15.9598 15.9598C16.743 15.1766 17.2763 14.1788 17.4924 13.0925C17.7085 12.0062 17.5976 10.8802 17.1737 9.85697C16.7499 8.83371 16.0321 7.95911 15.1112 7.34377C14.1903 6.72843 13.1076 6.4 12 6.4V5Z" fill="#8D96B5"/>
</svg>
