<svg xmlns="http://www.w3.org/2000/svg" fill="none" viewBox="0 0 24 24"><path stroke="current" stroke-width="1.5" d="M16 16c1.86 0 2.8 0 3.53-.3a4 4 0 0 0 2.17-2.17c.3-.73.3-1.67.3-3.53V9c0-2.8 0-4.21-.67-5.22a4 4 0 0 0-1.1-1.1C19.2 2 17.8 2 15 2h-1c-1.86 0-2.8 0-3.53.3A4 4 0 0 0 8.3 4.47C8 5.2 8 6.14 8 8m1 14c-2.8 0-4.21 0-5.22-.67a4 4 0 0 1-1.1-1.1C2 19.2 2 17.8 2 15c0-2.8 0-4.21.67-5.22a4 4 0 0 1 1.1-1.1C4.8 8 6.2 8 9 8c2.8 0 4.21 0 5.22.67a4 4 0 0 1 1.1 1.1C16 10.8 16 12.2 16 15c0 2.8 0 4.21-.67 5.22a4 4 0 0 1-1.1 1.1C13.2 22 11.8 22 9 22Z"/></svg>