<svg xmlns="http://www.w3.org/2000/svg" fill="none" viewBox="0 0 24 24">
  <path fill="current" fill-opacity=".7" d="M11.1 22.75H6.9c-3.91 0-5.65-1.74-5.65-5.65v-4.2c0-3.91 1.74-5.65 5.65-5.65h4.2c3.91 0 5.65 1.74 5.65 5.65v4.2c0 3.91-1.74 5.65-5.65 5.65Zm-4.2-14c-3.1 0-4.15 1.05-4.15 4.15v4.2c0 3.1 1.05 4.15 4.15 4.15h4.2c3.1 0 4.15-1.05 4.15-4.15v-4.2c0-3.1-1.05-4.15-4.15-4.15H6.9Z"/>
  <path fill="current" fill-opacity=".7" d="M17.1 16.75H16a.76.76 0 0 1-.75-.75v-3.1c0-3.1-1.05-4.15-4.15-4.15H8A.76.76 0 0 1 7.25 8V6.9c0-3.91 1.74-5.65 5.65-5.65h4.2c3.91 0 5.65 1.74 5.65 5.65v4.2c0 3.91-1.74 5.65-5.65 5.65Zm-.35-1.5h.35c3.1 0 4.15-1.05 4.15-4.15V6.9c0-3.1-1.05-4.15-4.15-4.15h-4.2c-3.1 0-4.15 1.05-4.15 4.15v.35h2.35c3.91 0 5.65 1.74 5.65 5.65v2.35Z"/>
</svg>
