<svg width="26" height="26" viewBox="0 0 26 26" fill="none" xmlns="http://www.w3.org/2000/svg">
<path fill-rule="evenodd" clip-rule="evenodd" d="M7 3.75C7 2.7835 7.7835 2 8.75 2H15.1287C15.4533 2 15.7708 2.07018 16.0607 2.20209C16.3036 2.31265 16.5273 2.46663 16.7197 2.65901L20.841 6.78033C21.0334 6.97271 21.1873 7.1964 21.2979 7.43935C21.4298 7.72921 21.5 8.04666 21.5 8.37132V18.75C21.5 19.7165 20.7165 20.5 19.75 20.5C19.3358 20.5 19 20.1642 19 19.75C19 19.3358 19.3358 19 19.75 19C19.8881 19 20 18.8881 20 18.75V8.5H19.8713C19.2746 8.5 18.7023 8.26295 18.2803 7.84099L15.659 5.21967C15.2371 4.79771 15 4.22542 15 3.62868V3.5H8.75C8.61193 3.5 8.5 3.61193 8.5 3.75H7ZM6.25 6.5C5.83579 6.5 5.5 6.83579 5.5 7.25V21.25C5.5 21.6642 5.83579 22 6.25 22H16.25C16.6642 22 17 21.6642 17 21.25V11.5H14.25C13.0074 11.5 12 10.4926 12 9.25V6.5H6.25ZM13.5 7.56066L15.9393 10H14.25C13.8358 10 13.5 9.66421 13.5 9.25V7.56066ZM4 7.25C4 6.00736 5.00736 5 6.25 5H13.0607L18.5 10.4393V21.25C18.5 22.4926 17.4926 23.5 16.25 23.5H6.25C5.00736 23.5 4 22.4926 4 21.25V7.25Z"/>
</svg>
