<svg xmlns="http://www.w3.org/2000/svg" fill="none" viewBox="0 0 20 20">
  <path stroke="#30F" stroke-linecap="round" stroke-linejoin="round" stroke-width="1.5" d="M7.999 16.667h4c3.333 0 4.666-1.334 4.666-4.667V8c0-3.333-1.333-4.667-4.666-4.667h-4C4.665 3.333 3.332 4.667 3.332 8v4c0 3.333 1.333 4.667 4.667 4.667Z"/>
  <path stroke="#30F" stroke-linecap="round" stroke-linejoin="round" stroke-width="1.5" d="M8.749 14.167h2.5c2.083 0 2.916-.834 2.916-2.917v-2.5c0-2.083-.833-2.917-2.916-2.917h-2.5c-2.084 0-2.917.834-2.917 2.917v2.5c0 2.083.833 2.917 2.917 2.917ZM6.676 3.333V1.667M10 3.333V1.667m3.332 1.666V1.667m3.336 5h1.667M16.668 10h1.667m-1.667 3.333h1.667m-5.003 3.334v1.666m-3.324-1.666v1.666m-3.332-1.666v1.666M1.668 6.667h1.667M1.668 10h1.667m-1.667 3.333h1.667"/>
</svg>
