<svg xmlns="http://www.w3.org/2000/svg" fill="none" viewBox="0 0 20 20">
  <path fill="current" fill-rule="evenodd" d="M6.68.92c.41 0 .75.33.75.75v.93L8 2.58h1.25v-.91a.75.75 0 1 1 1.5 0v.91H12c.2 0 .4 0 .58.02v-.93a.75.75 0 0 1 1.5 0V2.8c.8.2 1.5.55 2.03 1.09.54.54.89 1.22 1.09 2.03h1.13a.75.75 0 0 1 0 1.5h-.93l.02.58v1.25h.91a.75.75 0 0 1 0 1.5h-.91V12c0 .2 0 .4-.02.58h.93a.75.75 0 0 1 0 1.5H17.2c-.2.8-.55 1.5-1.09 2.03-.54.54-1.22.89-2.03 1.09v1.13a.75.75 0 0 1-1.5 0v-.93l-.58.02h-1.24v.91a.75.75 0 0 1-1.5 0v-.91H8c-.2 0-.39 0-.57-.02v.93a.75.75 0 0 1-1.5 0V17.2c-.81-.2-1.5-.54-2.04-1.09a4.22 4.22 0 0 1-1.09-2.03H1.67a.75.75 0 0 1 0-1.5h.93L2.58 12v-1.25h-.91a.75.75 0 0 1 0-1.5h.91V8c0-.2 0-.4.02-.58h-.93a.75.75 0 0 1 0-1.5H2.8c.2-.8.54-1.5 1.09-2.03A4.22 4.22 0 0 1 5.93 2.8V1.67c0-.42.33-.75.75-.75Zm-2.6 9.14a.76.76 0 0 0 0-.12V8c0-1.6.33-2.51.87-3.05S6.4 4.08 8 4.08h4c1.6 0 2.51.33 3.05.87s.87 1.46.87 3.05v4c0 1.6-.33 2.51-.87 3.05s-1.46.87-3.05.87H8c-1.6 0-2.51-.33-3.05-.87S4.08 13.6 4.08 12v-1.94Zm1.9-4.08c.68-.68 1.65-.9 2.77-.9h2.5c1.11 0 2.09.22 2.77.9.68.68.9 1.65.9 2.77v2.5c0 1.12-.22 2.1-.9 2.77-.68.68-1.66.9-2.77.9h-2.5c-1.12 0-2.1-.22-2.77-.9-.68-.68-.9-1.65-.9-2.77v-2.5c0-1.12.22-2.1.9-2.77Zm1.06 1.06c-.26.26-.46.74-.46 1.71v2.5c0 .97.2 1.45.46 1.7.26.27.74.47 1.7.47h2.5c.98 0 1.46-.2 1.72-.46s.46-.74.46-1.71v-2.5c0-.97-.2-1.45-.46-1.7-.26-.27-.74-.47-1.71-.47h-2.5c-.97 0-1.45.2-1.71.46Z" clip-rule="evenodd"/>
</svg>
