<svg width="24" height="24" viewBox="0 0 24 24" fill="none" xmlns="http://www.w3.org/2000/svg">
<rect width="24" height="24" rx="12" fill="#1F35FF"/>
<path d="M11.0485 21.8614C16.4948 21.8614 20.9099 17.2179 20.9099 11.8529C20.9099 6.48787 16.4948 2.13867 11.0485 2.13867C6.87488 2.13867 3.30681 4.86565 1.86719 8.55451V15.6993C3.30681 19.3073 6.87488 21.8614 11.0485 21.8614Z" fill="#FFCC00"/>
<path d="M1.42578 8.39289C1.42578 6.769 1.42578 5.95705 1.74682 5.33903C2.01736 4.81822 2.442 4.39358 2.9628 4.12304C3.58083 3.802 4.39278 3.802 6.01667 3.802H10.3794C12.0033 3.802 12.8153 3.802 13.4333 4.12304C13.9541 4.39358 14.3788 4.81822 14.6493 5.33903C14.9703 5.95705 14.9703 6.769 14.9703 8.39289V15.7402C14.9703 17.9054 14.9703 18.988 14.5423 19.812C14.1816 20.5064 13.6154 21.0726 12.921 21.4334C12.0969 21.8614 11.0143 21.8614 8.84915 21.8614H6.6535C-nan -nan -nan -nan -nan -nanC-nan -nan -nan -nan 6.6535 21.8614C6.6535 21.8614 4.51477 21.8614 2.73265 18.5347C1.76667 16.7314 1.48623 13.6419 1.4351 12.9652C1.43264 12.9327 1.43142 12.9164 1.4297 12.8837C1.42855 12.8617 1.42704 12.8218 1.42654 12.7999C1.42578 12.7671 1.42578 12.7433 1.42578 12.6958V8.39289Z" fill="black" fill-opacity="0.9"/>
<circle cx="8.43636" cy="8.43563" r="6.05941" fill="#F9FAFC"/>
<path d="M10.9314 17.8217C10.9314 19.9871 9.17603 21.8613 7.01064 21.8613C4.84524 21.8613 3.08984 20.1059 3.08984 17.9405C3.08984 15.7751 4.84524 13.9009 7.01064 13.9009C9.17603 13.9009 10.9314 15.6563 10.9314 17.8217Z" fill="#FFCC00"/>
<path d="M6.41602 16.1584C7.66634 17.0822 8.3476 17.068 9.50512 16.1584" stroke="black" stroke-opacity="0.9" stroke-width="0.427723"/>
<path d="M2.37695 10.4556C1.0998 11.9944 1.11949 12.8329 2.37695 14.2575" stroke="#FFCC00" stroke-width="0.475248"/>
<path d="M9.74219 16.1584C10.9925 17.0822 11.6738 17.068 12.8313 16.1584" stroke="#F9FAFC" stroke-width="0.427723"/>
<path d="M5.22852 9.62368V8.79199H8.43644V9.62368" stroke="#1F35FF" stroke-width="0.427723"/>
<path d="M14.0195 10.2178L13.3066 10.8118L14.0195 11.4059" stroke="#1F35FF" stroke-width="0.237624"/>
<path d="M8.55469 6.53467H9.98043M8.55469 7.24754H9.98043" stroke="#FFCC00" stroke-width="0.356436"/>
<path d="M5.82227 10.5742C6.65745 9.86921 7.1257 9.86908 7.96088 10.5742" stroke="black" stroke-opacity="0.9" stroke-width="0.285149"/>
<path d="M10.9316 10.5742C11.7668 9.86921 12.2351 9.86908 13.0703 10.5742" stroke="black" stroke-opacity="0.9" stroke-width="0.285149"/>
<path d="M7.18781 10.5744C7.18781 10.7384 7.05482 10.8714 6.89078 10.8714C6.72673 10.8714 6.59375 10.7384 6.59375 10.5744C6.59375 10.4103 6.72673 10.2773 6.89078 10.2773C7.05482 10.2773 7.18781 10.4103 7.18781 10.5744Z" fill="black" fill-opacity="0.9"/>
<path d="M14.0207 13.4026C14.0207 14.2429 13.3292 14.9702 12.4762 14.9702C11.6232 14.9702 10.9316 14.289 10.9316 13.4487C10.9316 12.6084 11.6232 11.8811 12.4762 11.8811C13.3292 11.8811 14.0207 12.5623 14.0207 13.4026Z" fill="#FFCC00"/>
<path d="M7.60352 13.5444C7.60352 14.0197 7.81144 14.2573 8.22728 14.2573C8.64312 14.2573 8.4352 14.2573 8.85104 14.2573C9.26688 14.2573 9.26688 14.7326 9.26688 14.7326" stroke="#1F35FF" stroke-width="0.427723"/>
<path d="M10.9297 13.5444C10.9297 14.0197 10.7218 14.2573 10.3059 14.2573C9.89008 14.2573 10.098 14.2573 9.68216 14.2573C9.26632 14.2573 9.26632 14.7326 9.26632 14.7326" stroke="#1F35FF" stroke-width="0.427723"/>
<path d="M10.8927 9.02972L13.9819 7.60399L13.9819 8.07923L10.8927 9.50499L10.8927 9.02972Z" fill="black" fill-opacity="0.9"/>
<path d="M7.18781 2.4357C7.18781 2.59975 7.05482 2.73273 6.89078 2.73273C6.72673 2.73273 6.59375 2.59975 6.59375 2.4357C6.59375 2.27166 6.72673 2.13867 6.89078 2.13867C7.05482 2.13867 7.18781 2.27166 7.18781 2.4357Z" fill="black" fill-opacity="0.9"/>
<path d="M8.07959 2.73284C7.96078 2.73284 7.80094 2.65515 7.73507 2.5027C7.6692 2.35025 7.72316 2.13878 7.96078 2.01996C8.67365 1.66353 9.12905 2.51399 9.03008 3.08928L8.79244 3.08927C8.79244 3.08927 8.91128 2.49521 8.31722 2.61402C8.25116 2.62723 8.19841 2.73284 8.07959 2.73284Z" fill="black" fill-opacity="0.9"/>
</svg>
