<svg xmlns="http://www.w3.org/2000/svg" fill="none" viewBox="0 0 24 24">
  <path fill="#8D96B5" fill-rule="evenodd" d="M10 5.92c-.05.07-.1.2-.18.68l-.12.76 1.4-.02c1.06 0 2.13.02 3.2.06l-.12-.8c-.08-.46-.13-.6-.2-.67-.02-.03-.15-.18-.81-.18h-2.34c-.67 0-.8.15-.82.17Zm5.84 1.55-.19-1.11v-.07a2.73 2.73 0 0 0-.53-1.35c-.44-.5-1.11-.69-1.95-.69h-2.34c-.83 0-1.5.17-1.95.68-.38.43-.47 1-.53 1.37v.06l-.18 1.07c-.81.04-1.62.1-2.43.19l-1.81.17a.75.75 0 1 0 .14 1.5l1.11-.11.55 8.47v.01c.03.34.05.71.12 1.06.08.36.2.75.47 1.1.56.73 1.5 1 2.82 1h5.7c1.32 0 2.27-.27 2.83-1 .26-.35.4-.74.46-1.1.07-.35.1-.72.12-1.06v-.01l.56-8.47 1.11.1a.75.75 0 0 0 .16-1.49 89.2 89.2 0 0 0-4.24-.32Zm1.47 1.6a88.28 88.28 0 0 0-6.22-.23c-1.47 0-2.95.07-4.41.2l.55 8.5a5 5 0 0 0 .1.89 1 1 0 0 0 .18.47c.13.17.46.43 1.63.43h5.7c1.17 0 1.51-.26 1.64-.43.07-.1.14-.24.18-.47.05-.25.07-.52.1-.88l.55-8.49Z" clip-rule="evenodd"/>
</svg>
