<svg width="24" height="24" viewBox="0 0 24 24" fill="none" xmlns="http://www.w3.org/2000/svg">
<path d="M17 18L17.45 17.4C17.3202 17.3026 17.1623 17.25 17 17.25V18ZM21 21L20.55 21.6C20.7773 21.7704 21.0813 21.7979 21.3354 21.6708C21.5895 21.5438 21.75 21.2841 21.75 21H21ZM15.5 3.25C15.0858 3.25 14.75 3.58579 14.75 4C14.75 4.41421 15.0858 4.75 15.5 4.75V3.25ZM8.5 4.75C8.91421 4.75 9.25 4.41421 9.25 4C9.25 3.58579 8.91421 3.25 8.5 3.25V4.75ZM12.7504 1C12.7504 0.585786 12.4146 0.25 12.0004 0.25C11.5862 0.25 11.2504 0.585786 11.2504 1H12.7504ZM11.2504 12.88C11.2504 13.2942 11.5862 13.63 12.0004 13.63C12.4146 13.63 12.7504 13.2942 12.7504 12.88H11.2504ZM15.8807 11.1803C16.1736 10.8874 16.1736 10.4126 15.8807 10.1197C15.5878 9.82678 15.113 9.82678 14.8201 10.1197L15.8807 11.1803ZM12.0004 14L11.4701 14.5303C11.763 14.8232 12.2378 14.8232 12.5307 14.5303L12.0004 14ZM9.18072 10.1197C8.88783 9.82678 8.41295 9.82678 8.12006 10.1197C7.82717 10.4126 7.82717 10.8874 8.12006 11.1803L9.18072 10.1197ZM2.25 7V15H3.75V7H2.25ZM2.25 15C2.25 16.1156 2.52941 17.0901 3.21967 17.7803C3.90993 18.4706 4.88439 18.75 6 18.75V17.25C5.11561 17.25 4.59007 17.0294 4.28033 16.7197C3.97059 16.4099 3.75 15.8844 3.75 15H2.25ZM6 18.75H17V17.25H6V18.75ZM16.55 18.6L20.55 21.6L21.45 20.4L17.45 17.4L16.55 18.6ZM21.75 21V7.2688H20.25V21H21.75ZM21.75 7.2688C21.75 6.05177 21.5005 5.00887 20.8224 4.27472C20.132 3.52729 19.1388 3.25 18 3.25V4.75C18.9183 4.75 19.4251 4.97271 19.7205 5.29248C20.0281 5.62553 20.25 6.21702 20.25 7.2688H21.75ZM3.75 7C3.75 6.11561 3.97059 5.59007 4.28033 5.28033C4.59007 4.97059 5.11561 4.75 6 4.75V3.25C4.88439 3.25 3.90993 3.52941 3.21967 4.21967C2.52941 4.90993 2.25 5.88439 2.25 7H3.75ZM18 3.25H15.5V4.75H18V3.25ZM11.2504 1V12.88H12.7504V1H11.2504ZM14.8201 10.1197L11.4701 13.4697L12.5307 14.5303L15.8807 11.1803L14.8201 10.1197ZM12.5307 13.4697L9.18072 10.1197L8.12006 11.1803L11.4701 14.5303L12.5307 13.4697ZM8.5 3.25H6V4.75H8.5V3.25Z" fill="#8D96B5"/>
</svg>
