<svg width="16" height="10" viewBox="0 0 16 10" fill="none" xmlns="http://www.w3.org/2000/svg">
<path d="M15.25 8C12.75 3.5 9.25 3 6.25 3V7C8.25 6.5 10.75 6.5 15.25 8Z" fill="current"/>
<path d="M6.25 0.5L0.75 5L6.25 9.5V7V3V0.5Z" fill="current"/>
<path d="M6.25 0.5H6.75C6.75 0.306805 6.6387 0.130897 6.46412 0.0481652C6.28953 -0.0345667 6.08291 -0.00931692 5.93338 0.113021L6.25 0.5ZM0.75 5L0.433381 4.61302C0.317313 4.70799 0.25 4.85003 0.25 5C0.25 5.14997 0.317313 5.29201 0.433381 5.38698L0.75 5ZM6.25 9.5L5.93338 9.88698C6.08291 10.0093 6.28953 10.0346 6.46412 9.95183C6.6387 9.8691 6.75 9.69319 6.75 9.5H6.25ZM15.25 8L15.0919 8.47434C15.2875 8.53955 15.5031 8.47798 15.6348 8.31932C15.7664 8.16065 15.7872 7.93742 15.6871 7.75718L15.25 8ZM5.93338 0.113021L0.433381 4.61302L1.06662 5.38698L6.56662 0.886979L5.93338 0.113021ZM0.433381 5.38698L5.93338 9.88698L6.56662 9.11302L1.06662 4.61302L0.433381 5.38698ZM6.75 3V0.5H5.75V3H6.75ZM6.25 3.5C7.72719 3.5 9.26906 3.62465 10.7361 4.27016C12.1905 4.91009 13.6114 6.08011 14.8129 8.24282L15.6871 7.75718C14.3886 5.41989 12.8095 4.08991 11.1389 3.35484C9.48094 2.62535 7.77281 2.5 6.25 2.5V3.5ZM6.75 9.5V7H5.75V9.5H6.75ZM6.75 7V3H5.75V7H6.75ZM15.4081 7.52566C10.8524 6.00708 8.25084 5.9844 6.12873 6.51493L6.37127 7.48507C8.24916 7.0156 10.6476 6.99292 15.0919 8.47434L15.4081 7.52566Z" fill="current/>
</svg>
