<svg width="16" height="10" viewBox="0 0 16 10" fill="none" xmlns="http://www.w3.org/2000/svg">
<path d="M0.75 8C3.25 3.5 6.75 3 9.75 3V7C7.75 6.5 5.25 6.5 0.75 8Z" fill="current"/>
<path d="M9.75 0.5L15.25 5L9.75 9.5V7V3V0.5Z" fill="current"/>
<path d="M9.75 0.5H9.25C9.25 0.306805 9.3613 0.130897 9.53588 0.0481652C9.71047 -0.0345667 9.91709 -0.00931692 10.0666 0.113021L9.75 0.5ZM15.25 5L15.5666 4.61302C15.6827 4.70799 15.75 4.85003 15.75 5C15.75 5.14997 15.6827 5.29201 15.5666 5.38698L15.25 5ZM9.75 9.5L10.0666 9.88698C9.91709 10.0093 9.71047 10.0346 9.53588 9.95183C9.3613 9.8691 9.25 9.69319 9.25 9.5H9.75ZM0.75 8L0.908113 8.47434C0.712503 8.53955 0.496927 8.47798 0.365246 8.31932C0.233564 8.16065 0.212786 7.93742 0.312922 7.75718L0.75 8ZM10.0666 0.113021L15.5666 4.61302L14.9334 5.38698L9.43338 0.886979L10.0666 0.113021ZM15.5666 5.38698L10.0666 9.88698L9.43338 9.11302L14.9334 4.61302L15.5666 5.38698ZM9.25 3V0.5H10.25V3H9.25ZM9.75 3.5C8.27281 3.5 6.73094 3.62465 5.26387 4.27016C3.80948 4.91009 2.38858 6.08011 1.18708 8.24282L0.312922 7.75718C1.61142 5.41989 3.19052 4.08991 4.86113 3.35484C6.51906 2.62535 8.22719 2.5 9.75 2.5V3.5ZM9.25 9.5V7H10.25V9.5H9.25ZM9.25 7V3H10.25V7H9.25ZM0.591887 7.52566C5.14762 6.00708 7.74916 5.9844 9.87127 6.51493L9.62873 7.48507C7.75084 7.0156 5.35238 6.99292 0.908113 8.47434L0.591887 7.52566Z" fill="current"/>
</svg>
