<svg xmlns="http://www.w3.org/2000/svg" fill="none" viewBox="0 0 18 22"><path fill="#FF9500" fill-rule="evenodd" d="M.25 4A3.75 3.75 0 0 1 4 .25h10A3.75 3.75 0 0 1 17.75 4v14A3.75 3.75 0 0 1 14 21.75H4A3.75 3.75 0 0 1 .25 18V4Zm1.5 14c0 1.24 1 2.25 2.25 2.25h10c1.24 0 2.25-1 2.25-2.25v-2.25H4c-1.24 0-2.25 1-2.25 2.25Zm14.5-3.75H4c-.84 0-1.62.28-2.25.75V4c0-1.24 1-2.25 2.25-2.25h10c1.24 0 2.25 1 2.25 2.25v10.25ZM4.25 6c0-.41.34-.75.75-.75h8a.75.75 0 0 1 0 1.5H5A.75.75 0 0 1 4.25 6Zm0 4c0-.41.34-.75.75-.75h4a.75.75 0 0 1 0 1.5H5a.75.75 0 0 1-.75-.75Z" clip-rule="evenodd"/></svg>