<svg width="24" height="24" viewBox="0 0 24 24" fill="none" xmlns="http://www.w3.org/2000/svg">
<path d="M6 15.8489V8.11083H7.85106V9.4005H7.93544C8.0831 8.95382 8.33624 8.60957 8.69485 8.36776C9.05698 8.12259 9.47008 8 9.93417 8C10.0396 8 10.1574 8.00504 10.2875 8.01511C10.4211 8.02183 10.5319 8.03359 10.6197 8.05038V9.72796C10.5389 9.70109 10.4106 9.67758 10.2348 9.65743C10.0625 9.63392 9.89549 9.62217 9.73377 9.62217C9.3857 9.62217 9.0728 9.69437 8.79505 9.83879C8.52082 9.97985 8.3046 10.1763 8.14639 10.4282C7.98818 10.6801 7.90907 10.9706 7.90907 11.2997V15.8489H6Z" fill="#FF9500"/>
<path d="M14.3981 16C13.5859 16 12.8845 15.8388 12.2939 15.5164C11.7067 15.1906 11.255 14.7305 10.9385 14.136C10.6221 13.5382 10.4639 12.8346 10.4639 12.0252C10.4639 11.2292 10.6221 10.5306 10.9385 9.92947C11.2585 9.32494 11.705 8.85474 12.2781 8.51889C12.8511 8.17968 13.5244 8.01008 14.2979 8.01008C14.7971 8.01008 15.2682 8.08732 15.7112 8.24181C16.1577 8.39295 16.5515 8.62804 16.8925 8.9471C17.2371 9.26616 17.5078 9.67254 17.7047 10.1662C17.9016 10.6566 18 11.241 18 11.9194V12.4786H11.3604V11.2494H16.17C16.1665 10.9001 16.0874 10.5894 15.9327 10.3174C15.778 10.042 15.5618 9.82536 15.2841 9.66751C15.0098 9.50966 14.6899 9.43073 14.3242 9.43073C13.934 9.43073 13.5912 9.52141 13.2959 9.70277C13.0005 9.88077 12.7703 10.1159 12.605 10.4081C12.4433 10.6969 12.3607 11.0143 12.3572 11.3602V12.4332C12.3572 12.8833 12.4433 13.2695 12.6156 13.5919C12.7878 13.911 13.0287 14.1562 13.3381 14.3275C13.6475 14.4954 14.0096 14.5793 14.4244 14.5793C14.7022 14.5793 14.9536 14.5424 15.1786 14.4685C15.4036 14.3913 15.5987 14.2788 15.764 14.131C15.9292 13.9832 16.054 13.8002 16.1384 13.5819L17.9209 13.7733C17.8084 14.2233 17.5939 14.6163 17.2775 14.9521C16.9646 15.2846 16.5638 15.5432 16.0751 15.728C15.5864 15.9093 15.0274 16 14.3981 16Z" fill="#FF9500"/>
<path d="M5 19.9682C5 19.9682 4.47322 20.0398 4.14286 19.9682C2.15382 19.5369 2.85714 13.1383 2.85714 13.1383L2 12L2.85714 10.8617C2.85714 10.8617 2.15382 4.4631 4.14286 4.03184C4.47322 3.96021 5 4.03184 5 4.03184" stroke="#FF9500" stroke-width="1.5" stroke-linecap="round" stroke-linejoin="round"/>
<path d="M19 19.9682C19 19.9682 19.5268 20.0398 19.8571 19.9682C21.8462 19.5369 21.1429 13.1383 21.1429 13.1383L22 12L21.1429 10.8617C21.1429 10.8617 21.8462 4.4631 19.8571 4.03184C19.5268 3.96021 19 4.03184 19 4.03184" stroke="#FF9500" stroke-width="1.5" stroke-linecap="round" stroke-linejoin="round"/>
</svg>
