<svg xmlns="http://www.w3.org/2000/svg" fill="none" viewBox="0 0 24 24">
  <path fill="#8D96B5" fill-rule="evenodd" d="M12 1.25c.41 0 .75.34.75.75v12.19l2.07-2.07a.75.75 0 1 1 1.06 1.06l-3.35 3.35c-.3.3-.77.3-1.06 0l-3.35-3.35a.75.75 0 1 1 1.06-1.06l2.07 2.07V2c0-.41.34-.75.75-.75Zm3.7 7.59c.03-.42.4-.72.8-.69 1.92.17 3.41.76 4.4 1.98.98 1.2 1.36 2.89 1.36 4.98v.13c0 2.3-.46 4.12-1.67 5.34-1.22 1.21-3.03 1.67-5.34 1.67H8.74c-2.3 0-4.12-.46-5.34-1.67-1.21-1.22-1.67-3.03-1.67-5.34v-.13c0-2.08.37-3.75 1.33-4.95.98-1.23 2.46-1.82 4.34-2a.75.75 0 1 1 .14 1.5c-1.66.15-2.68.65-3.3 1.43-.66.82-1.01 2.08-1.01 4.02v.13c0 2.16.44 3.48 1.23 4.28.8.8 2.12 1.23 4.28 1.23h6.51c2.16 0 3.48-.44 4.28-1.23.8-.8 1.23-2.12 1.23-4.28v-.13c0-1.96-.36-3.22-1.02-4.03-.64-.8-1.68-1.29-3.36-1.43a.75.75 0 0 1-.69-.81Z" clip-rule="evenodd"/>
</svg>
