<svg xmlns="http://www.w3.org/2000/svg" fill="none" viewBox="0 0 24 24">
  <rect width="24" height="24" fill="#1F35FF" rx="12"/>
  <path fill="#FC0" d="M11.05 21.86c5.45 0 9.86-4.64 9.86-10a9.79 9.79 0 0 0-9.86-9.72 9.97 9.97 0 0 0-9.18 6.41v7.15c1.44 3.6 5 6.16 9.18 6.16Z"/>
  <path fill="#2F2F3D" d="M1.43 8.4c0-1.63 0-2.44.32-3.06.27-.52.7-.95 1.21-1.22.62-.32 1.43-.32 3.06-.32h4.36c1.62 0 2.44 0 3.05.32.52.27.95.7 1.22 1.22.32.62.32 1.43.32 3.05v7.35c0 2.17 0 3.25-.43 4.07a3.8 3.8 0 0 1-1.62 1.62c-.82.43-1.9.43-4.07.43h-2.2"/>
  <circle cx="8.44" cy="8.44" r="6.06" fill="#F9FAFC"/>
  <path fill="#FC0" d="M10.93 17.82a4.02 4.02 0 0 1-3.92 4.04 3.92 3.92 0 0 1-3.92-3.92A4.02 4.02 0 0 1 7 13.9a3.92 3.92 0 0 1 3.92 3.92Z"/>
  <path stroke="#000" stroke-width=".43" d="M6.42 16.16c1.25.92 1.93.9 3.08 0"/>
  <path stroke="#FC0" stroke-width=".48" d="M2.38 10.46c-1.28 1.53-1.26 2.37 0 3.8"/>
  <path stroke="#F9FAFC" stroke-width=".43" d="M9.74 16.16c1.25.92 1.93.9 3.1 0"/>
  <path stroke="#1F35FF" stroke-width=".43" d="M5.23 9.62V8.8h3.2v.83"/>
  <path stroke="#1F35FF" stroke-width=".24" d="m14.02 10.22-.71.6.71.59"/>
  <path stroke="#FC0" stroke-width=".36" d="M8.55 6.53h1.43m-1.43.72h1.43"/>
  <path stroke="#2F2F3D" stroke-width=".29" d="M5.82 10.57c.84-.7 1.3-.7 2.14 0m2.97 0c.84-.7 1.3-.7 2.14 0"/>
  <path fill="#2F2F3D" d="M7.19 10.57a.3.3 0 1 1-.6 0 .3.3 0 0 1 .6 0Z"/>
  <path fill="#FC0" d="M14.02 13.4c0 .84-.7 1.57-1.54 1.57-.86 0-1.55-.68-1.55-1.52s.7-1.57 1.54-1.57c.86 0 1.55.68 1.55 1.52Z"/>
  <path stroke="#1F35FF" stroke-width=".43" d="M7.6 13.54c0 .48.21.72.63.72h.62c.42 0 .42.47.42.47m1.66-1.19c0 .48-.2.72-.62.72h-.63c-.41 0-.41.47-.41.47"/>
  <path fill="#2F2F3D" d="m10.9 9.03 3.08-1.43v.48L10.9 9.5v-.47ZM7.19 2.44a.3.3 0 1 1-.6 0 .3.3 0 0 1 .6 0Zm.89.29a.4.4 0 0 1-.35-.23c-.06-.15 0-.36.23-.48.71-.36 1.17.5 1.07 1.07h-.24s.12-.6-.47-.48c-.07.02-.12.12-.24.12Z"/>
</svg>
