<svg width="208" height="215" viewBox="0 0 208 215" fill="none" xmlns="http://www.w3.org/2000/svg">
<path d="M154.454 49.627C139.035 47.1623 121.476 45.8471 103.19 45.8471C86.4541 45.8471 70.3306 46.9469 55.9004 49.0207C55.9038 48.7988 55.907 48.5768 55.9169 48.3549C56.2994 35.4713 61.6981 23.2487 70.9589 14.2994C80.2198 5.35007 92.6082 0.384094 105.476 0.462836C118.344 0.541578 130.671 5.65879 139.822 14.7208C148.973 23.7827 154.222 36.0705 154.448 48.9578C154.451 49.1831 154.454 49.405 154.454 49.627Z" fill="#3300FF"/>
<g opacity="0.1">
<path d="M111.641 0.444353C104.797 -0.481591 97.8348 0.0432074 91.2062 1.98473C84.5776 3.92626 78.4303 7.24118 73.1626 11.7147C67.8949 16.1882 63.6245 21.7204 60.628 27.9528C57.6315 34.1852 55.9759 40.9787 55.7684 47.893C55.7584 48.1149 55.7552 48.3369 55.752 48.5589C60.039 47.9427 64.4785 47.4148 69.0361 46.9739C69.5936 35.455 74.1596 24.495 81.9419 15.9958C89.7241 7.49656 100.232 1.99451 111.641 0.444353Z" fill="white"/>
</g>
<path d="M176.013 53.5427C168.916 51.6155 161.716 50.0848 154.449 48.9578C142.538 47.109 130.529 45.9531 118.484 45.496C113.467 45.2906 108.357 45.1846 103.191 45.1846C99.0964 45.1846 95.0349 45.2508 91.0296 45.3833C79.2804 45.731 67.5591 46.723 55.9182 48.3549C47.301 49.5434 38.7675 51.2761 30.3685 53.5427C10.7854 58.9658 0 66.234 0 74.0058C0 81.7776 10.7854 89.0459 30.3685 94.4689C44.1406 98.2853 61.1208 100.886 79.6225 102.078C87.2592 102.575 95.1541 102.827 103.191 102.827C111.254 102.827 119.176 102.572 126.836 102.075C143.674 100.985 159.251 98.7292 172.289 95.4495C172.359 95.4296 172.425 95.4131 172.494 95.3965C173.374 95.1779 174.241 94.9493 175.097 94.7207C175.405 94.6346 175.709 94.5518 176.013 94.4689C176.031 94.4619 176.048 94.4564 176.066 94.4524C176.357 94.3729 176.645 94.29 176.933 94.2105C177.508 94.0449 178.077 93.8826 178.636 93.7136C178.663 93.707 178.686 93.7004 178.709 93.6937C179.195 93.548 179.671 93.4022 180.144 93.2565C180.531 93.1339 180.915 93.0146 181.295 92.892C181.573 92.8026 181.848 92.7132 182.119 92.6237C182.317 92.5575 182.512 92.4945 182.704 92.4283C182.966 92.3421 183.227 92.2527 183.485 92.1632C183.594 92.1268 183.703 92.0903 183.809 92.0506C184.057 91.9678 184.298 91.8816 184.54 91.7955C184.801 91.7028 185.062 91.6067 185.32 91.5139C185.535 91.4377 185.75 91.3582 185.962 91.2787C186.141 91.2092 186.316 91.1429 186.495 91.0766C186.981 90.8944 187.457 90.7056 187.927 90.5201C188.162 90.424 188.396 90.3313 188.628 90.2352C188.856 90.1424 189.088 90.0464 189.312 89.9503C189.683 89.7946 190.047 89.6389 190.404 89.4832C190.576 89.4037 190.751 89.3275 190.92 89.2546C191.049 89.195 191.175 89.1387 191.304 89.079C191.396 89.0393 191.489 88.9962 191.578 88.9532C191.912 88.8008 192.243 88.6451 192.567 88.4894C193.811 87.8931 194.971 87.2835 196.05 86.6607C202.813 82.7814 206.382 78.4781 206.382 74.0059C206.382 66.234 195.597 58.9658 176.013 53.5427ZM175.835 93.8329C162.046 97.6525 145.02 100.253 126.468 101.436C118.924 101.916 111.126 102.165 103.191 102.165C95.2829 102.165 87.5105 101.919 79.9896 101.439C61.4085 100.26 44.3555 97.6591 30.5471 93.8329C11.2749 88.4927 0.661481 81.453 0.661481 74.0058C0.662558 73.3478 0.744788 72.6924 0.906306 72.0546C2.59295 65.3363 12.9683 59.0486 30.5471 54.1788C38.8826 51.9298 47.3508 50.2071 55.9017 49.0208C67.6127 47.3797 79.4048 46.3843 91.2247 46.0393C95.1673 45.9101 99.1561 45.846 103.191 45.8471C108.288 45.8471 113.328 45.9498 118.283 46.1486C130.398 46.6017 142.476 47.7631 154.456 49.627C161.66 50.749 168.798 52.2686 175.835 54.1788C193.41 59.0486 203.782 65.3329 205.472 72.048C205.637 72.6876 205.72 73.3454 205.72 74.0058C205.72 81.453 195.107 88.4927 175.835 93.8329Z" fill="#3F3D56"/>
<path d="M206.195 74.3078C206.195 78.7337 202.554 82.921 196.051 86.6612C194.97 87.284 193.806 87.8935 192.568 88.4898C192.244 88.6455 191.914 88.8012 191.58 88.9536C191.49 88.9967 191.398 89.0398 191.305 89.0795C191.176 89.1391 191.05 89.1955 190.921 89.2551C190.753 89.328 190.577 89.4042 190.405 89.4837C190.048 89.6394 189.684 89.7951 189.314 89.9508C189.089 90.0468 188.858 90.1429 188.629 90.2357C188.398 90.3317 188.163 90.4245 187.928 90.5206C187.459 90.7061 186.982 90.8949 186.496 91.0771C186.318 91.1434 186.142 91.2096 185.964 91.2792C185.752 91.3587 185.537 91.4382 185.322 91.5144C185.064 91.6072 184.803 91.7032 184.541 91.796C184.3 91.8821 184.059 91.9682 183.811 92.0511C183.705 92.0908 183.596 92.1273 183.486 92.1637C183.228 92.2531 182.967 92.3426 182.706 92.4287C182.514 92.495 182.319 92.5579 182.12 92.6242C181.849 92.7136 181.575 92.8031 181.297 92.8925C180.917 93.0151 180.533 93.1344 180.146 93.2569C179.673 93.4027 179.197 93.5485 178.711 93.6942C178.687 93.7008 178.664 93.7075 178.638 93.7141C178.079 93.883 177.51 94.0454 176.934 94.211C176.647 94.2905 176.359 94.3733 176.068 94.4528C176.05 94.4568 176.032 94.4624 176.015 94.4694C175.711 94.5522 175.406 94.635 175.099 94.7212C174.246 94.9464 173.376 95.175 172.496 95.397C172.426 95.4135 172.36 95.4301 172.291 95.45C159.607 98.6236 144.046 100.936 126.824 102.052C119.28 102.539 111.415 102.798 103.335 102.798C95.1821 102.798 87.2508 102.536 79.6472 102.039C34.2563 99.0742 0.474609 87.7842 0.474609 74.3078C0.478183 73.4878 0.602972 72.6728 0.844916 71.8894C0.86478 71.9458 0.884641 71.9988 0.907899 72.0551C5.62741 84.4714 39.1216 94.5058 82.5809 96.954C89.2387 97.3316 96.1346 97.5271 103.193 97.5271C110.28 97.5271 117.203 97.3283 123.887 96.9507C167.31 94.4926 200.771 84.4548 205.474 72.0484C205.553 71.8497 205.623 71.6509 205.682 71.4521C206.018 72.3669 206.191 73.3333 206.195 74.3078Z" fill="#3F3D56"/>
<path d="M30.3194 70.7419C24.815 70.7419 18.9648 69.5557 18.9648 67.3573C18.9648 65.1588 24.815 63.9727 30.3194 63.9727C35.8238 63.9727 41.6739 65.1588 41.6739 67.3573C41.6739 69.5557 35.8238 70.7419 30.3194 70.7419ZM30.3194 64.6352C24.0178 64.6352 19.6263 66.0698 19.6263 67.3573C19.6263 68.6447 24.0178 70.0793 30.3194 70.0793C36.621 70.0793 41.0124 68.6447 41.0124 67.3573C41.0124 66.0698 36.621 64.6352 30.3194 64.6352Z" fill="#3F3D56"/>
<path d="M53.8018 86.3112C48.2974 86.3112 42.4473 85.125 42.4473 82.9266C42.4473 80.7282 48.2974 79.542 53.8018 79.542C59.3062 79.542 65.1564 80.7282 65.1564 82.9266C65.1564 85.125 59.3062 86.3112 53.8018 86.3112ZM53.8018 80.2045C47.5002 80.2045 43.1087 81.6392 43.1087 82.9266C43.1087 84.214 47.5002 85.6487 53.8018 85.6487C60.1033 85.6487 64.4949 84.214 64.4949 82.9266C64.4949 81.6392 60.1034 80.2045 53.8018 80.2045Z" fill="#3F3D56"/>
<path d="M175.845 70.7419C170.34 70.7419 164.49 69.5557 164.49 67.3573C164.49 65.1588 170.34 63.9727 175.845 63.9727C181.349 63.9727 187.199 65.1588 187.199 67.3573C187.199 69.5557 181.349 70.7419 175.845 70.7419ZM175.845 64.6352C169.543 64.6352 165.152 66.0698 165.152 67.3573C165.152 68.6447 169.543 70.0793 175.845 70.0793C182.146 70.0793 186.538 68.6447 186.538 67.3573C186.538 66.0698 182.146 64.6352 175.845 64.6352Z" fill="#3F3D56"/>
<path d="M152.362 86.3112C146.858 86.3112 141.008 85.125 141.008 82.9266C141.008 80.7282 146.858 79.542 152.362 79.542C157.867 79.542 163.717 80.7282 163.717 82.9266C163.717 85.125 157.867 86.3112 152.362 86.3112ZM152.362 80.2045C146.061 80.2045 141.669 81.6392 141.669 82.9266C141.669 84.214 146.061 85.6487 152.362 85.6487C158.664 85.6487 163.055 84.214 163.055 82.9266C163.055 81.6392 158.664 80.2045 152.362 80.2045Z" fill="#3F3D56"/>
<path d="M103.081 93.5993C97.5767 93.5993 91.7266 92.4131 91.7266 90.2147C91.7266 88.0162 97.5767 86.8301 103.081 86.8301C108.586 86.8301 114.436 88.0162 114.436 90.2147C114.436 92.4131 108.586 93.5993 103.081 93.5993ZM103.081 87.4926C96.7795 87.4926 92.388 88.9273 92.388 90.2147C92.388 91.5021 96.7795 92.9367 103.081 92.9367C109.383 92.9367 113.774 91.5021 113.774 90.2147C113.774 88.9273 109.383 87.4926 103.081 87.4926Z" fill="#3F3D56"/>
<path d="M87.9759 164.113C87.8005 164.113 87.6323 164.043 87.5082 163.919C87.3842 163.795 87.3145 163.626 87.3145 163.451V124.36C87.3145 124.184 87.3841 124.016 87.5082 123.891C87.6322 123.767 87.8005 123.697 87.9759 123.697C88.1514 123.697 88.3196 123.767 88.4437 123.891C88.5677 124.016 88.6374 124.184 88.6374 124.36V163.451C88.6374 163.626 88.5677 163.795 88.4437 163.919C88.3196 164.043 88.1514 164.113 87.9759 164.113Z" fill="#CCCCCC"/>
<path d="M78.056 199.229C77.8806 199.229 77.7123 199.159 77.5883 199.035C77.4642 198.911 77.3945 198.742 77.3945 198.567V170.077C77.3945 169.901 77.4642 169.732 77.5883 169.608C77.7123 169.484 77.8806 169.414 78.056 169.414C78.2314 169.414 78.3997 169.484 78.5237 169.608C78.6478 169.732 78.7175 169.901 78.7175 170.077V198.567C78.7175 198.742 78.6478 198.911 78.5237 199.035C78.3997 199.159 78.2314 199.229 78.056 199.229Z" fill="#CCCCCC"/>
<path d="M103.521 175.708C103.345 175.708 103.177 175.638 103.053 175.514C102.929 175.39 102.859 175.221 102.859 175.045V135.955C102.859 135.779 102.929 135.61 103.053 135.486C103.177 135.362 103.345 135.292 103.521 135.292C103.696 135.292 103.865 135.362 103.989 135.486C104.113 135.61 104.182 135.779 104.182 135.955V175.045C104.182 175.221 104.113 175.39 103.989 175.514C103.865 175.638 103.696 175.708 103.521 175.708Z" fill="#CCCCCC"/>
<path d="M93.931 203.867C93.7556 203.867 93.5873 203.797 93.4633 203.673C93.3392 203.549 93.2695 203.38 93.2695 203.205V187.303C93.2695 187.127 93.3392 186.959 93.4633 186.835C93.5873 186.71 93.7556 186.641 93.931 186.641C94.1064 186.641 94.2747 186.71 94.3987 186.835C94.5228 186.959 94.5925 187.127 94.5925 187.303V203.205C94.5925 203.38 94.5228 203.549 94.3987 203.673C94.2747 203.797 94.1064 203.867 93.931 203.867Z" fill="#CCCCCC"/>
<path d="M107.49 122.372C107.314 122.372 107.146 122.302 107.022 122.178C106.898 122.054 106.828 121.885 106.828 121.709V105.808C106.828 105.632 106.898 105.464 107.022 105.34C107.146 105.215 107.314 105.146 107.49 105.146C107.665 105.146 107.833 105.215 107.957 105.34C108.081 105.464 108.151 105.632 108.151 105.808V121.709C108.151 121.885 108.081 122.054 107.957 122.178C107.833 122.302 107.665 122.372 107.49 122.372Z" fill="#CCCCCC"/>
<path d="M74.4154 129.329C74.24 129.329 74.0717 129.259 73.9477 129.135C73.8236 129.011 73.7539 128.842 73.7539 128.666V112.765C73.7539 112.589 73.8236 112.421 73.9476 112.297C74.0717 112.172 74.24 112.103 74.4154 112.103C74.5908 112.103 74.7591 112.172 74.8831 112.297C75.0072 112.421 75.0769 112.589 75.0769 112.765V128.666C75.0769 128.842 75.0072 129.011 74.8831 129.135C74.7591 129.259 74.5908 129.329 74.4154 129.329Z" fill="#CCCCCC"/>
<path d="M131.966 130.986C131.791 130.986 131.622 130.916 131.498 130.792C131.374 130.668 131.305 130.499 131.305 130.324V114.422C131.305 114.247 131.374 114.078 131.498 113.954C131.622 113.83 131.791 113.76 131.966 113.76C132.142 113.76 132.31 113.83 132.434 113.954C132.558 114.078 132.628 114.247 132.628 114.422V130.324C132.628 130.499 132.558 130.668 132.434 130.792C132.31 130.916 132.142 130.986 131.966 130.986Z" fill="#CCCCCC"/>
<path d="M130.644 180.678C130.468 180.678 130.3 180.608 130.176 180.484C130.052 180.36 129.982 180.191 129.982 180.015V160.801C129.982 160.626 130.052 160.457 130.176 160.333C130.3 160.208 130.468 160.139 130.644 160.139C130.819 160.139 130.988 160.208 131.112 160.333C131.236 160.457 131.305 160.626 131.305 160.801V180.015C131.305 180.191 131.236 180.36 131.112 180.484C130.988 180.608 130.819 180.678 130.644 180.678Z" fill="#CCCCCC"/>
<path d="M117.413 197.572C117.238 197.572 117.07 197.502 116.946 197.378C116.822 197.254 116.752 197.085 116.752 196.909V168.419C116.752 168.244 116.822 168.075 116.946 167.951C117.07 167.827 117.238 167.757 117.413 167.757C117.589 167.757 117.757 167.827 117.881 167.951C118.005 168.075 118.075 168.244 118.075 168.419V196.909C118.075 197.085 118.005 197.254 117.881 197.378C117.757 197.502 117.589 197.572 117.413 197.572Z" fill="#CCCCCC"/>
<path d="M120.058 148.874C119.883 148.874 119.714 148.804 119.59 148.68C119.466 148.556 119.396 148.387 119.396 148.211V109.121C119.396 108.945 119.466 108.776 119.59 108.652C119.714 108.528 119.883 108.458 120.058 108.458C120.233 108.458 120.402 108.528 120.526 108.652C120.65 108.776 120.719 108.945 120.719 109.121V148.211C120.719 148.387 120.65 148.556 120.526 148.68C120.402 148.804 120.233 148.874 120.058 148.874Z" fill="#CCCCCC"/>
</svg>
