<svg width="18" height="18" viewBox="0 0 18 18" fill="none" xmlns="http://www.w3.org/2000/svg">
<path fill-rule="evenodd" clip-rule="evenodd" d="M14.1265 3.87348C11.2952 1.04218 6.70478 1.04218 3.87348 3.87348C1.04217 6.70478 1.04218 11.2952 3.87348 14.1265C6.70478 16.9578 11.2952 16.9578 14.1265 14.1265C16.9578 11.2952 16.9578 6.70478 14.1265 3.87348ZM2.81282 2.81282C6.2299 -0.604272 11.7701 -0.604272 15.1872 2.81282C18.6043 6.2299 18.6043 11.7701 15.1872 15.1872C11.7701 18.6043 6.2299 18.6043 2.81282 15.1872C-0.604272 11.7701 -0.604272 6.2299 2.81282 2.81282ZM9 7.93934L11.2981 5.64124L12.3588 6.7019L10.0607 9L12.3588 11.2981L11.2981 12.3588L9 10.0607L6.7019 12.3588L5.64124 11.2981L7.93934 9L5.64124 6.7019L6.7019 5.64124L9 7.93934Z" fill="#FF3333"/>
</svg>
