<svg xmlns="http://www.w3.org/2000/svg" fill="none" viewBox="0 0 24 24"><path fill="#8D96B5" fill-rule="evenodd" d="M6.22 4.78c.28.22.57.43.87.61.37-.75.8-1.37 1.25-1.89-.77.33-1.48.76-2.12 1.28Zm5.03-1.7c-.42.21-.94.55-1.47 1.08a6.93 6.93 0 0 0-1.36 1.93c.88.37 1.83.6 2.83.69v-3.7Zm0 5.2a10.7 10.7 0 0 1-3.39-.8 14.34 14.34 0 0 0-.6 3.77h3.99V8.28Zm1.5 2.97V8.28a10.7 10.7 0 0 0 3.39-.8c.32 1.02.54 2.26.6 3.77h-3.99Zm-1.5 1.5H7.26c.06 1.51.28 2.75.6 3.77a10.7 10.7 0 0 1 3.39-.8v-2.97Zm1.5 2.97v-2.97h3.99a14.34 14.34 0 0 1-.6 3.77 10.7 10.7 0 0 0-3.39-.8Zm-1.5 1.5a9.2 9.2 0 0 0-2.83.7c.41.83.9 1.46 1.36 1.92.53.53 1.05.87 1.47 1.08v-3.7ZM8.34 20.5a8.96 8.96 0 0 1-1.25-1.9c-.3.2-.6.4-.87.62.64.52 1.35.95 2.12 1.28Zm-3.22-2.32c.43-.36.9-.69 1.39-.98a15.47 15.47 0 0 1-.75-4.45H2.78a9.21 9.21 0 0 0 2.34 5.43Zm-2.34-6.93h2.98c.06-1.77.34-3.24.75-4.45-.5-.3-.96-.62-1.39-.98a9.21 9.21 0 0 0-2.34 5.43Zm12.88 9.25a9.25 9.25 0 0 0 2.12-1.28 9.3 9.3 0 0 0-.87-.61c-.37.75-.8 1.37-1.25 1.89Zm-.08-2.59a9.2 9.2 0 0 0-2.83-.69v3.7c.42-.21.94-.55 1.47-1.08.47-.46.95-1.09 1.36-1.93Zm1.91-.7c.5.28.96.61 1.39.97a9.21 9.21 0 0 0 2.34-5.43h-2.98a15.64 15.64 0 0 1-.75 4.45Zm.75-5.96h2.98a9.21 9.21 0 0 0-2.34-5.43c-.43.36-.9.69-1.39.98.41 1.21.69 2.68.75 4.45ZM16.9 5.39c.3-.18.6-.4.87-.61a9.25 9.25 0 0 0-2.12-1.28c.45.52.88 1.14 1.25 1.9Zm-4.16-2.31v3.7a9.2 9.2 0 0 0 2.83-.7 7.26 7.26 0 0 0-1.36-1.92 5.82 5.82 0 0 0-1.47-1.08ZM4.56 4.24a10.72 10.72 0 0 1 14.88 0 10.72 10.72 0 0 1 0 15.52 10.72 10.72 0 0 1-14.88 0 10.72 10.72 0 0 1 0-15.52Z" clip-rule="evenodd"/></svg>