<svg xmlns="http://www.w3.org/2000/svg" fill="none" viewBox="0 0 24 24"><path fill="#000" fill-opacity=".9" d="M12 16.33a4.33 4.33 0 1 1 0-8.66 4.33 4.33 0 0 1 0 8.66Zm0-7.16a2.83 2.83 0 1 0 0 5.67 2.83 2.83 0 0 0 0-5.67Z"/><path fill="#000" fill-opacity=".9" d="M12 21.02c-3.76 0-7.31-2.2-9.75-6.02a6.06 6.06 0 0 1 0-6c2.45-3.82 6-6.02 9.75-6.02s7.3 2.2 9.74 6.02a6.06 6.06 0 0 1 0 6c-2.44 3.82-5.99 6.02-9.74 6.02Zm0-16.54c-3.23 0-6.32 1.94-8.48 5.33a4.54 4.54 0 0 0 0 4.38c2.16 3.4 5.25 5.33 8.48 5.33 3.23 0 6.32-1.94 8.48-5.33a4.54 4.54 0 0 0 0-4.38C18.32 6.42 15.23 4.48 12 4.48Z"/></svg>