<svg width="24" height="24" viewBox="0 0 24 24" fill="none" xmlns="http://www.w3.org/2000/svg">
<path d="M2.62206 9.67021C5.01078 6.06383 8.42798 4 12 4C15.572 4 18.9892 6.06383 21.3779 9.67021C22.2074 10.9149 22.2074 13.0851 21.3779 14.3298C18.9892 17.9362 15.572 20 12 20C8.42798 20 5.01078 17.9362 2.62206 14.3298C1.79265 13.0851 1.79265 10.9149 2.62206 9.67021Z" stroke="current" stroke-width="1.5"/>
<path d="M15.7215 12C15.7215 13.933 14.072 15.5 12.0373 15.5C10.0026 15.5 8.3531 13.933 8.3531 12C8.3531 10.067 10.0026 8.5 12.0373 8.5C14.072 8.5 15.7215 10.067 15.7215 12Z" stroke="current" stroke-width="1.5"/>
</svg>
