<svg version="1.1" id="feedBackIcon" xmlns="http://www.w3.org/2000/svg" xmlns:xlink="http://www.w3.org/1999/xlink"
    x="0px" y="0px" viewBox="0 0 512 512" fill="#8d96b5" style="enable-background:new 0 0 512 512;"
    xml:space="preserve">
    <g>
        <g>
            <g>
                <path
                    d="M117.333,234.667H352c5.896,0,10.667-4.771,10.667-10.667s-4.771-10.667-10.667-10.667H117.333 c-5.896,0-10.667,4.771-10.667,10.667S111.438,234.667,117.333,234.667z" />
                <path
                    d="M245.333,341.333h-128c-5.896,0-10.667,4.771-10.667,10.667c0,5.896,4.771,10.667,10.667,10.667h128 c5.896,0,10.667-4.771,10.667-10.667C256,346.104,251.229,341.333,245.333,341.333z" />
                <path
                    d="M471.167,149.333c-0.618,0-1.217,0.155-1.833,0.184V64c0-23.531-19.146-42.667-42.667-42.667h-384 C19.146,21.333,0,40.469,0,64v384c0,23.531,19.146,42.667,42.667,42.667h384c23.521,0,42.667-19.135,42.667-42.667V249.745 l30.708-30.703c0,0,0,0,0-0.01c7.604-7.604,11.958-18.125,11.958-28.865C512,167.646,493.688,149.333,471.167,149.333z M138.667,64c5.891,0,10.667,4.775,10.667,10.667c0,5.891-4.776,10.667-10.667,10.667S128,80.557,128,74.667 C128,68.775,132.776,64,138.667,64z M96,64c5.891,0,10.667,4.775,10.667,10.667c0,5.891-4.776,10.667-10.667,10.667 s-10.667-4.776-10.667-10.667C85.333,68.775,90.109,64,96,64z M53.333,64C59.224,64,64,68.775,64,74.667 c0,5.891-4.776,10.667-10.667,10.667s-10.667-4.776-10.667-10.667C42.667,68.775,47.443,64,53.333,64z M426.667,448h-384V128h384 v48.914L326.232,277.333H117.333c-5.896,0-10.667,4.771-10.667,10.667s4.771,10.667,10.667,10.667h191.785l-10.243,51.24 c-0.708,3.5,0.396,7.115,2.917,9.635c2.021,2.021,4.75,3.125,7.542,3.125c0.688,0,1.396-0.073,2.083-0.208l53.313-10.667 c2.083-0.417,3.979-1.427,5.458-2.917l56.479-56.47V448z M454.249,234.665l-27.587-27.587l15.083-15.083l27.589,27.589 L454.249,234.665z" />
            </g>
        </g>
    </g>
</svg>