<svg viewBox="0 0 41.98 42.09" xmlns="http://www.w3.org/2000/svg">
    <g id="Layer_2" data-name="Layer 2">
        <g id="Layer_1-2" data-name="Layer 1">
            <g id="Attach">
                <path id="_4"
                    d="m20.12 42.09h-15.12a5 5 0 0 1 -5-5v-32.09a5 5 0 0 1 5-5h23.15a5 5 0 0 1 5 5v12a1.13 1.13 0 1 1 -2.25 0v-12a2.71 2.71 0 0 0 -2.72-2.71h-23.18a2.71 2.71 0 0 0 -2.74 2.71v32.12a2.71 2.71 0 0 0 2.74 2.71h15.12a1.13 1.13 0 0 1 0 2.26z"
                    data-name="4" />
                <path id="_3" d="m26.05 12.08h-19a1.13 1.13 0 1 1 0-2.25h19a1.13 1.13 0 0 1 0 2.25z" data-name="3" />
                <path id="_2" d="m17.53 20.86h-10.45a1.13 1.13 0 0 1 0-2.26h10.45a1.13 1.13 0 0 1 0 2.26z"
                    data-name="2" />
                <path id="_1"
                    d="m28.27 42a6.18 6.18 0 0 1 -4.41-1.82 6.25 6.25 0 0 1 0-8.82l9.26-9.3a3.79 3.79 0 0 1 5.36 0 3.79 3.79 0 0 1 0 5.36l-6.9 6.9a1.11 1.11 0 1 1 -1.58-1.58l6.91-6.91a1.57 1.57 0 0 0 0-2.2 1.56 1.56 0 0 0 -2.21 0l-9.26 9.3a4 4 0 1 0 5.66 5.66l9-9a1.11 1.11 0 0 1 1.58 0 1.13 1.13 0 0 1 0 1.58l-9 9a6.21 6.21 0 0 1 -4.41 1.83z"
                    data-name="1" />
            </g>
        </g>
    </g>
</svg>