<svg xmlns="http://www.w3.org/2000/svg" fill="none" viewBox="0 0 24 24"><path stroke="#000" stroke-linecap="round" stroke-linejoin="round" stroke-opacity=".7" stroke-width="1.5" d="M6.2 7.5C5 7.5 4 6.5 4 5.25 4 4.01 4.99 3 6.2 3c.73 0 1.37.35 1.77.9.28.38.44.84.44 1.35 0 1.24-.98 2.25-2.2 2.25Zm0 0V9a3 3 0 0 0 3 3h3.2m5.4-4.5c.45 0 .87-.14 1.22-.38.59-.4.98-1.09.98-1.87C20 4.01 19.01 3 17.8 3c-1.23 0-2.21 1-2.21 2.25 0 .5.16.97.44 1.35.4.55 1.04.9 1.76.9Zm0 0V9a3 3 0 0 1-3 3h-2.4m0 4.5c1.22 0 2.2 1 2.2 2.25 0 1.24-.98 2.25-2.2 2.25-1.22 0-2.21-1-2.21-2.25 0-.78.4-1.47.98-1.87.35-.24.77-.38 1.23-.38Zm0 0V12"/></svg>