<svg width="24" height="24" viewBox="0 0 24 24" fill="none" xmlns="http://www.w3.org/2000/svg">
<path d="M6.20675 7.5C4.988 7.5 4 6.49264 4 5.25C4 4.00736 4.988 3 6.20675 3C6.92868 3 7.56965 3.35346 7.97225 3.89992C8.24932 4.27598 8.4135 4.74344 8.4135 5.25C8.4135 6.49264 7.4255 7.5 6.20675 7.5ZM6.20675 7.5V9C6.20675 10.6569 7.5499 12 9.20675 12H12.3972M17.7933 7.5C18.2461 7.5 18.6672 7.3609 19.0175 7.12231C19.6099 6.71884 20 6.03088 20 5.25C20 4.00736 19.012 3.00001 17.7933 3.00001C16.5745 3.00001 15.5865 4.00736 15.5865 5.25C15.5865 5.75656 15.7507 6.22402 16.0277 6.60008C16.4304 7.14654 17.0713 7.5 17.7933 7.5ZM17.7933 7.5V9C17.7933 10.6569 16.4501 12 14.7932 12H12.3972M12.3972 16.5C13.616 16.5 14.604 17.5074 14.604 18.75C14.604 19.9926 13.616 21 12.3972 21C11.1785 21 10.1905 19.9926 10.1905 18.75C10.1905 17.9691 10.5806 17.2812 11.173 16.8777C11.5233 16.6391 11.9443 16.5 12.3972 16.5ZM12.3972 16.5V12" stroke="#8D96B5" stroke-width="1.5" stroke-linecap="round" stroke-linejoin="round"/>
</svg>
