<svg xmlns="http://www.w3.org/2000/svg" fill="none" viewBox="0 0 24 24">
  <path fill="#8D96B5" d="M12 15.13a3.13 3.13 0 1 1 0-6.26 3.13 3.13 0 0 1 0 6.26Zm0-5a1.88 1.88 0 1 0 0 3.75 1.88 1.88 0 0 0 0-3.76Z"/>
  <path fill="#8D96B5" d="M14.68 20.5a2.05 2.05 0 0 1-1.75-1l-.1-.17c-.5-.85-1.17-.85-1.66 0l-.1.16a2 2 0 0 1-2.74.73l-1.44-.83a2.2 2.2 0 0 1-.81-3.01c.24-.43.3-.81.16-1.05-.14-.25-.5-.39-.99-.39a2.2 2.2 0 0 1-2.2-2.2v-1.47a2.2 2.2 0 0 1 2.2-2.21c.5 0 .85-.14 1-.38.13-.25.08-.63-.17-1.05a2.22 2.22 0 0 1 .81-3.02l1.44-.83a2.02 2.02 0 0 1 2.75.73l.1.17c.5.85 1.17.85 1.66 0l.1-.16a2 2 0 0 1 2.75-.73l1.44.83a2.2 2.2 0 0 1 .81 3.01c-.24.43-.3.81-.16 1.05.14.25.5.39.99.39 1.21 0 2.2.99 2.2 2.2v1.47a2.2 2.2 0 0 1-2.2 2.21c-.5 0-.85.14-1 .38-.14.25-.08.63.17 1.05.3.51.38 1.11.22 1.68a2.15 2.15 0 0 1-1.03 1.34l-1.45.83c-.31.17-.65.26-1 .26ZM12 17.4c.74 0 1.43.48 1.91 1.3l.1.16a.74.74 0 0 0 1.02.27l1.45-.83a.96.96 0 0 0 .35-1.3c-.47-.82-.53-1.67-.16-2.3.36-.65 1.12-1.02 2.07-1.02.54 0 .96-.42.96-.95v-1.47a.96.96 0 0 0-.96-.96c-.95 0-1.7-.37-2.07-1-.37-.65-.31-1.5.16-2.3a.97.97 0 0 0-.35-1.3l-1.44-.84a.77.77 0 0 0-1.05.27l-.09.16c-.47.83-1.17 1.3-1.9 1.3-.75 0-1.44-.47-1.92-1.3L10 5.13a.77.77 0 0 0-1.03-.27l-1.44.83A.96.96 0 0 0 7.16 7c.47.82.53 1.66.17 2.3-.37.64-1.13 1-2.08 1a.95.95 0 0 0-.96.97v1.46c0 .53.43.96.96.96.95 0 1.71.37 2.08 1.01.36.64.3 1.48-.17 2.3a.97.97 0 0 0 .35 1.3l1.44.83c.18.11.38.14.58.09a.8.8 0 0 0 .47-.36l.1-.16c.47-.82 1.16-1.3 1.9-1.3Z"/>
</svg>
