<svg xmlns="http://www.w3.org/2000/svg" fill="none" viewBox="0 0 24 24">
  <path stroke="#39C" stroke-linejoin="round" stroke-width="1.5" d="m7.5 6.75 2.19.97a2 2 0 0 1 1.19 1.83V12m-3.76 5.25 2.5-1a2 2 0 0 0 1.26-1.85V12m0 0H6.5"/>
  <path stroke="#39C" stroke-width="1.5" d="M7.5 6a1.5 1.5 0 1 1-3 0 1.5 1.5 0 0 1 3 0Zm0 12a1.5 1.5 0 1 0-3 0 1.5 1.5 0 0 0 3 0ZM6 12a1.5 1.5 0 1 0-3 0 1.5 1.5 0 0 0 3 0Zm10-6a1.5 1.5 0 1 0 3 0 1.5 1.5 0 0 0-3 0Zm0 12a1.5 1.5 0 1 1 3 0 1.5 1.5 0 0 1-3 0Zm1.5-6a1.5 1.5 0 1 1 3 0 1.5 1.5 0 0 1-3 0Z"/>
  <path stroke="#39C" stroke-linejoin="round" stroke-width="1.5" d="m16.5 17.25-2.19-.97a2 2 0 0 1-1.19-1.83V12m3.76-5.25-2.5 1a2 2 0 0 0-1.26 1.85V12m0 0h4.38"/>
  <path fill="#fff" stroke="#39C" stroke-width="1.5" d="M14.25 12a2.25 2.25 0 1 0-4.5 0 2.25 2.25 0 0 0 4.5 0Z"/>
</svg>
