<svg xmlns="http://www.w3.org/2000/svg" fill="none" viewBox="0 0 24 24"><path fill="#39C" fill-rule="evenodd" d="M6 5.25a.75.75 0 1 0 0 1.5.75.75 0 0 0 0-1.5ZM3.75 6a2.25 2.25 0 1 1 4.49.26l1.75.78a2.75 2.75 0 0 1 1.59 1.99 3.03 3.03 0 0 1 .86 0c.18-.88.8-1.63 1.66-1.98l1.22-.49a2.25 2.25 0 1 1 .87 1.27l-1.53.61c-.47.2-.79.65-.79 1.16v.06a3 3 0 0 1 1.04 1.59h1.97a2.25 2.25 0 1 1 0 1.5H14.9a3 3 0 0 1-1.04 1.6v.1c0 .5.3.94.75 1.14l1.47.66a2.25 2.25 0 1 1-.8 1.29L14 16.96a2.75 2.75 0 0 1-1.59-1.99 3.03 3.03 0 0 1-.86 0c-.18.88-.8 1.63-1.66 1.98l-1.68.67a2.25 2.25 0 1 1-.74-1.32l1.86-.74c.47-.2.79-.65.79-1.16v-.06a3 3 0 0 1-1.04-1.59H6.62a2.25 2.25 0 1 1 0-1.5H9.1a3 3 0 0 1 1.04-1.6v-.1c0-.5-.3-.94-.75-1.14l-1.8-.8A2.24 2.24 0 0 1 3.75 6Zm13.75-.75a.75.75 0 1 0 0 1.5.75.75 0 0 0 0-1.5ZM12 10.5a1.5 1.5 0 1 0 0 3 1.5 1.5 0 0 0 0-3Zm-7.5.75a.75.75 0 1 0 0 1.5.75.75 0 0 0 0-1.5Zm14.5 0a.75.75 0 1 0 0 1.5.75.75 0 0 0 0-1.5Zm-13 6a.75.75 0 1 0 0 1.5.75.75 0 0 0 0-1.5Zm11.5 0a.75.75 0 1 0 0 1.5.75.75 0 0 0 0-1.5Z" clip-rule="evenodd"/></svg>