<svg xmlns="http://www.w3.org/2000/svg" fill="none" viewBox="0 0 40 40">
  <path fill="#24292F" fill-rule="evenodd" d="M20 0C8.95 0 0 8.95 0 20c0 8.85 5.725 16.325 13.675 18.975 1 .175 1.375-.425 1.375-.95 0-.475-.025-2.05-.025-3.725C10 35.225 8.7 33.075 8.3 31.95c-.225-.575-1.2-2.35-2.05-2.825-.7-.375-1.7-1.3-.025-1.325 1.575-.025 2.7 1.45 3.075 2.05 1.8 3.025 4.675 2.175 5.825 1.65.175-1.3.7-2.175 1.275-2.675-4.45-.5-9.1-2.225-9.1-9.875 0-2.175.775-3.975 2.05-5.375-.2-.5-.9-2.55.2-5.3 0 0 1.675-.525 5.5 2.05 1.6-.45 3.3-.675 5-.675 1.7 0 3.4.225 5 .675 3.825-2.6 5.5-2.05 5.5-2.05 1.1 2.75.4 4.8.2 5.3 1.275 1.4 2.05 3.175 2.05 5.375 0 7.675-4.675 9.375-9.125 9.875.725.625 1.35 1.825 1.35 3.7 0 2.675-.025 4.825-.025 5.5 0 .525.375 1.15 1.375.95C34.275 36.325 40 28.825 40 20 40 8.95 31.05 0 20 0Z" clip-rule="evenodd"/>
</svg>
