<svg width="24" height="24" viewBox="0 0 24 24" fill="none" xmlns="http://www.w3.org/2000/svg">
<g id="vuesax/linear/information">
<g id="information">
<path id="Vector" d="M10.7506 2.45007C11.4506 1.86007 12.5806 1.86007 13.2606 2.45007L14.8406 3.80007C15.1406 4.05007 15.7106 4.26007 16.1106 4.26007H17.8106C18.8706 4.26007 19.7406 5.13007 19.7406 6.19007V7.89007C19.7406 8.29007 19.9506 8.85007 20.2006 9.15007L21.5506 10.7301C22.1406 11.4301 22.1406 12.5601 21.5506 13.2401L20.2006 14.8201C19.9506 15.1201 19.7406 15.6801 19.7406 16.0801V17.7801C19.7406 18.8401 18.8706 19.7101 17.8106 19.7101H16.1106C15.7106 19.7101 15.1506 19.9201 14.8506 20.1701L13.2706 21.5201C12.5706 22.1101 11.4406 22.1101 10.7606 21.5201L9.18062 20.1701C8.88062 19.9201 8.31062 19.7101 7.92062 19.7101H6.17062C5.11062 19.7101 4.24061 18.8401 4.24061 17.7801V16.0701C4.24061 15.6801 4.04062 15.1101 3.79062 14.8201L2.44062 13.2301C1.86062 12.5401 1.86062 11.4201 2.44062 10.7301L3.79062 9.14007C4.04062 8.84007 4.24061 8.28007 4.24061 7.89007V6.20007C4.24061 5.14007 5.11062 4.27007 6.17062 4.27007H7.90062C8.30062 4.27007 8.86061 4.06007 9.16061 3.81007L10.7506 2.45007Z" stroke="black" stroke-opacity="0.9" stroke-width="1.5" stroke-linecap="round" stroke-linejoin="round"/>
<path id="Vector_2" d="M12 8.12988V12.9599" stroke="black" stroke-opacity="0.9" stroke-width="1.5" stroke-linecap="round" stroke-linejoin="round"/>
<path id="Vector_3" d="M11.9933 16H12.0023" stroke="black" stroke-opacity="0.9" stroke-width="1.8" stroke-linecap="round" stroke-linejoin="round"/>
</g>
</g>
</svg>

