<svg width="21" height="21" viewBox="0 0 21 21" fill="none" xmlns="http://www.w3.org/2000/svg">
<circle cx="10.5" cy="10.5" r="10.5" fill="#FF3333"/>
<path d="M11.9035 5.67525C11.9617 5.26795 11.7659 4.86114 11.3833 4.70994C11.1041 4.59963 10.7756 4.5 10.5 4.5C10.2244 4.5 9.89592 4.59963 9.61673 4.70994C9.23409 4.86114 9.03828 5.26795 9.09646 5.67525L9.5 8.5L9.92929 11.505C9.96986 11.789 10.2131 12 10.5 12C10.7869 12 11.0301 11.789 11.0707 11.505L11.9035 5.67525Z" fill="white"/>
<path d="M12 14.5C12 15.3284 11.3284 16 10.5 16C9.67157 16 9 15.3284 9 14.5C9 13.6716 9.67157 13 10.5 13C11.3284 13 12 13.6716 12 14.5Z" fill="white"/>
</svg>
