<svg xmlns="http://www.w3.org/2000/svg" fill="none" viewBox="0 0 24 24"><g fill="current" fill-rule="evenodd" clip-path="url(#a)" clip-rule="evenodd"><path d="M9 7.02a1.98 1.98 0 1 0 0 3.96 1.98 1.98 0 0 0 0-3.96ZM5.52 9a3.48 3.48 0 1 1 6.96 0 3.48 3.48 0 0 1-6.96 0Z"/><path d="M11.52 8.25h5.45c2.34 0 4.24 1.9 4.24 4.24v5.02c0 2.34-1.9 4.24-4.24 4.24h-5.79a3.48 3.48 0 0 1-3.47-3.48v-.54a.75.75 0 0 1 1.5 0v.54c0 1.1.88 1.98 1.97 1.98h5.79a2.74 2.74 0 0 0 2.74-2.74V12.5a2.74 2.74 0 0 0-2.74-2.74h-5.45v-1.5Z"/><path d="M14.45 17a2 2 0 1 0 0-4 2 2 0 0 0 0 4Zm3.46-2a3.45 3.45 0 1 1-6.9 0 3.45 3.45 0 0 1 6.9 0Z"/><path d="M11.93 15.75H6.5a4.24 4.24 0 0 1-4.24-4.24V6.5c0-2.34 1.9-4.24 4.24-4.24h5.78a3.48 3.48 0 0 1 3.48 3.48v.54a.75.75 0 0 1-1.5 0v-.54c0-1.1-.88-1.98-1.98-1.98H6.5A2.74 2.74 0 0 0 3.76 6.5v5.02a2.74 2.74 0 0 0 2.74 2.74h5.44v1.5Z"/></g><defs><clipPath id="a"><path fill="#fff" d="M0 0h24v24H0z"/></clipPath></defs></svg>