<svg width="21" height="22" viewBox="0 0 21 22" fill="none" xmlns="http://www.w3.org/2000/svg">
<circle cx="10.5" cy="11.0859" r="10.5" fill="#FF9500"/>
<path d="M11.9035 6.26119C11.9617 5.85389 11.7659 5.44708 11.3833 5.29588C11.1041 5.18557 10.7756 5.08594 10.5 5.08594C10.2244 5.08594 9.89592 5.18557 9.61673 5.29588C9.23408 5.44708 9.03828 5.85389 9.09646 6.26119L9.5 9.08594L9.92929 12.091C9.96986 12.375 10.2131 12.5859 10.5 12.5859C10.7869 12.5859 11.0301 12.375 11.0707 12.091L11.9035 6.26119Z" fill="white"/>
<path d="M12 15.0859C12 15.9144 11.3284 16.5859 10.5 16.5859C9.67157 16.5859 9 15.9144 9 15.0859C9 14.2575 9.67157 13.5859 10.5 13.5859C11.3284 13.5859 12 14.2575 12 15.0859Z" fill="white"/>
</svg>
