<svg xmlns="http://www.w3.org/2000/svg" fill="none" viewBox="0 0 24 24">
  <path fill="#000" fill-opacity=".9" stroke="#000" stroke-linecap="round" stroke-linejoin="round" stroke-opacity=".9" stroke-width="1.333" d="m10.266 12.818 3.905 4.054a.393.393 0 0 0 .275.128.39.39 0 0 0 .275-.126.886.886 0 0 0 .203-.346c.049-.144.075-.307.076-.475V7.947a1.525 1.525 0 0 0-.076-.475.886.886 0 0 0-.203-.346.39.39 0 0 0-.275-.126.393.393 0 0 0-.275.128l-3.905 4.054a.917.917 0 0 0-.195.348A1.539 1.539 0 0 0 10 12c0 .165.024.326.071.47a.917.917 0 0 0 .195.348Z"/>
</svg>
