<svg width="24" height="24" viewBox="0 0 24 24" fill="none" xmlns="http://www.w3.org/2000/svg">
<path d="M22 12C22 17.5228 17.5228 22 12 22C6.47715 22 2 17.5228 2 12C2 6.47715 6.47715 2 12 2C17.5228 2 22 6.47715 22 12ZM3.5 12C3.5 16.6944 7.30558 20.5 12 20.5C16.6944 20.5 20.5 16.6944 20.5 12C20.5 7.30558 16.6944 3.5 12 3.5C7.30558 3.5 3.5 7.30558 3.5 12Z" fill="#3300FF" fill-opacity="0.1"/>
<path d="M12 2C13.9778 2 15.9112 2.58649 17.5557 3.6853C19.2002 4.78412 20.4819 6.3459 21.2388 8.17317C21.9957 10.0004 22.1937 12.0111 21.8079 13.9509C21.422 15.8907 20.4696 17.6725 19.0711 19.0711C17.6725 20.4696 15.8907 21.422 13.9509 21.8079C12.0111 22.1937 10.0004 21.9957 8.17317 21.2388C6.3459 20.4819 4.78412 19.2002 3.6853 17.5557C2.58649 15.9112 2 13.9778 2 12H3.5C3.5 13.6811 3.99852 15.3245 4.93251 16.7223C5.8665 18.1202 7.19402 19.2096 8.74719 19.853C10.3004 20.4963 12.0094 20.6646 13.6583 20.3367C15.3071 20.0087 16.8217 19.1992 18.0104 18.0104C19.1992 16.8217 20.0087 15.3071 20.3367 13.6583C20.6646 12.0094 20.4963 10.3004 19.853 8.74719C19.2096 7.19402 18.1202 5.8665 16.7223 4.93251C15.3245 3.99852 13.6811 3.5 12 3.5V2Z" fill="#3300FF"/>
</svg>
