<svg width="24" height="24" viewBox="0 0 24 24" fill="none" xmlns="http://www.w3.org/2000/svg">
<path fill-rule="evenodd" clip-rule="evenodd" d="M7.79826 1.07435C8.6963 0.887484 9.67136 1.06788 10.8158 1.44761C11.0764 1.53407 11.2689 1.75599 11.3177 2.02617L12.0218 5.92542C14.2711 6.04143 15.8794 6.78459 16.9405 7.91703C18.087 9.14067 18.5008 10.719 18.5008 12.1595C18.5008 15.567 15.9759 18.3848 12.695 18.844L13.3363 21.4095H14.7508C15.165 21.4095 15.5008 21.7453 15.5008 22.1595C15.5008 22.5737 15.165 22.9095 14.7508 22.9095H8.75077C8.33655 22.9095 8.00077 22.5737 8.00077 22.1595C8.00077 21.7453 8.33655 21.4095 8.75077 21.4095H11.7902L11.1652 18.9095H7.75077C7.33655 18.9095 7.00077 18.5737 7.00077 18.1595C7.00077 17.7453 7.33655 17.4095 7.75077 17.4095H11.7508C14.6503 17.4095 17.0008 15.059 17.0008 12.1595C17.0008 10.9876 16.6641 9.81593 15.8459 8.94265C15.1518 8.20189 14.0413 7.60148 12.2967 7.44775L12.3821 7.92043L13.4093 11.754C13.5165 12.1541 13.2791 12.5654 12.879 12.6726L11.6716 12.9961L11.9951 14.2035C12.1023 14.6036 11.8649 15.0148 11.4648 15.1221C11.0647 15.2293 10.6534 14.9918 10.5462 14.5917L10.2227 13.3843L9.01528 13.7078C8.82314 13.7593 8.61843 13.7324 8.44616 13.6329C8.2739 13.5335 8.1482 13.3696 8.09672 13.1775L7.06952 9.34394L5.04419 3.70715C4.95657 3.4633 5.00103 3.19149 5.16178 2.98826C5.94494 1.99817 6.73102 1.29641 7.79826 1.07435ZM10.6519 6.78C10.6534 6.78915 10.655 6.79825 10.6568 6.80728L10.9171 8.2484L11.7663 11.4178L9.35149 12.0648L8.50226 8.89544L6.60007 3.60137C7.18087 2.92945 7.62804 2.64189 8.10384 2.54289C8.53569 2.45303 9.08871 2.49708 9.92229 2.7397L10.6519 6.78Z" fill="white"  stroke="none"/>
</svg>
