<svg xmlns="http://www.w3.org/2000/svg" fill="none" viewBox="0 0 24 24"><path fill="#C6C" fill-rule="evenodd" d="M1.72 2.8C2.1 2.03 2.81 1.25 4 1.25h14c1.6 0 2.75 1.55 2.75 3.75v6.25h1.29a.75.75 0 0 1 .01 1.5l1.64 7.08-.41.1.41-.1v.02l.01.02v.01a2.2 2.2 0 0 1 .05.4c0 .25-.01.6-.14.97s-.38.77-.82 1.06c-.44.3-1 .44-1.68.44H5.35c-.78 0-1.4-.14-1.9-.4a2.23 2.23 0 0 1-1.2-2.04 2.49 2.49 0 0 1 .04-.46v-.01l.74.16-.73-.17 1.64-7.08h-.45a.75.75 0 0 1 0-1.5h1.76v-5.5H2A.75.75 0 0 1 1.25 5c0-.57.11-1.44.47-2.2Zm3.46 1.45a3.3 3.3 0 0 0-.26-.8c-.22-.48-.51-.7-.92-.7-.4 0-.7.22-.92.7-.12.25-.2.53-.26.8h2.36Zm1.07-1.5.03.05c.36.76.47 1.63.47 2.2v6.25h12.5V5c0-1.8-.85-2.25-1.25-2.25H6.25Zm-.77 10-1.72 7.41v.02a1 1 0 0 0 .07.5c.05.11.14.24.34.35.2.11.57.22 1.18.22H21.1c.47 0 .72-.1.85-.19.12-.08.2-.18.24-.3a1.15 1.15 0 0 0 .03-.6l-1.72-7.41H5.48ZM8.75 5.5c0-.41.34-.75.75-.75h3a.75.75 0 0 1 0 1.5h-3a.75.75 0 0 1-.75-.75Zm0 3c0-.41.34-.75.75-.75h7a.75.75 0 0 1 0 1.5h-7a.75.75 0 0 1-.75-.75Zm-1.37 7c0-.41.33-.75.75-.75h.93a.75.75 0 0 1 0 1.5h-.93a.75.75 0 0 1-.75-.75Zm3.24 0c0-.41.34-.75.75-.75h.93a.75.75 0 0 1 0 1.5h-.93a.75.75 0 0 1-.75-.75Zm3.13 0c0-.41.34-.75.75-.75h.93a.75.75 0 0 1 0 1.5h-.93a.75.75 0 0 1-.75-.75Zm2.9 0c0-.41.34-.75.75-.75h.93a.75.75 0 0 1 0 1.5h-.93a.75.75 0 0 1-.75-.75Zm-9.4 3c0-.41.34-.75.75-.75h.93a.75.75 0 0 1 0 1.5H8a.75.75 0 0 1-.75-.75Zm2.91 0c0-.41.34-.75.75-.75h4.64a.75.75 0 0 1 0 1.5H10.9a.75.75 0 0 1-.75-.75Zm6.49 0c0-.41.34-.75.75-.75h.93a.75.75 0 0 1 0 1.5h-.93a.75.75 0 0 1-.75-.75Z" clip-rule="evenodd"/></svg>