<svg xmlns="http://www.w3.org/2000/svg" fill="none" viewBox="0 0 24 24">
  <g fill="currentColor">
    <path fill-rule="evenodd" d="M8.676 2.917a.75.75 0 0 1 .75.75v.93c.187-.01.378-.014.573-.014h1.251v-.916a.75.75 0 0 1 1.5 0v.916h1.249c.198 0 .393.005.583.014v-.93a.75.75 0 0 1 1.5 0v1.136c.806.198 1.49.543 2.03 1.083.54.54.886 1.225 1.084 2.03h1.139a.75.75 0 0 1 0 1.5H19.4c.01.19.014.385.014.584v1.25h.92a.75.75 0 0 1 0 1.5h-.92V14c0 .199-.004.393-.014.583h.934a.75.75 0 0 1 0 1.5h-1.139c-.198.806-.543 1.49-1.084 2.03-.54.541-1.224.886-2.03 1.084v1.136a.75.75 0 0 1-1.5 0v-.93c-.19.01-.385.014-.583.014h-1.241v.916a.75.75 0 0 1-1.5 0v-.916h-1.26c-.194 0-.385-.005-.572-.014v.93a.75.75 0 0 1-1.5 0V19.2c-.81-.198-1.498-.544-2.041-1.086-.54-.54-.885-1.225-1.084-2.03H3.668a.75.75 0 0 1 0-1.5h.928c-.01-.19-.014-.385-.014-.584v-1.25h-.914a.75.75 0 0 1 0-1.5h.914V10c0-.199.005-.393.014-.583h-.928a.75.75 0 0 1 0-1.5h1.133c.199-.806.544-1.49 1.084-2.03.543-.543 1.23-.889 2.04-1.087V3.667a.75.75 0 0 1 .75-.75Zm.091 3.247c-.866.127-1.439.4-1.821.783-.381.381-.654.95-.782 1.812A8.575 8.575 0 0 0 6.082 10v1.937a.756.756 0 0 1 0 .126V14a8.577 8.577 0 0 0 .082 1.241c.128.861.4 1.43.782 1.812.382.383.955.656 1.821.784a8.596 8.596 0 0 0 1.232.08h4a8.58 8.58 0 0 0 1.24-.082c.862-.128 1.432-.4 1.813-.782.38-.381.654-.95.782-1.812A8.566 8.566 0 0 0 17.916 14v-4a8.587 8.587 0 0 0-.082-1.24c-.128-.862-.401-1.432-.782-1.813s-.951-.654-1.812-.782a8.576 8.576 0 0 0-1.241-.082h-4a8.6 8.6 0 0 0-1.232.08ZM7.98 7.98c.678-.678 1.654-.897 2.77-.897h2.5c1.115 0 2.091.219 2.77.897.678.678.896 1.654.896 2.77v2.5c0 1.116-.218 2.092-.896 2.77-.679.678-1.655.897-2.77.897h-2.5c-1.116 0-2.092-.219-2.77-.897-.678-.678-.897-1.654-.897-2.77v-2.5c0-1.116.219-2.092.897-2.77Zm1.06 1.06c-.259.26-.457.742-.457 1.71v2.5c0 .968.198 1.45.457 1.71.26.259.742.457 1.71.457h2.5c.967 0 1.45-.198 1.709-.458.26-.259.457-.741.457-1.709v-2.5c0-.968-.198-1.45-.457-1.71-.26-.258-.742-.457-1.71-.457h-2.5c-.967 0-1.45.199-1.709.458ZM10.25 14a.75.75 0 0 1 .75-.75h2a.75.75 0 0 1 0 1.5h-2a.75.75 0 0 1-.75-.75Z" clip-rule="evenodd"/>
    <path d="M14.5 10.75a.75.75 0 1 1-1.5 0 .75.75 0 0 1 1.5 0Zm-3.5 0a.75.75 0 1 1-1.5 0 .75.75 0 0 1 1.5 0Z"/>
  </g>
</svg>
