<svg xmlns="http://www.w3.org/2000/svg" fill="none" viewBox="0 0 24 24"><path fill="#7000FF" fill-rule="evenodd" d="M9.63 3.56c0-1.3 1.09-2.31 2.37-2.31a2.34 2.34 0 0 1 2.37 2.31c0 1.04-.7 1.89-1.62 2.2v1.57a2.9 2.9 0 0 1 1.5.95h.06c.49 0 .93-.29 1.14-.73l.33-.73a2.27 2.27 0 0 1-.76-1.7c0-1.3 1.08-2.3 2.36-2.3a2.34 2.34 0 0 1 2.37 2.3 2.34 2.34 0 0 1-2.6 2.3l-.34.75a2.75 2.75 0 0 1-1.93 1.55c.03.17.03.35.02.53h6.13a.75.75 0 0 1 .02 1.5l1.64 7.08-.41.1.41-.1v.02l.01.03a2.34 2.34 0 0 1 .05.4c0 .25-.01.6-.14.97s-.38.77-.82 1.06c-.44.3-1 .44-1.68.44H4.35c-.78 0-1.4-.14-1.9-.4a2.23 2.23 0 0 1-1.2-2.04 2.49 2.49 0 0 1 .04-.46v-.01l.74.16-.73-.17 1.64-7.08h-.45a.75.75 0 0 1 0-1.5H9.1c0-.17 0-.35.02-.52a2.75 2.75 0 0 1-1.93-1.4l-.49-.9h-.08a2.34 2.34 0 0 1-2.37-2.3c0-1.3 1.08-2.32 2.37-2.32a2.34 2.34 0 0 1 2.36 2.31c0 .73-.34 1.36-.86 1.78l.39.72c.21.4.64.66 1.1.66h.14a2.88 2.88 0 0 1 1.5-.95V5.75a2.31 2.31 0 0 1-1.62-2.19Zm.04 8.19h-5.2l-1.7 7.41-.01.02a1 1 0 0 0 .07.5c.05.11.14.24.34.35.2.11.57.22 1.18.22H20.1c.47 0 .72-.1.85-.19.12-.08.2-.18.24-.3a1.15 1.15 0 0 0 .03-.6l-1.72-7.41h-5.17a2.96 2.96 0 0 1-4.67 0Zm2.33-9c-.5 0-.87.39-.87.81 0 .43.37.81.87.81s.87-.38.87-.8a.84.84 0 0 0-.87-.82ZM6.62 4.31c-.5 0-.87.39-.87.81 0 .43.36.81.87.81.5 0 .86-.38.86-.8a.84.84 0 0 0-.86-.82Zm10.76 0c-.5 0-.86.39-.86.81 0 .43.36.81.86.81s.87-.38.87-.8a.84.84 0 0 0-.87-.82Zm-4.3 4.91c-.5-.57-1.4-.65-2-.17-.58.48-.65 1.3-.16 1.86.5.58 1.4.66 2 .17.58-.48.65-1.3.16-1.86Zm-6.7 5.28c0-.41.33-.75.75-.75h.93a.75.75 0 0 1 0 1.5h-.93a.75.75 0 0 1-.75-.75Zm3.24 0c0-.41.34-.75.75-.75h.93a.75.75 0 0 1 0 1.5h-.93a.75.75 0 0 1-.75-.75Zm3.13 0c0-.41.34-.75.75-.75h.93a.75.75 0 0 1 0 1.5h-.93a.75.75 0 0 1-.75-.75Zm2.9 0c0-.41.34-.75.75-.75h.93a.75.75 0 1 1 0 1.5h-.93a.75.75 0 0 1-.75-.75Zm-9.27 3c0-.41.33-.75.75-.75h.93a.75.75 0 0 1 0 1.5h-.93a.75.75 0 0 1-.75-.75Zm2.78 0c0-.41.34-.75.75-.75h4.64a.75.75 0 0 1 0 1.5H9.9a.75.75 0 0 1-.75-.75Zm6.49 0c0-.41.34-.75.75-.75h.93a.75.75 0 1 1 0 1.5h-.93a.75.75 0 0 1-.75-.75Z" clip-rule="evenodd"/></svg>