<svg xmlns="http://www.w3.org/2000/svg" fill="none" viewBox="0 0 24 24">
  <path fill="current" d="M12.02 20.53c-2.33 0-4.66-.37-6.87-1.11a2.78 2.78 0 0 1-1.76-1.65 2.7 2.7 0 0 1 .27-2.38l1.15-1.91c.24-.4.46-1.2.46-1.67V8.92a6.76 6.76 0 0 1 13.5 0v2.89c0 .46.22 1.27.46 1.68l1.14 1.9a2.77 2.77 0 0 1-1.49 4.03c-2.2.74-4.53 1.11-6.86 1.11Zm0-16.86a5.26 5.26 0 0 0-5.25 5.25v2.89c0 .73-.3 1.81-.67 2.44l-1.15 1.91c-.22.37-.28.76-.15 1.09.12.34.42.6.83.74a20 20 0 0 0 12.79 0 1.25 1.25 0 0 0 .67-1.83l-1.15-1.91a5.62 5.62 0 0 1-.67-2.45V8.92c0-2.9-2.35-5.25-5.25-5.25Z"/>
  <path fill="current" d="M13.88 3.94a.76.76 0 0 1-.2-.03 5.85 5.85 0 0 0-3.28 0 .74.74 0 0 1-.78-.21.74.74 0 0 1-.14-.78 2.72 2.72 0 0 1 2.55-1.74c1.14 0 2.14.68 2.55 1.74.1.27.05.57-.14.78a.77.77 0 0 1-.56.24Zm-1.86 18.87a3.76 3.76 0 0 1-3.75-3.75h1.5a2.27 2.27 0 0 0 2.25 2.25 2.25 2.25 0 0 0 2.25-2.25h1.5a3.75 3.75 0 0 1-3.75 3.75Z"/>
</svg>
