<svg width="24" height="24" viewBox="0 0 24 24" fill="none" xmlns="http://www.w3.org/2000/svg">
<path fill-rule="evenodd" clip-rule="evenodd" d="M9.13634 2.46067C7.92743 2.9263 7.05081 3.74133 6.43329 4.97371L6.14368 5.55164L5.69317 5.69462C4.30406 6.13562 3.2137 7.13264 2.63763 8.48879C2.18152 9.56226 2.12225 10.9976 2.48999 12.0628C2.67084 12.5868 3.04212 13.2794 3.34705 13.662C3.47351 13.8206 3.47429 13.8385 3.37311 14.2744C3.22535 14.9104 3.23938 15.9421 3.40452 16.5928C3.76107 17.9978 4.76551 19.2306 6.07932 19.8757C6.99179 20.3238 8.00042 20.5047 8.87704 20.3775L9.29344 20.317L9.66614 20.6467C10.1038 21.0339 10.6869 21.4002 11.1903 21.6042C11.5274 21.7409 11.6418 21.75 13.03 21.75C14.4859 21.75 14.5169 21.7472 14.9144 21.5795C16.1449 21.0602 17.202 20.0358 17.6434 18.9352C17.8185 18.4986 17.8425 18.4769 18.3074 18.3383C18.8571 18.1743 19.479 17.8336 19.9718 17.4265C20.7004 16.8244 21.2035 16.0768 21.5302 15.1101C21.7814 14.367 21.8223 13.2236 21.627 12.4052C21.4637 11.7212 21.1454 11.0294 20.7817 10.5686L20.5189 10.2355L20.6284 9.80413C20.7863 9.18204 20.7718 8.10361 20.5966 7.43878C20.3555 6.52396 20.0029 5.91432 19.3073 5.20978C18.6197 4.51317 18.071 4.15475 17.2967 3.89631C16.6797 3.6904 15.8449 3.60119 15.2063 3.67287L14.7201 3.72754L14.3578 3.41469C13.8822 3.00411 13.3912 2.69868 12.8369 2.4686C12.3943 2.28481 12.3629 2.28133 11.0349 2.26579L9.68339 2.25L9.13634 2.46067ZM11.8716 3.60744C12.4131 3.74417 13.3124 4.21876 13.2116 4.31468C13.1825 4.34227 12.2899 4.86251 11.228 5.47073C10.1661 6.0789 9.21763 6.6527 9.12025 6.74572L8.94327 6.91494L8.93689 9.23974C8.93335 10.5184 8.91167 11.8025 8.88863 12.0933L8.84673 12.622L8.09238 12.19L7.3381 11.7579L7.33617 9.17676C7.33411 6.34391 7.35059 6.18526 7.72503 5.43657C8.15809 4.57048 9.16105 3.80006 10.1017 3.61105C10.2964 3.57192 10.5136 3.52673 10.5844 3.51061C10.7649 3.46955 11.5633 3.52963 11.8716 3.60744ZM16.5959 5.12062C17.2108 5.2658 17.7317 5.57394 18.2909 6.12331C18.8302 6.65315 19.1553 7.22979 19.2977 7.90931C19.3814 8.30848 19.3938 9.21157 19.3156 9.21157C19.2692 9.21157 16.9494 7.88636 15.6054 7.09203C15.3582 6.94588 15.0843 6.82637 14.9969 6.82637C14.9095 6.82637 14.4457 7.05528 13.9662 7.33506C13.4867 7.61484 12.4428 8.21417 11.6463 8.6669C10.8499 9.11964 10.1323 9.53273 10.0517 9.58501L9.9051 9.67997L9.92299 8.72731L9.94082 7.77465L11.5176 6.87149C13.9841 5.45861 14.421 5.22609 14.7999 5.12462C15.2633 5.00053 16.0794 4.99866 16.5959 5.12062ZM5.98278 9.51952C5.98278 11.5651 5.99803 11.9767 6.07803 12.0911C6.13042 12.166 6.68789 12.5187 7.31693 12.8749C8.44423 13.5132 10.6859 14.8194 10.874 14.9477C10.9598 15.0061 10.9598 15.0209 10.874 15.0807C10.5886 15.2797 9.47937 15.9133 9.4143 15.9145C9.37247 15.9153 8.98149 15.7045 8.54547 15.4462C8.10937 15.1878 7.14445 14.6311 6.40111 14.2091C4.83765 13.3215 4.41263 12.955 4.02004 12.1557C3.28765 10.6649 3.54128 9.06182 4.69008 7.92085C5.1021 7.51163 5.7202 7.09731 5.93451 7.08661C5.96109 7.08532 5.98278 8.18013 5.98278 9.51952ZM15.1593 8.42387C15.4395 8.59335 16.4053 9.15174 17.3056 9.66482C19.0835 10.678 19.4827 10.9906 19.8747 11.6769C20.3231 12.462 20.4975 13.4276 20.3394 14.2515C20.2265 14.8403 19.8178 15.6477 19.4091 16.0897C19.0855 16.4395 18.3483 16.9474 18.1641 16.9474C18.0993 16.9474 18.0821 16.4556 18.0821 14.5912C18.0821 12.6464 18.0657 12.2031 17.9877 12.0522C17.9227 11.9261 17.6573 11.7346 17.135 11.4365C15.4627 10.4824 13.0623 9.0602 13.0632 9.02417C13.0645 8.97569 14.4862 8.12985 14.5801 8.12172C14.6185 8.11837 14.8792 8.25433 15.1593 8.42387ZM13.4001 10.3923L14.0919 10.785V12.0209V13.2567L13.0591 13.8469C12.4911 14.1714 12.0059 14.4268 11.9811 14.4143C11.9563 14.4018 11.4798 14.1343 10.9223 13.8198L9.90864 13.2478L9.90877 12.0194L9.9089 10.791L10.9546 10.1981L12.0003 9.60532L12.3543 9.80245C12.5489 9.91082 13.0196 10.1763 13.4001 10.3923ZM16.1031 11.9795L16.6663 12.3109V14.8938C16.6663 17.041 16.6491 17.5435 16.5643 17.8728C16.2468 19.1062 15.1584 20.1593 13.8922 20.4583C12.8822 20.6968 11.7461 20.4822 10.9175 19.8966L10.7356 19.7682L11.0462 19.5873C11.217 19.4878 12.1387 18.9572 13.0944 18.4081C14.0737 17.8456 14.8882 17.3351 14.9608 17.2384C15.0842 17.074 15.0903 16.9514 15.1082 14.2315L15.1268 11.396L15.3334 11.5221C15.447 11.5914 15.7934 11.7973 16.1031 11.9795ZM14.0905 15.3519L14.089 16.2705L12.9482 16.9098C12.3206 17.2614 11.4162 17.782 10.9384 18.0666C9.63332 18.8439 9.3186 18.9618 8.45524 18.9968C7.28932 19.044 6.54566 18.7504 5.70816 17.9123C4.95697 17.1605 4.63126 16.3685 4.63126 15.2934C4.63126 14.9297 4.65166 14.8143 4.7117 14.8379C4.75592 14.8553 5.55963 15.312 6.49765 15.8527C7.43567 16.3935 8.34795 16.9184 8.52494 17.0194C8.70192 17.1203 8.92853 17.2034 9.02848 17.2041C9.14278 17.2048 9.59625 16.98 10.2513 16.598C12.1493 15.491 13.9947 14.4391 14.0437 14.4361C14.0702 14.4345 14.0913 14.8466 14.0905 15.3519Z" fill="black" fill-opacity="0.9"/>
</svg>
