<svg xmlns="http://www.w3.org/2000/svg" fill="none" viewBox="0 0 65 64">
  <path fill="current" d="M8.88 30v-7.27h2.46c.57 0 1.03.1 1.4.29.36.19.63.45.8.79.18.34.27.72.27 1.15 0 .43-.09.8-.26 1.14-.18.33-.45.59-.8.78-.37.19-.83.28-1.4.28H9.36v-.8h1.96c.4 0 .7-.05.94-.17.24-.11.41-.27.52-.48.1-.21.16-.46.16-.75 0-.3-.05-.55-.16-.77a1.1 1.1 0 0 0-.52-.5 2.11 2.11 0 0 0-.95-.18H9.76V30h-.88Zm3.42-3.27L14.1 30h-1.03l-1.76-3.27h1ZM15.58 30h-.93l2.67-7.27h.91L20.9 30h-.92l-2.17-6.12h-.06L15.58 30Zm.34-2.84h3.72v.78h-3.72v-.78Zm6.12-4.43h1.05l2.47 6.03h.08l2.47-6.03h1.06V30h-.83v-5.53h-.07L26 30h-.8l-2.27-5.53h-.07V30h-.82v-7.27ZM13.85 37a2.57 2.57 0 0 0-.3-.64 1.98 1.98 0 0 0-1.77-.9 2.16 2.16 0 0 0-2.02 1.3c-.2.44-.31.97-.31 1.6 0 .63.1 1.16.31 1.6.22.43.5.76.86.98a2.33 2.33 0 0 0 2.32.07c.32-.18.56-.43.74-.76.18-.33.27-.72.27-1.16l.27.05h-2.19v-.78h2.77v.78c0 .6-.12 1.12-.38 1.57-.25.44-.6.78-1.05 1.03a3.2 3.2 0 0 1-1.53.36A3 3 0 0 1 9 40.35a4.53 4.53 0 0 1-.4-1.99c0-.57.07-1.09.23-1.55.15-.46.37-.85.66-1.18a2.89 2.89 0 0 1 2.29-1 3.23 3.23 0 0 1 1.96.66A2.77 2.77 0 0 1 14.76 37h-.9Zm2.46 5v-7.27h2.46c.57 0 1.04.1 1.4.3a2 2 0 0 1 .8.83c.18.35.27.74.27 1.17 0 .43-.09.82-.26 1.17s-.44.63-.8.83a2.8 2.8 0 0 1-1.4.31h-1.76v-.78h1.74c.39 0 .7-.07.94-.2.23-.13.4-.32.51-.55.11-.23.16-.49.16-.78 0-.3-.05-.55-.16-.78-.1-.23-.28-.41-.52-.54-.24-.14-.55-.2-.95-.2H17.2V42h-.88Zm11.12-7.27h.88v4.81a2.46 2.46 0 0 1-1.34 2.25c-.42.23-.91.34-1.48.34s-1.07-.11-1.5-.34a2.49 2.49 0 0 1-.98-.92 2.56 2.56 0 0 1-.35-1.33v-4.81h.88v4.74c0 .36.08.67.23.95.16.27.38.5.67.65.3.16.64.23 1.05.23.4 0 .75-.07 1.04-.23.3-.16.51-.38.67-.65a2 2 0 0 0 .23-.95v-4.74Z"/>
  <rect width="20.5" height="4.5" x="34.75" y="24.75" fill="current" rx="2.25"/>
  <rect width="20.5" height="4.5" x="34.75" y="24.75" stroke="current" stroke-width=".5" rx="2.25"/>
  <rect width="13.44" height="4" x="35" y="25" fill="#fff" rx="2"/>
  <rect width="20.5" height="4.5" x="34.75" y="34.75" fill="current" rx="2.25"/>
  <rect width="20.5" height="4.5" x="34.75" y="34.75" stroke="current" stroke-width=".5" rx="2.25"/>
  <rect width="5.56" height="4" x="35" y="35" fill="#fff" rx="2"/>
</svg>
