<svg xmlns="http://www.w3.org/2000/svg" fill="none" viewBox="0 0 24 24">
  <rect width="24" height="23.31" fill="#1F35FF" rx="11.65"/>
  <path fill="#FC0" d="M12.35 21.15a9.75 9.75 0 0 0 9.57-9.72A9.5 9.5 0 0 0 12.35 2a9.68 9.68 0 0 0-8.92 6.23v6.94a9.58 9.58 0 0 0 8.92 5.98Z"/>
  <path fill="#2F2F3D" d="M3 8.07c0-1.57 0-2.36.31-2.96.26-.5.68-.92 1.18-1.18.6-.31 1.4-.31 2.97-.31h4.24c1.57 0 2.36 0 2.96.3.5.27.92.68 1.18 1.19.31.6.31 1.39.31 2.96v7.14c0 2.1 0 3.15-.41 3.95a3.7 3.7 0 0 1-1.58 1.58c-.8.41-1.85.41-3.95.41H8.08"/>
  <circle cx="9.81" cy="8.12" r="5.88" fill="#F9FAFC"/>
  <path fill="#FC0" d="M12.23 17.23a3.9 3.9 0 0 1-3.8 3.92 3.8 3.8 0 0 1-3.81-3.8 3.9 3.9 0 0 1 3.8-3.93 3.8 3.8 0 0 1 3.81 3.81Z"/>
  <path stroke="#000" stroke-width=".42" d="M7.85 15.62c1.21.9 1.87.88 3 0"/>
  <path stroke="#FC0" stroke-width=".46" d="M3.92 10.08c-1.24 1.5-1.22 2.3 0 3.69"/>
  <path stroke="#F9FAFC" stroke-width=".42" d="M11.08 15.62c1.21.9 1.87.88 3 0"/>
  <path stroke="#1F35FF" stroke-width=".42" d="M6.7 9.27v-.8h3.1v.8"/>
  <path stroke="#1F35FF" stroke-width=".23" d="m15.23 9.85-.7.57.7.58"/>
  <path stroke="#FC0" stroke-width=".35" d="M9.92 6.27h1.39m-1.39.7h1.39"/>
  <path stroke="#2F2F3D" stroke-width=".28" d="M7.27 10.2c.81-.7 1.26-.7 2.08 0m2.88 0c.81-.7 1.27-.7 2.08 0"/>
  <path fill="#2F2F3D" d="M8.6 10.2a.29.29 0 1 1-.58 0 .29.29 0 0 1 .58 0Z"/>
  <path fill="#FC0" d="M15.23 12.94c0 .82-.67 1.52-1.5 1.52s-1.5-.66-1.5-1.48c0-.81.67-1.52 1.5-1.52s1.5.66 1.5 1.48Z"/>
  <path stroke="#1F35FF" stroke-width=".42" d="M9 13.08c0 .46.2.69.6.69h.61c.4 0 .4.46.4.46m1.62-1.15c0 .46-.2.69-.6.69h-.61c-.4 0-.4.46-.4.46"/>
  <path fill="#2F2F3D" d="m12.2 8.7 3-1.4v.47l-3 1.38V8.7ZM8.6 2.29a.29.29 0 1 1-.58 0 .29.29 0 0 1 .58 0Zm.86.29a.38.38 0 0 1-.33-.23c-.07-.14-.01-.35.22-.47.69-.34 1.13.48 1.03 1.04h-.23s.12-.57-.46-.46c-.06.01-.11.12-.23.12Z"/>
</svg>
