<svg width="24" height="24" viewBox="0 0 24 24" fill="none" xmlns="http://www.w3.org/2000/svg">
<path fill-rule="evenodd" clip-rule="evenodd" d="M15.0861 9.97467C15.0782 9.9833 15.0702 9.99176 15.0619 10L10.0019 15.06L9.98634 15.0752L2.53141 22.5301C2.38141 22.6801 2.19141 22.7501 2.00141 22.7501C1.81141 22.7501 1.62141 22.6801 1.47141 22.5301C1.18141 22.2401 1.18141 21.7601 1.47141 21.4701L4.84484 18.0967C3.88171 17.2309 3.013 16.191 2.2618 15.0001C1.2018 13.3501 1.2018 10.6601 2.2618 9.0001C4.7018 5.1801 8.2518 2.9801 12.0018 2.9801C14.0908 2.9801 16.1527 3.66532 17.9821 4.9587L21.4707 1.47006C21.7607 1.18006 22.2407 1.18006 22.5307 1.47006C22.8207 1.76006 22.8207 2.24006 22.5307 2.53006L15.0861 9.97467ZM14.4858 8.45492C13.7611 7.94436 12.8998 7.67004 12.0019 7.67004C9.61187 7.67004 7.67188 9.61004 7.67188 12C7.67188 12.8981 7.9463 13.7596 8.45706 14.4844L5.90612 17.0354C5.02557 16.2442 4.22529 15.2876 3.5218 14.1901C2.7718 13.0201 2.7718 10.9801 3.5218 9.8101C5.6818 6.4201 8.7718 4.4801 12.0018 4.4801C13.6962 4.4801 15.3825 5.01378 16.9043 6.03651L14.4858 8.45492ZM12.0019 9.17004C12.5019 9.17004 12.9819 9.30004 13.4019 9.54004L9.54187 13.4C9.30188 12.98 9.17188 12.5 9.17188 12C9.17188 10.44 10.4419 9.17004 12.0019 9.17004Z" fill="#8D96B5"/>
<path d="M12.0006 21.0201C10.6706 21.0201 9.37055 20.7501 8.12055 20.2201C7.74055 20.0601 7.56055 19.6201 7.72055 19.2401C7.88055 18.8601 8.32055 18.6801 8.70055 18.8401C9.76055 19.2901 10.8706 19.5201 11.9906 19.5201C15.2206 19.5201 18.3106 17.5801 20.4706 14.1901C21.2206 13.0201 21.2206 10.9801 20.4706 9.81012C20.1606 9.32012 19.8206 8.85012 19.4606 8.41012C19.2006 8.09012 19.2506 7.62012 19.5706 7.35012C19.8906 7.09012 20.3605 7.13012 20.6306 7.46012C21.0205 7.94012 21.4006 8.46012 21.7406 9.00012C22.8006 10.6501 22.8006 13.3401 21.7406 15.0001C19.3006 18.8201 15.7506 21.0201 12.0006 21.0201Z" fill="#8D96B5"/>
<path d="M11.9515 15.6601C12.0215 16.0201 12.3415 16.2701 12.6915 16.2701C12.7086 16.2701 12.7245 16.2689 12.74 16.2678C12.77 16.2656 12.7986 16.2635 12.8315 16.2701C14.5515 15.9501 15.9315 14.5801 16.2515 12.8501C16.3315 12.4401 16.0615 12.0501 15.6515 11.9701C15.2415 11.9001 14.8515 12.1601 14.7715 12.5701C14.5715 13.6701 13.6515 14.5901 12.5515 14.7901C12.1415 14.8601 11.8715 15.2501 11.9515 15.6601Z" fill="#8D96B5"/>
</svg>
