<svg width="24" height="24" viewBox="0 0 24 24" fill="none" xmlns="http://www.w3.org/2000/svg">
<g clip-path="url(#clip0_2708_22227)">
<path d="M18.3978 18.6806C18.0987 18.9672 18.0885 19.4419 18.375 19.741C18.6616 20.0402 19.1363 20.0504 19.4355 19.7638L18.3978 18.6806ZM4.56455 19.7638C4.86366 20.0504 5.33843 20.0402 5.62496 19.741C5.9115 19.4419 5.9013 18.9672 5.60219 18.6806L4.56455 19.7638ZM6.5 12L5.75 12L6.5 12ZM17.5 12L16.75 12L17.5 12ZM5.9518 14.8572C6.01357 15.2668 6.39567 15.5488 6.80525 15.487C7.21484 15.4252 7.4968 15.0431 7.43503 14.6336L5.9518 14.8572ZM16.565 14.6336C16.5032 15.0431 16.7852 15.4252 17.1947 15.487C17.6043 15.5488 17.9864 15.2668 18.0482 14.8572L16.565 14.6336ZM21.25 12C21.25 14.6263 20.1565 16.9959 18.3978 18.6806L19.4355 19.7638C21.4772 17.808 22.75 15.052 22.75 12L21.25 12ZM5.60219 18.6806C3.84355 16.9959 2.75 14.6263 2.75 12L1.25 12C1.25 15.052 2.52282 17.808 4.56455 19.7638L5.60219 18.6806ZM18.3978 4.23618C16.7357 5.82842 14.4827 6.80556 12 6.80556L12 8.30556C14.8847 8.30556 17.5053 7.16836 19.4355 5.31937L18.3978 4.23618ZM12 2.75C14.4827 2.75 16.7357 3.72714 18.3978 5.31937L19.4355 4.23618C17.5053 2.3872 14.8847 1.25 12 1.25L12 2.75ZM18.3978 5.31937C20.1565 7.00406 21.25 9.37369 21.25 12L22.75 12C22.75 8.94802 21.4772 6.19205 19.4355 4.23618L18.3978 5.31937ZM12 6.80556C9.51726 6.80556 7.26432 5.82842 5.60219 4.23618L4.56455 5.31937C6.4947 7.16836 9.11534 8.30556 12 8.30556L12 6.80556ZM2.75 12C2.75 9.37369 3.84355 7.00405 5.60219 5.31937L4.56455 4.23618C2.52282 6.19205 1.25 8.94801 1.25 12L2.75 12ZM5.60219 5.31937C7.26433 3.72714 9.51726 2.75 12 2.75L12 1.25C9.11534 1.25 6.4947 2.3872 4.56455 4.23618L5.60219 5.31937ZM12.754 11.9997L12.75 1.9997L11.25 2.0003L11.254 12.0003L12.754 11.9997ZM12 2C11.8658 1.2621 11.8652 1.26221 11.8646 1.26232C11.8644 1.26236 11.8638 1.26248 11.8633 1.26256C11.8624 1.26274 11.8613 1.26293 11.8602 1.26313C11.858 1.26355 11.8555 1.26404 11.8526 1.2646C11.8468 1.26572 11.8397 1.26714 11.8313 1.26889C11.8145 1.27239 11.7926 1.27719 11.7657 1.28354C11.712 1.29622 11.6389 1.31508 11.549 1.34192C11.3694 1.39557 11.1223 1.48138 10.8303 1.6141C10.2461 1.87965 9.48032 2.33402 8.71967 3.09467C7.18178 4.63256 5.75 7.33491 5.75 12L7.25 12C7.25 7.66509 8.56822 5.36744 9.78033 4.15533C10.3947 3.54098 11.0039 3.18285 11.451 2.97965C11.6746 2.87799 11.8572 2.81537 11.9783 2.77917C12.0389 2.76109 12.0839 2.74967 12.1108 2.74332C12.1242 2.74014 12.1331 2.73823 12.1371 2.7374C12.1391 2.73698 12.1399 2.73683 12.1394 2.73692C12.1392 2.73697 12.1386 2.73707 12.1378 2.73724C12.1373 2.73732 12.1368 2.73742 12.1362 2.73753C12.1359 2.73758 12.1354 2.73768 12.1352 2.7377C12.1347 2.7378 12.1342 2.7379 12 2ZM12 2C11.8658 2.7379 11.8653 2.7378 11.8648 2.7377C11.8646 2.73768 11.8641 2.73758 11.8638 2.73753C11.8632 2.73742 11.8627 2.73732 11.8622 2.73724C11.8614 2.73707 11.8608 2.73697 11.8606 2.73692C11.8601 2.73683 11.8609 2.73698 11.8629 2.7374C11.8669 2.73823 11.8758 2.74014 11.8892 2.74332C11.9161 2.74967 11.9611 2.76109 12.0217 2.77917C12.1428 2.81537 12.3254 2.87799 12.549 2.97965C12.9961 3.18285 13.6053 3.54098 14.2197 4.15533C15.4318 5.36744 16.75 7.66509 16.75 12L18.25 12C18.25 7.33491 16.8182 4.63256 15.2803 3.09467C14.5197 2.33402 13.7539 1.87965 13.1697 1.6141C12.8777 1.48138 12.6306 1.39557 12.451 1.34192C12.3611 1.31508 12.288 1.29622 12.2343 1.28354C12.2074 1.27719 12.1855 1.27239 12.1687 1.26889C12.1603 1.26714 12.1532 1.26572 12.1474 1.2646C12.1445 1.26404 12.142 1.26355 12.1398 1.26313C12.1387 1.26293 12.1376 1.26274 12.1367 1.26256C12.1362 1.26248 12.1356 1.26236 12.1354 1.26232C12.1348 1.26221 12.1342 1.2621 12 2ZM5.75 12C5.75 13.0475 5.82207 13.9969 5.9518 14.8572L7.43503 14.6336C7.31734 13.8531 7.25 12.9788 7.25 12L5.75 12ZM16.75 12C16.75 12.9788 16.6827 13.8531 16.565 14.6336L18.0482 14.8572C18.1779 13.9969 18.25 13.0475 18.25 12L16.75 12ZM22 11.25L12 11.25L12 12.75L22 12.75L22 11.25ZM12 11.25L2 11.25L2 12.75L12 12.75L12 11.25Z" fill="#8D96B5"/>
<path d="M19 18C19 21.866 15.866 25 12 25C8.13401 25 5 21.866 5 18C5 14.134 8.13401 11 12 11C15.866 11 19 14.134 19 18Z" fill="white"/>
<path d="M8.88118 17.118L11.9993 13.9998M11.9993 13.9998L15.1175 17.118M11.9993 13.9998V22.3149" stroke="#8D96B5" stroke-width="1.5" stroke-linecap="round" stroke-linejoin="round"/>
</g>
<defs>
<clipPath id="clip0_2708_22227">
<rect width="24" height="24" fill="white" transform="translate(24) rotate(90)"/>
</clipPath>
</defs>
</svg>
