<svg xmlns="http://www.w3.org/2000/svg" fill="none" viewBox="0 0 24 24">
  <path fill="current" fill-rule="evenodd" d="M14.8 21.07c-.53.45-1.26.68-2.18.68-.93 0-1.66-.23-2.19-.68a2.53 2.53 0 0 1-.84-1.54 3.85 3.85 0 0 1-.03-.97H6.48v-3.03c-.3.02-.63.03-.99-.03a2.57 2.57 0 0 1-1.55-.83 3.2 3.2 0 0 1-.69-2.17c0-.92.24-1.65.69-2.17a2.57 2.57 0 0 1 1.55-.83c.36-.06.7-.05 1-.03V6.44h3.07c-.03-.29-.03-.63.03-.97.08-.52.32-1.1.84-1.54a3.28 3.28 0 0 1 2.19-.68c.92 0 1.65.23 2.18.68.52.44.76 1.02.84 1.54.06.34.06.68.03.97h3.08v4.97l-.98-.32h-.02a2.41 2.41 0 0 0-.38-.1 2.76 2.76 0 0 0-.86 0c-.3.04-.51.15-.67.33-.15.17-.32.5-.32 1.18 0 .67.17 1 .32 1.18.16.18.38.29.67.34a2.76 2.76 0 0 0 1.24-.1h.02l.98-.33v4.97h-3.08c.03.29.03.63-.03.97-.08.52-.32 1.1-.84 1.54Zm-.74-3.02-.34-.99h3.53v-1.53c-.3.02-.64.03-.99-.03a2.57 2.57 0 0 1-1.55-.83 3.2 3.2 0 0 1-.7-2.17c0-.92.24-1.65.7-2.17a2.57 2.57 0 0 1 1.55-.83c.35-.06.7-.05.99-.03V7.94h-3.53l.34-.99v-.02a2 2 0 0 0 .09-.37c.04-.25.06-.56.01-.84a1 1 0 0 0-.33-.65c-.18-.15-.53-.32-1.21-.32-.7 0-1.04.17-1.22.32a1 1 0 0 0-.33.65 2.62 2.62 0 0 0 .1 1.21v.02l.34.99H7.98v3.47L7 11.1h-.02a2.5 2.5 0 0 0-.38-.1 2.76 2.76 0 0 0-.86 0c-.3.04-.51.15-.67.33-.15.17-.32.5-.32 1.18 0 .67.17 1 .32 1.18.16.18.38.29.67.34a2.76 2.76 0 0 0 1.24-.1H7l.98-.33v3.47h3.53l-.34.99v.02a2.26 2.26 0 0 0-.09.37c-.04.25-.06.56-.01.84a1 1 0 0 0 .33.65c.18.15.53.32 1.22.32.68 0 1.03-.17 1.21-.32a1 1 0 0 0 .33-.65 2.62 2.62 0 0 0-.1-1.21v-.02Z" clip-rule="evenodd"/>
</svg>
