<svg xmlns="http://www.w3.org/2000/svg" fill="none" viewBox="0 0 24 24"><path fill="#FF9500" fill-rule="evenodd" d="M1.25 10.88c0-4.76 3.8-8.63 8.53-8.63h1.1a7.43 7.43 0 0 1 7.13 5.4 8.63 8.63 0 0 1 4.74 7.72v3.38c0 1.65-1.32 3-2.97 3H13.1a7.42 7.42 0 0 1-6.8-4.5H4.22a2.99 2.99 0 0 1-2.97-3v-3.38Zm6.74 6.37a5.9 5.9 0 0 0 5.12 3h6.67c.8 0 1.47-.66 1.47-1.5v-3.38c0-2.39-1.16-4.5-2.95-5.8v.18c0 4.13-3.3 7.5-7.41 7.5h-2.9Zm1.79-13.5a7.08 7.08 0 0 0-7.03 7.13v3.37c0 .84.67 1.5 1.47 1.5h6.67a5.96 5.96 0 0 0 5.75-7.4 5.94 5.94 0 0 0-5.75-4.6H9.78Zm.22 3c-.69 0-1.25.56-1.25 1.25a.75.75 0 0 1-1.5 0A2.75 2.75 0 1 1 10 10.75a.75.75 0 0 1 0-1.5 1.25 1.25 0 1 0 0-2.5Z" clip-rule="evenodd"/><path fill="#FF9500" d="M11 13a1 1 0 1 1-2 0 1 1 0 0 1 2 0Z"/></svg>