<svg width="24" height="24" viewBox="0 0 24 24" fill="none" xmlns="http://www.w3.org/2000/svg">
<path fill-rule="evenodd" clip-rule="evenodd" d="M9.46614 6.38254C9.0599 6.775 8.76497 7.32441 8.64215 8.04445C8.56884 8.47426 8.22549 8.83051 7.78947 8.83051C7.35346 8.83051 6.9936 8.47557 7.04808 8.04297C7.18528 6.95339 7.61671 6.012 8.34965 5.3039C9.25398 4.43023 10.5259 4 12 4C13.4741 4 14.746 4.43023 15.6503 5.3039C16.5547 6.17757 17 7.40639 17 8.83051C17 10.9954 15.6673 12.0843 14.5789 12.8729C14.4791 12.9452 14.3833 13.0138 14.2913 13.0797C13.8584 13.3896 13.5113 13.6381 13.238 13.9241C13.1532 14.0128 13.0803 14.1007 13.0194 14.1901C12.774 14.5505 12.436 14.9322 12 14.9322C11.564 14.9322 11.1972 14.5715 11.3188 14.1528C11.4645 13.6512 11.7441 13.2387 12.0778 12.8894C12.4622 12.4872 12.9555 12.1355 13.3895 11.826C13.4728 11.7667 13.5539 11.7089 13.6316 11.6525C14.6485 10.9157 15.4211 10.2249 15.4211 8.83051C15.4211 7.71225 15.0769 6.90718 14.5339 6.38254C13.9908 5.8579 13.1575 5.52542 12 5.52542C10.8425 5.52542 10.0092 5.8579 9.46614 6.38254Z" fill="black" fill-opacity="0.9"/>
<path d="M13.0526 17.9831C13.0526 18.5447 12.5814 19 12 19C11.4186 19 10.9474 18.5447 10.9474 17.9831C10.9474 17.4214 11.4186 16.9661 12 16.9661C12.5814 16.9661 13.0526 17.4214 13.0526 17.9831Z" fill="black" fill-opacity="0.9"/>
</svg>
