<svg width="24" height="24" viewBox="0 0 24 24" fill="none" xmlns="http://www.w3.org/2000/svg">
<path d="M10.7509 2.44995C11.4509 1.85995 12.5809 1.85995 13.2609 2.44995L14.8409 3.79995C15.1409 4.04995 15.7109 4.25995 16.1109 4.25995H17.8109C18.8709 4.25995 19.7409 5.12995 19.7409 6.18995V7.88995C19.7409 8.28995 19.9509 8.84995 20.2009 9.14995L21.5509 10.7299C22.1409 11.4299 22.1409 12.5599 21.5509 13.2399L20.2009 14.8199C19.9509 15.1199 19.7409 15.6799 19.7409 16.0799V17.7799C19.7409 18.8399 18.8709 19.7099 17.8109 19.7099H16.1109C15.7109 19.7099 15.1509 19.9199 14.8509 20.1699L13.2709 21.5199C12.5709 22.1099 11.4409 22.1099 10.7609 21.5199L9.18086 20.1699C8.88086 19.9199 8.31086 19.7099 7.92086 19.7099H6.17086C5.11086 19.7099 4.24086 18.8399 4.24086 17.7799V16.0699C4.24086 15.6799 4.04086 15.1099 3.79086 14.8199L2.44086 13.2299C1.86086 12.5399 1.86086 11.4199 2.44086 10.7299L3.79086 9.13995C4.04086 8.83995 4.24086 8.27995 4.24086 7.88995V6.19995C4.24086 5.13995 5.11086 4.26995 6.17086 4.26995H7.90086C8.30086 4.26995 8.86086 4.05995 9.16086 3.80995L10.7509 2.44995Z" stroke="#8D96B5" stroke-width="1.5" stroke-linecap="round" stroke-linejoin="round"/>
<path d="M12 8.13V12.96" stroke="#8D96B5" stroke-width="1.5" stroke-linecap="round" stroke-linejoin="round"/>
<path d="M11.9941 16H12.0031" stroke="#8D96B5" stroke-width="1.8" stroke-linecap="round" stroke-linejoin="round"/>
</svg>
