<svg xmlns="http://www.w3.org/2000/svg" fill="none" viewBox="0 0 24 24">
  <path fill="#8D96B5" fill-rule="evenodd" d="M14.31 4.71c.88-.11 1.74.26 2.58 1.04.83.8 1.25 1.63 1.19 2.52a3.46 3.46 0 0 1-1.06 2.08l-.9.94a.75.75 0 0 1-.64.25 4.84 4.84 0 0 1-3.89-2.73l-3.68 3.9c-.03.03-.09.12-.15.25a1.2 1.2 0 0 0-.1.28l-.24 2.15c-.02.19.04.27.07.3.03.03.12.09.3.06l2.15-.37c.05 0 .15-.04.27-.1.12-.07.2-.14.23-.17l2.64-2.8a.75.75 0 0 1 1.1 1.04l-2.64 2.78a2.52 2.52 0 0 1-1.34.73l-2.15.37c-.59.1-1.17-.05-1.6-.45-.41-.4-.59-.97-.52-1.56l.25-2.17a2.57 2.57 0 0 1 .64-1.37l4.54-4.81a.8.8 0 0 1 .04-.04l.9-.95a3.46 3.46 0 0 1 2.01-1.17ZM12.74 7.6a3.33 3.33 0 0 0 2.54 2.4l.65-.68c.43-.46.63-.83.65-1.16.02-.28-.08-.71-.72-1.31-.64-.6-1.07-.69-1.36-.65-.32.04-.68.26-1.12.72l-.64.68ZM5.25 18.67c0-.42.34-.75.75-.75h7.33a.75.75 0 0 1 0 1.5H6a.75.75 0 0 1-.75-.75Zm10 0c0-.42.34-.75.75-.75h2a.75.75 0 0 1 0 1.5h-2a.75.75 0 0 1-.75-.75Z" clip-rule="evenodd"/>
</svg>
