<svg xmlns="http://www.w3.org/2000/svg" fill="none" viewBox="0 0 24 24">
  <path fill="#000" fill-opacity=".9" d="M11 6v.75c.41 0 .75-.34.75-.75H11Zm.75-3.5a.75.75 0 0 0-1.5 0h1.5ZM8 5.25a.75.75 0 0 0 0 1.5v-1.5Zm2.3 5.17a.75.75 0 1 0-1.05-1.08l1.04 1.08Zm3.59-7.17a.75.75 0 0 0 0 1.5v-1.5ZM6.73 13.69a.75.75 0 0 0-1.46.35l1.46-.35ZM7 10.25A3.25 3.25 0 0 1 3.75 7h-1.5A4.75 4.75 0 0 0 7 11.75v-1.5ZM3.75 7c0-1.8 1.46-3.25 3.25-3.25v-1.5A4.75 4.75 0 0 0 2.25 7h1.5ZM7 3.75a3.4 3.4 0 0 1 3.27 2.44l1.46-.38A4.9 4.9 0 0 0 7 2.25v1.5ZM11.75 6V2.5h-1.5V6h1.5ZM11 5.25H8v1.5h3v-1.5Zm-1.75 4.1c-.58.56-1.38.9-2.25.9v1.5c1.28 0 2.44-.5 3.3-1.33L9.24 9.34Zm4.64 11.4A8.8 8.8 0 0 0 22.75 12h-1.5c0 4-3.29 7.25-7.36 7.25v1.5ZM22.75 12a8.8 8.8 0 0 0-8.86-8.75v1.5A7.3 7.3 0 0 1 21.25 12h1.5ZM5.27 14.04a8.84 8.84 0 0 0 8.62 6.71v-1.5a7.34 7.34 0 0 1-7.16-5.56l-1.46.35Z"/>
</svg>
