<svg xmlns="http://www.w3.org/2000/svg" fill="none" viewBox="0 0 24 25">
  <path fill="#000" fill-opacity=".9" d="m17.89 18.2.44-.6a.75.75 0 0 0-.44-.14v.75ZM21 20.5l-.45.6a.75.75 0 0 0 1.2-.6H21ZM15 6.75a.75.75 0 0 0 0 1.5v-1.5ZM7.75 15.5a.75.75 0 0 0-1.5 0h1.5Zm-1.5.41c0 .89.23 1.68.8 2.26.59.57 1.4.79 2.28.79v-1.5c-.66 0-1.02-.17-1.22-.36-.2-.2-.36-.54-.36-1.19h-1.5Zm3.08 3.05h8.55v-1.5H9.34v1.5Zm8.11-.15 3.11 2.3.9-1.21-3.12-2.3-.89 1.2Zm4.31 1.69V10h-1.5v10.5h1.5Zm0-10.5c0-.95-.2-1.8-.77-2.41-.58-.62-1.4-.84-2.31-.84v1.5c.69 0 1.03.17 1.22.36.2.21.36.6.36 1.39h1.5Zm-3.08-3.25H15v1.5h3.67v-1.5ZM6.25 15.5v.42h1.5v-.42h-1.5Zm4.75-9v.75c.41 0 .75-.34.75-.75H11Zm.75-3.5a.75.75 0 0 0-1.5 0h1.5ZM8 5.75a.75.75 0 0 0 0 1.5v-1.5Zm2.3 5.17a.75.75 0 1 0-1.05-1.08l1.04 1.08ZM7 10.75A3.25 3.25 0 0 1 3.75 7.5h-1.5A4.75 4.75 0 0 0 7 12.25v-1.5ZM3.75 7.5c0-1.8 1.46-3.25 3.25-3.25v-1.5A4.75 4.75 0 0 0 2.25 7.5h1.5ZM7 4.25a3.4 3.4 0 0 1 3.27 2.44l1.46-.38A4.9 4.9 0 0 0 7 2.75v1.5Zm4.75 2.25V3h-1.5v3.5h1.5ZM11 5.75H8v1.5h3v-1.5Zm-1.75 4.1c-.58.56-1.38.9-2.25.9v1.5c1.28 0 2.44-.5 3.3-1.33L9.24 9.84Z"/>
</svg>
