<svg xmlns="http://www.w3.org/2000/svg" fill="none" viewBox="0 0 24 24"><path fill="#0C9" fill-rule="evenodd" d="M3.25 7.2A3.95 3.95 0 0 1 7.2 3.25h1.6a.75.75 0 0 1 0 1.5H7.2A2.45 2.45 0 0 0 4.75 7.2v1.6a.75.75 0 0 1-1.5 0V7.2ZM14.45 4c0-.41.34-.75.75-.75h1.6a3.95 3.95 0 0 1 3.95 3.95v1.6a.75.75 0 0 1-1.5 0V7.2c0-1.35-1.1-2.45-2.45-2.45h-1.6a.75.75 0 0 1-.75-.75ZM12 8.75a3.25 3.25 0 1 0 0 6.5 3.25 3.25 0 0 0 0-6.5ZM7.25 12a4.75 4.75 0 1 1 9.5 0 4.75 4.75 0 0 1-9.5 0ZM4 14.45c.41 0 .75.34.75.75v1.6c0 1.35 1.1 2.45 2.45 2.45h1.6a.75.75 0 0 1 0 1.5H7.2a3.95 3.95 0 0 1-3.95-3.95v-1.6c0-.41.34-.75.75-.75Zm16 0c.41 0 .75.34.75.75v1.6a3.95 3.95 0 0 1-3.95 3.95h-1.6a.75.75 0 0 1 0-1.5h1.6c1.35 0 2.45-1.1 2.45-2.45v-1.6c0-.41.34-.75.75-.75Z" clip-rule="evenodd"/></svg>