<svg xmlns="http://www.w3.org/2000/svg" fill="none" viewBox="0 0 22 22"><path fill="#8D96B5" fill-rule="evenodd" d="M11 1.75A9.23 9.23 0 0 0 1.75 11a.75.75 0 0 1-1.5 0C.25 5.07 5.02.25 11 .25c3.56 0 6.22 1.49 7.98 2.95.5.41.92.82 1.27 1.2V1.56a.75.75 0 0 1 1.5 0v5c0 .41-.34.75-.75.75h-4.44a.75.75 0 0 1 0-1.5h2.94c-.37-.43-.87-.94-1.48-1.45A10.82 10.82 0 0 0 11 1.75Zm10 8.5c.41 0 .75.34.75.75 0 5.93-4.82 10.75-10.75 10.75-3.02 0-5.42-1.52-7.02-2.97-.42-.39-.8-.78-1.12-1.13v2.79a.75.75 0 0 1-1.5 0v-5c0-.41.34-.75.75-.75h4.52a.75.75 0 0 1 0 1.5H3.59c.36.44.83.96 1.4 1.47C6.45 19 8.5 20.25 11 20.25c5.1 0 9.25-4.14 9.25-9.25 0-.41.34-.75.75-.75Z" clip-rule="evenodd"/></svg>