<svg width="24" height="24" viewBox="0 0 24 24" fill="none" xmlns="http://www.w3.org/2000/svg">
<path d="M6 2H3C2.44772 2 2 2.44772 2 3V21C2 21.5523 2.44772 22 3 22H21C21.5523 22 22 21.5523 22 21V8.41421C22 8.149 21.8946 7.89464 21.7071 7.70711L16.2929 2.29289C16.1054 2.10536 15.851 2 15.5858 2H13M6 2V5C6 5.55228 6.44772 6 7 6H12C12.5523 6 13 5.55228 13 5V2M6 2H13M18 22V12C18 11.4477 17.5523 11 17 11H7C6.44772 11 6 11.4477 6 12V22M10 15H14M14 18H10" stroke="black" stroke-opacity="0.9" stroke-width="1.5" stroke-linecap="round"/>
</svg>
