<svg width="24" height="24" viewBox="0 0 24 24" fill="none" xmlns="http://www.w3.org/2000/svg">
<path d="M21.5 11.749C21.5007 11.1633 21.4484 10.5788 21.3438 10.0026L19.244 11.5491C19.244 11.6157 19.244 11.6823 19.244 11.749C19.246 13.4269 18.6862 15.0572 17.6539 16.3797C16.6215 17.7023 15.1761 18.6409 13.5481 19.0459C11.9202 19.4508 10.2036 19.2987 8.67209 18.6139C7.14065 17.9291 5.8826 16.7511 5.09867 15.2676C4.31473 13.7842 4.05008 12.0808 4.34694 10.4294C4.64379 8.77797 5.48504 7.27355 6.73648 6.15614C7.9879 5.03875 9.57743 4.37275 11.2515 4.26442C12.9255 4.15608 14.5876 4.61164 15.9725 5.55842L17.8679 4.1613C16.1471 2.77287 14.0056 2.01079 11.7948 2.00011C9.58392 1.98944 7.43515 2.73081 5.70107 4.10256C3.96699 5.4743 2.75061 7.39493 2.25158 9.54922C1.75254 11.7036 2.0005 13.9635 2.95474 15.9583C3.90899 17.9531 5.51283 19.5641 7.50307 20.5271C9.49328 21.49 11.7517 21.7476 13.9076 21.2576C16.0635 20.7676 17.9888 19.5592 19.3676 17.8305C20.7463 16.1019 21.4967 13.9558 21.4954 11.7444L21.5 11.749Z" fill="#1D1D1D"/>
<path d="M19.3304 6.10527C19.7843 6.68423 20.168 7.31383 20.4737 7.9812L11.7877 14.3158L8.1579 12.0642V9.35478L11.7877 11.6064L19.3304 6.10527Z" fill="#1D1D1D"/>
</svg>
