<svg xmlns="http://www.w3.org/2000/svg" fill="none" viewBox="0 0 24 24"><path fill="#C6C" fill-rule="evenodd" d="M8.38 5.25c.3-.87 1.14-1.5 2.12-1.5h3c.98 0 1.81.63 2.12 1.5h.13A3.75 3.75 0 0 1 19.5 9v7.5a3.75 3.75 0 0 1-3.75 3.75h-7.5A3.75 3.75 0 0 1 4.5 16.5V9a3.75 3.75 0 0 1 3.75-3.75h.13Zm0 1.5h-.13C7.01 6.75 6 7.75 6 9v7.5c0 1.24 1 2.25 2.25 2.25h7.5c1.24 0 2.25-1 2.25-2.25V9c0-1.24-1-2.25-2.25-2.25h-.13c-.3.87-1.14 1.5-2.12 1.5h-3c-.98 0-1.81-.63-2.12-1.5Zm2.12-1.5a.75.75 0 0 0 0 1.5h3a.75.75 0 0 0 0-1.5h-3ZM8.25 10.5c0-.41.34-.75.75-.75h6a.75.75 0 0 1 0 1.5H9a.75.75 0 0 1-.75-.75Zm0 3c0-.41.34-.75.75-.75h6a.75.75 0 0 1 0 1.5H9a.75.75 0 0 1-.75-.75Zm0 3c0-.41.34-.75.75-.75h3a.75.75 0 0 1 0 1.5H9a.75.75 0 0 1-.75-.75Z" clip-rule="evenodd"/></svg>