<svg xmlns="http://www.w3.org/2000/svg" fill="none" viewBox="0 0 24 24"><path fill="#7000FF" fill-rule="evenodd" d="M9.75 3.5a2.25 2.25 0 1 1 3 2.12V7.1a2.74 2.74 0 0 1 1.37.9c.46-.03.87-.32 1.06-.74l.27-.63A2.24 2.24 0 0 1 17 2.75a2.25 2.25 0 1 1-.18 4.5l-.27.62a2.75 2.75 0 0 1-1.82 1.54c.04.28.03.56-.02.84h.23c1.6 0 2.81 1.38 2.81 2.97v5.56c0 1.59-1.2 2.97-2.81 2.97H9.06c-1.6 0-2.81-1.38-2.81-2.97v-5.56c0-1.59 1.2-2.97 2.81-2.97h.22a2.67 2.67 0 0 1-.03-.82 2.75 2.75 0 0 1-1.8-1.41l-.4-.77H7a2.25 2.25 0 1 1 1.46-.54l.31.62c.22.4.64.67 1.1.67a2.85 2.85 0 0 1 1.38-.9V5.62a2.25 2.25 0 0 1-1.5-2.12Zm.37 8.25H9.06c-.67 0-1.31.6-1.31 1.47v5.56c0 .86.64 1.47 1.31 1.47h5.88c.67 0 1.31-.6 1.31-1.47v-5.56c0-.86-.64-1.47-1.31-1.47h-1.05a2.78 2.78 0 0 1-3.77 0Zm1.88-9a.75.75 0 1 0 0 1.5.75.75 0 0 0 0-1.5Zm-5 1.5a.75.75 0 1 0 0 1.5.75.75 0 0 0 0-1.5Zm10 0a.75.75 0 1 0 0 1.5.75.75 0 0 0 0-1.5Zm-4.04 4.7a1.25 1.25 0 0 0-1.76-.16 1.21 1.21 0 0 0-.19 1.73 1.3 1.3 0 0 0 1.8.19c.52-.45.6-1.23.15-1.76ZM8.83 15c0-.41.34-.75.75-.75h4.84a.75.75 0 0 1 0 1.5H9.58a.75.75 0 0 1-.75-.75Zm0 3c0-.41.34-.75.75-.75h2.06a.75.75 0 0 1 0 1.5H9.58a.75.75 0 0 1-.75-.75Z" clip-rule="evenodd"/></svg>