<svg width="24" height="24" fill="none" xmlns="http://www.w3.org/2000/svg"><path d="M16.75 22v-7.5c0-.41.34-.75.75-.75s.75.34.75.75V22c0 .41-.34.75-.75.75s-.75-.34-.75-.75zM16.75 6V2c0-.41.34-.75.75-.75s.75.34.75.75v4c0 .41-.34.75-.75.75s-.75-.34-.75-.75zM5.75 22v-4c0-.41.34-.75.75-.75s.75.34.75.75v4c0 .41-.34.75-.75.75s-.75-.34-.75-.75zM5.75 10V2c0-.41.34-.75.75-.75s.75.34.75.75v8c0 .41-.34.75-.75.75s-.75-.34-.75-.75z" fill="#8D96B5"/><circle cx="6.5" cy="15.5" r="2.5" transform="rotate(180 6.5 15.5)" stroke="#8D96B5" stroke-width="1.5"/><circle cx="17.5" cy="11.5" r="2.5" transform="rotate(180 17.5 11.5)" stroke="#8D96B5" stroke-width="1.5"/></svg>