<svg width="24" height="24" viewBox="0 0 24 24" fill="none" xmlns="http://www.w3.org/2000/svg">
<path d="M9 9.75C8.58579 9.75 8.25 10.0858 8.25 10.5C8.25 10.9142 8.58579 11.25 9 11.25V9.75ZM15 11.25C15.4142 11.25 15.75 10.9142 15.75 10.5C15.75 10.0858 15.4142 9.75 15 9.75V11.25ZM9 12.75C8.58579 12.75 8.25 13.0858 8.25 13.5C8.25 13.9142 8.58579 14.25 9 14.25V12.75ZM15 14.25C15.4142 14.25 15.75 13.9142 15.75 13.5C15.75 13.0858 15.4142 12.75 15 12.75V14.25ZM9 15.75C8.58579 15.75 8.25 16.0858 8.25 16.5C8.25 16.9142 8.58579 17.25 9 17.25V15.75ZM12 17.25C12.4142 17.25 12.75 16.9142 12.75 16.5C12.75 16.0858 12.4142 15.75 12 15.75V17.25ZM18 9V16.5H19.5V9H18ZM15.75 18.75H8.25V20.25H15.75V18.75ZM6 16.5V9H4.5V16.5H6ZM15 6.75H15.75V5.25H15V6.75ZM8.25 6.75H9V5.25H8.25V6.75ZM8.25 18.75C7.00736 18.75 6 17.7426 6 16.5H4.5C4.5 18.5711 6.17893 20.25 8.25 20.25V18.75ZM18 16.5C18 17.7426 16.9926 18.75 15.75 18.75V20.25C17.8211 20.25 19.5 18.5711 19.5 16.5H18ZM19.5 9C19.5 6.92893 17.8211 5.25 15.75 5.25V6.75C16.9926 6.75 18 7.75736 18 9H19.5ZM6 9C6 7.75736 7.00736 6.75 8.25 6.75V5.25C6.17893 5.25 4.5 6.92893 4.5 9H6ZM10.5 5.25H13.5V3.75H10.5V5.25ZM13.5 6.75H10.5V8.25H13.5V6.75ZM10.5 6.75C10.0858 6.75 9.75 6.41421 9.75 6H8.25C8.25 7.24264 9.25736 8.25 10.5 8.25V6.75ZM14.25 6C14.25 6.41421 13.9142 6.75 13.5 6.75V8.25C14.7426 8.25 15.75 7.24264 15.75 6H14.25ZM13.5 5.25C13.9142 5.25 14.25 5.58579 14.25 6H15.75C15.75 4.75736 14.7426 3.75 13.5 3.75V5.25ZM10.5 3.75C9.25736 3.75 8.25 4.75736 8.25 6H9.75C9.75 5.58579 10.0858 5.25 10.5 5.25V3.75ZM9 11.25H15V9.75H9V11.25ZM9 14.25H15V12.75H9V14.25ZM9 17.25H12V15.75H9V17.25Z" fill="#CC66CC"/>
</svg>
