<svg xmlns="http://www.w3.org/2000/svg" fill="none" viewBox="0 0 24 24">
  <g clip-path="url(#a)">
    <path fill="#000" fill-opacity=".9" d="M11.103 10.438a1.786 1.786 0 1 0 1.786 3.093 1.786 1.786 0 0 0-1.786-3.093Zm8.005 1.938a11.187 11.187 0 0 0-.371-.403c.09-.096.179-.192.264-.287 1.605-1.804 2.283-3.614 1.655-4.702-.602-1.043-2.393-1.353-4.636-.917-.22.043-.44.092-.659.146a11.969 11.969 0 0 0-.133-.43c-.76-2.293-1.99-3.784-3.246-3.783-1.204 0-2.368 1.397-3.11 3.558-.074.213-.142.428-.204.644a12.119 12.119 0 0 0-.44-.1c-2.366-.485-4.271-.165-4.898.924-.601 1.043.027 2.75 1.528 4.472.15.17.302.337.46.5a13.18 13.18 0 0 0-.525.571c-1.465 1.698-2.057 3.376-1.457 4.415.62 1.074 2.498 1.425 4.785.975.186-.037.37-.078.553-.124.067.234.14.467.221.697.74 2.117 1.897 3.468 3.097 3.468 1.24 0 2.482-1.453 3.235-3.659.06-.174.115-.355.169-.541.237.058.475.11.715.156 2.203.417 3.952.09 4.551-.95.619-1.075-.019-2.877-1.554-4.63ZM4.07 7.452c.386-.67 1.944-.932 3.986-.512.13.027.264.057.399.09-.2.882-.34 1.777-.422 2.678A20.896 20.896 0 0 0 5.93 11.4a12.431 12.431 0 0 1-.428-.465C4.216 9.461 3.708 8.081 4.07 7.452Zm3.887 5.728a18.81 18.81 0 0 1-1.416-1.181c.43-.396.905-.79 1.415-1.176a25.097 25.097 0 0 0 0 2.357Zm0 3.94a7.236 7.236 0 0 1-2.64.094 1.767 1.767 0 0 1-1.241-.657c-.364-.63.111-1.978 1.364-3.43.157-.182.32-.36.488-.532.664.613 1.368 1.18 2.107 1.7.082.913.225 1.819.426 2.713-.167.041-.335.079-.505.113Zm7.1-8.039a29.657 29.657 0 0 0-2.045-1.176 18.7 18.7 0 0 1 1.739-.635c.132.598.235 1.203.306 1.811ZM9.68 5.835c.636-1.85 1.578-2.98 2.304-2.98.773-.001 1.777 1.218 2.434 3.197.043.129.083.259.12.39-.862.267-1.706.591-2.526.97a20.065 20.065 0 0 0-2.52-.981c.058-.2.12-.399.188-.596Zm-.4 1.424c.587.185 1.164.4 1.73.642-.701.362-1.384.755-2.048 1.181.08-.638.187-1.249.318-1.823Zm-.317 7.66a25.16 25.16 0 0 0 2.066 1.189 18.22 18.22 0 0 1-1.744.665 19.145 19.145 0 0 1-.322-1.853Zm5.456 3.146a7.238 7.238 0 0 1-1.238 2.333 1.766 1.766 0 0 1-1.188.747c-.729 0-1.658-1.084-2.29-2.895-.075-.214-.143-.43-.206-.648.865-.279 1.71-.616 2.53-1.01.826.382 1.677.709 2.547.979-.048.166-.1.33-.155.494Zm.362-1.324a19.251 19.251 0 0 1-1.762-.645 29.343 29.343 0 0 0 2.057-1.193 18.14 18.14 0 0 1-.295 1.838Zm.447-4.743c0 .608-.018 1.214-.057 1.82-.493.334-1.013.66-1.554.972a28.08 28.08 0 0 1-1.597.856 24.318 24.318 0 0 1-3.166-1.823 24.273 24.273 0 0 1-.002-3.643 24.17 24.17 0 0 1 3.158-1.823c.544.265 1.079.548 1.604.851.526.303 1.043.622 1.549.959.043.61.065 1.22.065 1.831Zm.956-5.093c1.922-.373 3.37-.122 3.733.507.387.67-.167 2.148-1.553 3.706-.077.086-.157.172-.239.259a20.07 20.07 0 0 0-2.144-1.688 20.041 20.041 0 0 0-.405-2.649c.207-.05.41-.096.608-.135Zm-.13 3.885c.508.37.996.767 1.462 1.188-.464.428-.95.831-1.457 1.208a27.175 27.175 0 0 0-.005-2.396Zm3.869 5.789c-.364.631-1.768.894-3.653.538a12.13 12.13 0 0 1-.664-.146c.19-.884.319-1.78.387-2.682a19.942 19.942 0 0 0 2.137-1.715c.118.122.23.243.336.364a7.236 7.236 0 0 1 1.403 2.238 1.766 1.766 0 0 1 .054 1.403Z"/>
  </g>
  <defs>
    <clipPath id="a">
      <path fill="#fff" d="M0 0h24v24H0z"/>
    </clipPath>
  </defs>
</svg>
