<svg xmlns="http://www.w3.org/2000/svg" fill="none" viewBox="0 0 24 24">
  <path fill="#C6C" d="M9 9.75a.75.75 0 0 0 0 1.5v-1.5Zm6 1.5a.75.75 0 0 0 0-1.5v1.5Zm-6 1.5a.75.75 0 0 0 0 1.5v-1.5Zm6 1.5a.75.75 0 0 0 0-1.5v1.5Zm-6 1.5a.75.75 0 0 0 0 1.5v-1.5Zm3 1.5a.75.75 0 0 0 0-1.5v1.5ZM18 9v7.5h1.5V9H18Zm-2.25 9.75h-7.5v1.5h7.5v-1.5ZM6 16.5V9H4.5v7.5H6Zm9-9.75h.75v-1.5H15v1.5Zm-6.75 0H9v-1.5h-.75v1.5Zm0 12A2.25 2.25 0 0 1 6 16.5H4.5a3.75 3.75 0 0 0 3.75 3.75v-1.5ZM18 16.5a2.25 2.25 0 0 1-2.25 2.25v1.5a3.75 3.75 0 0 0 3.75-3.75H18ZM19.5 9a3.75 3.75 0 0 0-3.75-3.75v1.5A2.25 2.25 0 0 1 18 9h1.5ZM6 9a2.25 2.25 0 0 1 2.25-2.25v-1.5A3.75 3.75 0 0 0 4.5 9H6Zm4.5-3.75h3v-1.5h-3v1.5Zm3 1.5h-3v1.5h3v-1.5Zm-3 0A.75.75 0 0 1 9.75 6h-1.5a2.25 2.25 0 0 0 2.25 2.25v-1.5ZM14.25 6a.75.75 0 0 1-.75.75v1.5A2.25 2.25 0 0 0 15.75 6h-1.5Zm-.75-.75a.75.75 0 0 1 .75.75h1.5a2.25 2.25 0 0 0-2.25-2.25v1.5Zm-3-1.5A2.25 2.25 0 0 0 8.25 6h1.5a.75.75 0 0 1 .75-.75v-1.5ZM9 11.25h6v-1.5H9v1.5Zm0 3h6v-1.5H9v1.5Zm0 3h3v-1.5H9v1.5Z"/>
</svg>
