<svg xmlns="http://www.w3.org/2000/svg" fill="none" viewBox="0 0 24 24">
  <path fill="current" d="M8 17.25a.75.75 0 0 0 0 1.5v-1.5Zm3.64-11.5a.75.75 0 0 0 0 1.5v-1.5ZM9 21.25a.75.75 0 0 0 0 1.5v-1.5Zm6 1.5a.75.75 0 0 0 0-1.5v1.5ZM12.5 20l.73-.18-.73.18Zm.43-8.21.2.72c.4-.1.64-.52.53-.92l-.73.2Zm-3.86 1.03-.72.2a.75.75 0 0 0 .91.53l-.19-.73Zm1.73 1.61a.75.75 0 0 0 1.44-.39l-1.44.4ZM8.03 8.96l.73-.2v-.02l-.02-.03-.7.25ZM6 3.29l-.59-.46c-.16.2-.2.47-.12.72l.7-.26ZM10.83 2l.74-.13a.75.75 0 0 0-.5-.58l-.24.71Zm1.07 5.92-.74.14v.03l.01.03.73-.2ZM8.2 1.65l.15.73-.15-.73ZM17.25 12c0 2.9-2.35 5.25-5.25 5.25v1.5A6.75 6.75 0 0 0 18.75 12h-1.5ZM12 17.25H8v1.5h4v-1.5Zm-.36-10c2.28 0 3.65.67 4.45 1.53A4.63 4.63 0 0 1 17.25 12h1.5a6.1 6.1 0 0 0-1.56-4.24c-1.16-1.24-2.97-2.01-5.55-2.01v1.5Zm1.36 14H9v1.5h4v-1.5Zm0 1.5h2v-1.5h-2v1.5Zm-1.73-4.57.5 2 1.46-.36-.5-2-1.46.36Zm.5 2 .5 2 1.46-.36-.5-2-1.46.36Zm.97-9.12-1.93.52.39 1.45 1.93-.52-.39-1.45Zm-1.93.52-1.93.52.38 1.45 1.94-.52-.4-1.45Zm1.43 2.46-.51-1.93-1.45.39.52 1.93 1.44-.39ZM9.8 12.63 8.76 8.77l-1.45.38 1.04 3.87 1.44-.39ZM8.74 8.71 6.7 3.04l-1.4.5 2.03 5.67 1.41-.5Zm1.35-6.58 1.07 5.93 1.48-.27-1.07-5.92-1.48.26Zm1.08 5.99 1.04 3.86 1.45-.39-1.04-3.86-1.45.39Zm-.1-6.83A5.86 5.86 0 0 0 8.04.9l.3 1.47c.5-.1 1.17-.03 2.24.33l.47-1.42ZM8.04.9c-1.07.23-1.86.93-2.64 1.92l1.18.93c.71-.9 1.22-1.26 1.76-1.38L8.05.91Z"/>
</svg>
