<svg xmlns="http://www.w3.org/2000/svg" fill="none" viewBox="0 0 24 24">
  <path stroke="currentColor" stroke-linecap="round" stroke-linejoin="round" stroke-width="1.5" d="M17 7.967a.505.505 0 0 0-.159 0 2.144 2.144 0 0 1-2.067-2.15A2.15 2.15 0 1 1 17 7.967Zm-.859 6.066c1.142.192 2.4-.008 3.284-.6 1.174-.783 1.174-2.066 0-2.85-.892-.591-2.167-.791-3.309-.591M6.975 7.967a.505.505 0 0 1 .159 0A2.144 2.144 0 0 0 9.2 5.817c0-1.192-.958-2.15-2.15-2.15a2.15 2.15 0 0 0-.075 4.3Zm.859 6.066c-1.142.192-2.4-.008-3.284-.6-1.175-.783-1.175-2.066 0-2.85.892-.591 2.167-.791 3.309-.591m4.141 4.2a.506.506 0 0 0-.158 0 2.144 2.144 0 0 1-2.067-2.15 2.15 2.15 0 1 1 4.3 0c-.008 1.166-.925 2.116-2.075 2.15Zm-3.055 1.232c-1.481 1.093-1.481 2.884 0 3.977 1.68 1.244 4.431 1.244 6.112 0 1.48-1.093 1.48-2.884 0-3.977-1.67-1.232-4.432-1.232-6.112 0Z"/>
</svg>
