<svg xmlns="http://www.w3.org/2000/svg" fill="none" viewBox="0 0 61 61"><rect width="61" height="61" fill="#1D9BF0" rx="30.5"/><path fill="#fff" d="M24.92 46.59c13.53 0 20.92-11.21 20.92-20.92l-.01-.95a15.06 15.06 0 0 0 3.67-3.81c-1.31.58-2.73.97-4.22 1.16A7.35 7.35 0 0 0 48.5 18a14.9 14.9 0 0 1-4.67 1.78 7.35 7.35 0 0 0-12.52 6.71 20.86 20.86 0 0 1-15.15-7.69 7.38 7.38 0 0 0 2.28 9.8 7.22 7.22 0 0 1-3.32-.9v.09a7.36 7.36 0 0 0 5.9 7.2 7.33 7.33 0 0 1-3.32.13 7.34 7.34 0 0 0 6.86 5.11 14.78 14.78 0 0 1-10.89 3.03c3.22 2.1 7.1 3.33 11.24 3.33Z"/></svg>