<svg width="24" height="24" viewBox="0 0 24 24" fill="none" xmlns="http://www.w3.org/2000/svg">
<path d="M11.2395 20.9305C11.2395 21.3447 11.5753 21.6805 11.9895 21.6805C12.4037 21.6805 12.7395 21.3447 12.7395 20.9305H11.2395ZM12.7395 11.1148C12.7395 10.7006 12.4037 10.3648 11.9895 10.3648C11.5753 10.3648 11.2395 10.7006 11.2395 11.1148H12.7395ZM7.95481 12.7888C7.65409 13.0736 7.64123 13.5483 7.92609 13.849C8.21094 14.1498 8.68564 14.1626 8.98636 13.8778L7.95481 12.7888ZM11.9895 10L12.5053 9.4555L11.9895 8.96694L11.4737 9.4555L11.9895 10ZM14.9926 13.8778C15.2933 14.1626 15.768 14.1498 16.0529 13.849C16.3378 13.5483 16.3249 13.0736 16.0242 12.7888L14.9926 13.8778ZM6.3365 8.01395L6.27425 8.76137L6.8523 8.80951L7.04425 8.26213L6.3365 8.01395ZM17.6635 8.01395L16.9558 8.26213L17.1477 8.80951L17.7258 8.76137L17.6635 8.01395ZM19.6245 14.8157C19.2659 15.0231 19.1434 15.4819 19.3508 15.8404C19.5582 16.199 20.017 16.3215 20.3755 16.1141L19.6245 14.8157ZM3.62446 16.1141C3.983 16.3215 4.4418 16.199 4.6492 15.8404C4.85661 15.4819 4.73409 15.0231 4.37554 14.8157L3.62446 16.1141ZM12.7395 20.9305V11.1148H11.2395V20.9305H12.7395ZM8.98636 13.8778L12.5053 10.5445L11.4737 9.4555L7.95481 12.7888L8.98636 13.8778ZM11.4737 10.5445L14.9926 13.8778L16.0242 12.7888L12.5053 9.4555L11.4737 10.5445ZM2.75 12C2.75 10.2051 4.20507 8.75 6 8.75V7.25C3.37665 7.25 1.25 9.37665 1.25 12H2.75ZM18 8.75C19.7949 8.75 21.25 10.2051 21.25 12H22.75C22.75 9.37665 20.6234 7.25 18 7.25V8.75ZM7.04425 8.26213C7.76185 6.21568 9.71073 4.75 12 4.75V3.25C9.05398 3.25 6.55059 5.13689 5.62875 7.76578L7.04425 8.26213ZM6 8.75C6.09253 8.75 6.18399 8.75385 6.27425 8.76137L6.39875 7.26654C6.26713 7.25558 6.13413 7.25 6 7.25V8.75ZM12 4.75C14.2893 4.75 16.2381 6.21568 16.9558 8.26213L18.3713 7.76578C17.4494 5.13689 14.946 3.25 12 3.25V4.75ZM17.7258 8.76137C17.816 8.75385 17.9075 8.75 18 8.75V7.25C17.8659 7.25 17.7329 7.25558 17.6012 7.26654L17.7258 8.76137ZM21.25 12C21.25 13.202 20.5978 14.2526 19.6245 14.8157L20.3755 16.1141C21.7934 15.2939 22.75 13.7591 22.75 12H21.25ZM4.37554 14.8157C3.40216 14.2526 2.75 13.202 2.75 12H1.25C1.25 13.7591 2.20663 15.2939 3.62446 16.1141L4.37554 14.8157Z" fill="black" fill-opacity="0.7"/>
</svg>
