<svg width="24" height="24" viewBox="0 0 24 24" fill="none" xmlns="http://www.w3.org/2000/svg">
<path d="M4.5 10C5.88071 10 7 8.88071 7 7.5C7 6.11929 5.88071 5 4.5 5C3.11929 5 2 6.11929 2 7.5C2 8.88071 3.11929 10 4.5 10Z"/>
<path d="M19.5 10C20.8807 10 22 8.88071 22 7.5C22 6.11929 20.8807 5 19.5 5C18.1193 5 17 6.11929 17 7.5C17 8.88071 18.1193 10 19.5 10Z"/>
<path d="M12 12C13.6569 12 15 10.6569 15 9C15 7.34315 13.6569 6 12 6C10.3431 6 9 7.34315 9 9C9 10.6569 10.3431 12 12 12Z"/>
<path d="M15.3333 19.9996C15.5523 20.0044 15.7699 19.9675 15.9713 19.8912C16.1727 19.815 16.3532 19.7013 16.5004 19.5579C16.8143 19.2857 16.9939 18.9149 17 18.5262V15.2118C16.9981 14.6257 16.7339 14.0641 16.2651 13.6497C15.7963 13.2353 15.1611 13.0017 14.4982 13H9.50182C8.83889 13.0017 8.20366 13.2353 7.73489 13.6497C7.26613 14.0641 7.00192 14.6257 7 15.2118V18.5262C7.0102 18.9141 7.18907 19.2837 7.49944 19.558C7.80982 19.8324 8.22785 19.9906 8.66667 19.9996H15.3333Z"/>
<path d="M4.66057 18V15.1654C4.6576 14.1865 5.09991 13.2464 5.89053 12.5515C5.92523 12.5213 5.95276 12.4854 5.97155 12.4459C5.99033 12.4063 6 12.364 6 12.3212C6 12.2785 5.99033 12.2361 5.97155 12.1966C5.95276 12.1571 5.92523 12.1212 5.89053 12.091C5.82538 12.035 5.73845 12.0026 5.64706 12H2.16903C1.59428 12.0015 1.04355 12.2012 0.637137 12.5556C0.230726 12.91 0.00166837 13.3903 0 13.8915V16.7399C0.00884186 17.0717 0.163917 17.3877 0.433008 17.6224C0.702099 17.8571 1.06452 17.9923 1.44497 18H4.66057Z"/>
<path d="M22.5609 17.9996C22.75 18.0038 22.9379 17.9721 23.1118 17.9068C23.2857 17.8414 23.4415 17.744 23.5686 17.6211C23.8397 17.3878 23.9948 17.0699 24 16.7368V13.896C23.9983 13.3937 23.7702 12.9124 23.3654 12.5572C22.9607 12.202 22.4122 12.0018 21.8397 12.0003H18.3757C18.3012 11.9973 18.2274 12.0147 18.1647 12.0501C18.102 12.0855 18.0534 12.1372 18.0257 12.198C17.998 12.2588 17.9925 12.3257 18.0101 12.3893C18.0277 12.4529 18.0674 12.5101 18.1238 12.553C18.9035 13.254 19.3426 14.1932 19.3488 15.1727V17.9996H22.5609Z"/>
</svg>
