<svg width="18" height="18" viewBox="0 0 18 18" fill="none" xmlns="http://www.w3.org/2000/svg">
<g id="plus-circle 1" clip-path="url(#clip0_10718_106593)">
<path id="Polygon 3" d="M9 7V11.5M9.5 13.5L8.5 14.5M9.25 14.25V14.25C9.11193 14.3881 8.88807 14.3881 8.75 14.25V14.25C8.61193 14.1119 8.61193 13.8881 8.75 13.75V13.75C8.88807 13.6119 9.11193 13.6119 9.25 13.75V13.75C9.38807 13.8881 9.38807 14.1119 9.25 14.25ZM1.70985 17H16.2902C17.055 17 17.5367 16.1763 17.1617 15.5097L9.87157 2.54947C9.48927 1.86982 8.51073 1.86982 8.12842 2.54947L0.838272 15.5097C0.463307 16.1763 0.94502 17 1.70985 17Z" stroke="#FF9500" stroke-width="1.5"/>
</g>
<defs>
<clipPath id="clip0_10718_106593">
<rect width="18" height="18" fill="white"/>
</clipPath>
</defs>
</svg>

