<svg width="18" height="17" viewBox="0 0 18 17" fill="none" xmlns="http://www.w3.org/2000/svg">
<path fill-rule="evenodd" clip-rule="evenodd" d="M7.43475 1.45344C8.07967 0.163608 9.92033 0.163611 10.5652 1.45344L16.9472 14.2174C17.529 15.381 16.6829 16.75 15.382 16.75H2.61803C1.31712 16.75 0.470998 15.381 1.05279 14.2174L7.43475 1.45344ZM9.22361 2.12426C9.13147 1.94 8.86852 1.94 8.77639 2.12426L2.39443 14.8882C2.31131 15.0544 2.43219 15.25 2.61803 15.25H15.382C15.5678 15.25 15.6887 15.0544 15.6056 14.8882L9.22361 2.12426ZM8.25 10.5V6H9.75V10.5H8.25ZM8.21967 12.2197C8.65063 11.7887 9.34937 11.7887 9.78033 12.2197C10.2113 12.6506 10.2113 13.3494 9.78033 13.7803C9.34937 14.2113 8.65063 14.2113 8.21967 13.7803C7.78871 13.3494 7.78871 12.6506 8.21967 12.2197Z" fill="#FF9500"/>
</svg>
