<svg width="24" height="24" viewBox="0 0 24 24" fill="none" xmlns="http://www.w3.org/2000/svg">
<path d="M2 11.75C2 6.36522 6.36522 2 11.75 2C17.1348 2 21.5 6.36522 21.5 11.75C21.5 17.1348 17.1348 21.5 11.75 21.5C6.36522 21.5 2 17.1348 2 11.75Z" fill="#8D96B5"/>
<path d="M11.6329 19.1024C15.6951 19.1024 18.9881 15.6389 18.9881 11.6375C18.9881 7.63598 15.6951 4.39212 11.6329 4.39212C8.52003 4.39212 5.85877 6.42604 4.78503 9.17739V14.5063C5.85877 17.1974 8.52003 19.1024 11.6329 19.1024Z" fill="#D8DBE5"/>
<path d="M4.4375 8.69031C4.4375 7.47654 4.4375 6.86579 4.67712 6.40192C4.87809 6.01537 5.20273 5.69067 5.5892 5.48966C6.05298 5.25 6.67134 5.25 7.88489 5.25H11.1622C12.3758 5.25 12.9864 5.25 13.4502 5.48193C13.8366 5.69067 14.1613 6.00764 14.3623 6.40192C14.6019 6.86579 14.6019 7.47654 14.6019 8.69031V14.2103C14.6019 15.8338 14.6019 16.6455 14.285 17.264C14.0135 17.7873 13.5869 18.214 13.0637 18.4855C12.4453 18.8025 11.6337 18.8025 10.0105 18.8025H8.36412" fill="#2F2F3D"/>
<path d="M9.69986 13.2912C12.2118 13.2912 14.2481 11.2549 14.2481 8.74295C14.2481 6.23103 12.2118 4.19471 9.69986 4.19471C7.18793 4.19471 5.15162 6.23103 5.15162 8.74295C5.15162 11.2549 7.18793 13.2912 9.69986 13.2912Z" fill="#F9FAFC"/>
<path d="M11.5724 15.7883C11.5724 17.4136 10.2548 18.8205 8.62938 18.8205C7.00402 18.8205 5.6864 17.5028 5.6864 15.8774C5.6864 14.2521 7.00402 12.8452 8.62938 12.8452C10.2548 12.8452 11.5724 14.1629 11.5724 15.7883Z" fill="#D8DBE5"/>
<path d="M8.1842 14.5397C9.12271 15.2332 9.63407 15.2225 10.5029 14.5397" stroke="black" stroke-width="0.395142"/>
<path d="M5.15162 10.259C4.19297 11.4141 4.20775 12.0435 5.15162 13.1128" stroke="#D8DBE5" stroke-width="0.439047"/>
<path d="M10.6804 14.5397C11.6189 15.2332 12.1303 15.2225 12.9991 14.5397" stroke="#F9FAFC" stroke-width="0.395142"/>
<path d="M7.29236 9.63476V9.01049H9.70026V9.63476" stroke="#8D96B5" stroke-width="0.395142"/>
<path d="M13.891 10.0807L13.356 10.5265L13.891 10.9725" stroke="#8D96B5" stroke-width="0.219523"/>
<path d="M9.78858 7.31604H10.8588M9.78858 7.85113H10.8588" stroke="#D8DBE5" stroke-width="0.329285"/>
<path d="M7.73828 10.3482C8.36517 9.81901 8.71665 9.8189 9.34355 10.3482" stroke="#2F2F3D" stroke-width="0.263428"/>
<path d="M11.5738 10.3482C12.2008 9.81901 12.5522 9.8189 13.1791 10.3482" stroke="#2F2F3D" stroke-width="0.263428"/>
<path d="M8.76183 10.3482C8.76183 10.4714 8.662 10.5711 8.53887 10.5711C8.41573 10.5711 8.31592 10.4714 8.31592 10.3482C8.31592 10.2251 8.41573 10.1252 8.53887 10.1252C8.662 10.1252 8.76183 10.2251 8.76183 10.3482Z" fill="#2F2F3D"/>
<path d="M13.8926 12.4713C13.8926 13.102 13.3735 13.6479 12.7332 13.6479C12.0929 13.6479 11.5738 13.1366 11.5738 12.5059C11.5738 11.8751 12.0929 11.3292 12.7332 11.3292C13.3735 11.3292 13.8926 11.8405 13.8926 12.4713Z" fill="#D8DBE5"/>
<path d="M9.07605 12.5777C9.07605 12.9345 9.23212 13.1128 9.54425 13.1128C9.85639 13.1128 9.70032 13.1128 10.0125 13.1128C10.3245 13.1128 10.3245 13.4696 10.3245 13.4696" stroke="#8D96B5" stroke-width="0.395142"/>
<path d="M11.5722 12.5777C11.5722 12.9345 11.4162 13.1128 11.1041 13.1128C10.7919 13.1128 10.948 13.1128 10.6359 13.1128C10.3237 13.1128 10.3237 13.4696 10.3237 13.4696" stroke="#8D96B5" stroke-width="0.395142"/>
<path d="M11.5426 9.18885L13.8614 8.11868L13.8613 8.4754L11.5426 9.54559V9.18885Z" fill="#2F2F3D"/>
<path d="M8.99355 4.18447C8.99355 4.31419 8.88839 4.41934 8.75868 4.41934C8.62896 4.41934 8.52381 4.31419 8.52381 4.18447C8.52381 4.05476 8.62896 3.9496 8.75868 3.9496C8.88839 3.9496 8.99355 4.05476 8.99355 4.18447Z" fill="#2F2F3D"/>
<path d="M9.69772 4.41934C9.60378 4.41934 9.47738 4.35792 9.4253 4.23737C9.37322 4.11682 9.41588 3.94959 9.60378 3.85565C10.1675 3.57381 10.5276 4.2463 10.4493 4.70119L10.2614 4.70118C10.2614 4.70118 10.3553 4.23144 9.88562 4.32539C9.83339 4.33583 9.79167 4.41934 9.69772 4.41934Z" fill="#2F2F3D"/>
</svg>
