<?xml version="1.0" encoding="UTF-8"?>
<svg enable-background="new 0 0 48 48" version="1" viewBox="0 0 48 48" xmlns="http://www.w3.org/2000/svg">
 <g fill="none" stroke="currentColor" stroke-width="3.06">
  <rect x="7.5" y="31.5" width="9" height="9" stroke-linecap="round" stroke-linejoin="round"/>
  <path d="m35.37 18.67-5.04-5.04c-0.36-0.36-0.36-0.9 0-1.26l5.04-5.04c0.36-0.36 0.9-0.36 1.26 0l5.04 5.04c0.36 0.36 0.36 0.9 0 1.26l-5.04 5.04c-0.36 0.36-0.9 0.36-1.26 0z"/>
  <circle cx="12" cy="13" r="5.4"/>
  <circle cx="36" cy="36" r="5.4"/>
 </g>
 <g fill="currentColor">
  <g transform="matrix(.95 0 0 .95 .54762 .975)">
   <rect x="11" y="24" width="2" height="5"/>
   <polygon points="12 21 9 25 15 25"/>
  </g>
  <g transform="matrix(.95 0 0 .95 1.2 .34967)">
   <rect x="20" y="12" width="5" height="2"/>
   <polygon points="28 13 24 10 24 16"/>
  </g>
  <g transform="matrix(.95 0 0 .95 1.8846 .975)">
   <rect x="35" y="21" width="2" height="5"/>
   <polygon points="36 29 39 25 33 25"/>
  </g>
 </g>
</svg>
