<?xml version="1.0" encoding="UTF-8"?>
<svg width="50mm" height="50mm" version="1.1" viewBox="0 0 50 50" xmlns="http://www.w3.org/2000/svg">
 <g transform="matrix(.26458 0 0 .26458 15.677 11.351)" display="none">
  <rect x="-454.25" y="-757.24" width="1345.3" height="1337.6" display="inline"/>
 </g>
 <g fill="currentColor" transform="matrix(.96284 0 0 .96252 1.1063 .93224)">
  <g fill="none" stroke="currentColor" stroke-width="3.656">
   <circle transform="rotate(-41.534)" cx="21.134" cy="42.84" r="4.2686"/>
   <path d="m41.182 21.317-5.6853 5.036z" stroke-linecap="round" stroke-linejoin="round"/>
   <circle transform="rotate(269.68)" cx="-12.737" cy="24.476" r="4.2686"/>
   <path d="m24.993 17.041 0.04177 7.5949z" stroke-linecap="round" stroke-linejoin="round"/>
   <circle transform="matrix(-.74856 -.66306 -.66306 .74856 0 0)" cx="-16.294" cy="9.6872" r="4.2686"/>
   <path d="m8.8184 21.317 5.6853 5.036z" stroke-linecap="round" stroke-linejoin="round"/>
  </g>
  <path d="m16.928 28.695c-2.0255 0.14849-3.6483 2.1008-3.4688 4.1164 0.03701 2.3964-0.07303 4.8014 0.05288 7.1927 0.26684 1.9628 2.2264 3.4189 4.1792 3.2201 4.994-0.0159 9.9902 0.03163 14.983-0.02344 2.0452-0.17775 3.6271-2.1822 3.416-4.2086-0.03783-2.3642 0.07464-4.7376-0.05403-7.0965-0.26862-1.9614-2.2256-3.4179-4.178-3.2164-4.9765 0.01058-9.9542-0.02106-14.93 0.01562zm15.299 3.2441c0.83515 0.03074 0.56473 1.0573 0.60156 1.6035-0.03215 2.0214 0.06374 4.0584-0.04687 6.0703-0.36962 0.6404-1.2605 0.23556-1.8547 0.34961-4.5827-0.0092-9.1672 0.01829-13.749-0.01367-0.77934-0.2573-0.34773-1.2755-0.45898-1.8762 0.03333-1.9259-0.06618-3.868 0.04883-5.784 0.36895-0.64113 1.2607-0.23506 1.8547-0.34961h13.604z" stroke-width=".73394"/>
  <path d="m19.271 34.022v4.2509h3.2617v-4.6439h-3.2617v0.39304z" stroke-width=".63246"/>
  <path d="m27.354 34.022v4.2509h3.2617v-4.6439h-3.2617v0.39304z" stroke-width=".63246"/>
  <path d="m9.0057 33.457v5.5176h3.2598v-6.0469h-3.2598v0.5293z" stroke-width=".73394"/>
  <path d="m37.219 33.475v5.5176h3.2598v-6.0469h-3.2598v0.5293z" stroke-width=".73394"/>
 </g>
</svg>
